<?xml version="1.0" standalone="no"?>
<!DOCTYPE svg PUBLIC "-//W3C//DTD SVG 1.1//EN" "http://www.w3.org/Graphics/SVG/1.1/DTD/svg11.dtd" >
<svg xmlns="http://www.w3.org/2000/svg" xmlns:xlink="http://www.w3.org/1999/xlink" version="1.1">
<metadata>
Created by FontForge 20170731 at Fri Oct 24 17:25:36 2014
 By Aleksey,,,
Copyright (c) 2012 by Fontfabric LLC. All rights reserved.
</metadata>
<defs>
<font id="Panton-ExtraLight" horiz-adv-x="545" >
  <font-face 
    font-family="Panton ExtraLight"
    font-weight="250"
    font-stretch="normal"
    units-per-em="1000"
    panose-1="0 0 3 0 0 0 0 0 0 0"
    ascent="740"
    descent="-260"
    x-height="511"
    cap-height="710"
    bbox="-209.2 -257 1138 954.273"
    underline-thickness="50"
    underline-position="-300"
    unicode-range="U+0020-FB02"
  />
<missing-glyph horiz-adv-x="686" 
d="M596 9q0 -9 -9 -9h-483q-9 0 -9 9v692q0 9 9 9h483q9 0 9 -9v-692zM124 683v-656h443v656h-443z" />
    <glyph glyph-name="fi" unicode="fi" horiz-adv-x="548" 
d="M467 740q7 0 7 -8v-10q0 -7 -7 -7h-147q-97 0 -132 -33.5t-35 -132.5v-38h314q7 0 7 -7v-497q0 -7 -7 -7h-13q-7 0 -7 7v479h-294v-479q0 -7 -8 -7h-12q-7 0 -7 7v479h-114q-7 0 -7 7v11q0 7 7 7h114v38q0 110 42.5 150.5t151.5 40.5h147z" />
    <glyph glyph-name="fl" unicode="fl" horiz-adv-x="511" 
d="M426 740q7 0 7 -7v-726q0 -7 -7 -7h-12q-8 0 -8 7v708h-86q-97 0 -132 -33.5t-35 -132.5v-38h146q7 0 7 -7v-11q0 -7 -7 -7h-146v-479q0 -7 -8 -7h-12q-7 0 -7 7v479h-114q-7 0 -7 7v11q0 7 7 7h114v38q0 110 42.5 150.5t151.5 40.5h106z" />
    <glyph glyph-name=".notdef" horiz-adv-x="686" 
d="M596 9q0 -9 -9 -9h-483q-9 0 -9 9v692q0 9 9 9h483q9 0 9 -9v-692zM124 683v-656h443v656h-443z" />
    <glyph glyph-name=".null" horiz-adv-x="65" 
 />
    <glyph glyph-name="nonmarkingreturn" horiz-adv-x="333" 
 />
    <glyph glyph-name="space" unicode=" " horiz-adv-x="249" 
 />
    <glyph glyph-name="exclam" unicode="!" horiz-adv-x="178" 
d="M97 740q8 0 7 -7l-4 -586q0 -7 -7 -7h-7q-8 0 -8 7l-4 586q0 7 8 7h15zM92 40q11 0 15 -4.5t4 -15.5v-5q0 -11 -4 -15t-15 -4h-5q-11 0 -15 3.5t-4 15.5v5q0 11 4 15.5t15 4.5h5z" />
    <glyph glyph-name="quotedbl" unicode="&#x22;" horiz-adv-x="252" 
d="M91 497q0 -6 -7 -6h-7q-7 0 -7 6v206q0 7 7 7h14q7 0 7 -7zM179 497q0 -6 -7 -6h-7q-7 0 -7 6v206q0 7 7 7h14q7 0 7 -7z" />
    <glyph glyph-name="numbersign" unicode="#" horiz-adv-x="655" 
d="M611 462q8 0 5 -8l-3 -12q-2 -6 -10 -6h-125l-59 -201h124q7 0 6 -8l-4 -12q-2 -6 -10 -6h-124l-60 -202q-4 -7 -11 -7h-13q-7 0 -6 7l61 202h-187l-61 -202q-1 -7 -9 -7h-14q-8 0 -5 7l60 202h-122q-9 0 -6 7l4 12q1 7 10 7h122l60 201h-123q-8 0 -5 7l3 12q3 7 11 7
h122l52 173q1 8 9 8h14q8 0 5 -8l-52 -173h187l52 173q3 8 9 8h13q10 0 7 -8l-52 -173h125zM263 436l-61 -201h187l61 201h-187z" />
    <glyph glyph-name="dollar" unicode="$" horiz-adv-x="589" 
d="M295 790q8 0 8 -7v-75q88 -4 138.5 -43t90.5 -120q5 -9 -4 -12l-11 -5q-8 -3 -12 4q-26 53 -52.5 83t-69 48t-103.5 18q-190 0 -190 -167q0 -26 7 -46.5t15.5 -34.5t27.5 -24.5t32 -16t40.5 -10.5t41.5 -7t46 -5q45 -5 70 -9t61.5 -15.5t56 -29t34 -49t14.5 -74.5
q0 -187 -233 -190v-76q0 -7 -8 -7h-12q-8 0 -8 7v75q-91 4 -143.5 48.5t-86.5 129.5q-4 8 5 12l10 4q8 3 12 -5q35 -83 84 -122.5t139 -39.5q212 0 212 163q0 26 -6.5 47.5t-15 35.5t-26 25t-31 17t-39 11.5t-40.5 7.5t-44 5q-3 0 -5 0.5t-4 0.5q-45 5 -70.5 8.5t-61.5 15
t-55.5 28.5t-34 47t-14.5 72q0 93 54 143.5t161 51.5v75q0 7 8 7h12z" />
    <glyph glyph-name="percent" unicode="%" horiz-adv-x="806" 
d="M40 579q0 68 39.5 107t112.5 39t112.5 -39t39.5 -107v-75q0 -68 -39.5 -106.5t-112.5 -38.5t-112.5 38.5t-39.5 106.5v75zM670 710q12 0 4 -9l-510 -694q-6 -7 -17 -7h-10q-12 0 -5 9l511 694q5 7 15 7h12zM319 578q0 58 -33 90.5t-94 32.5q-62 0 -94.5 -32.5
t-32.5 -90.5v-73q0 -58 32.5 -90t94.5 -32q61 0 94 32t33 90v73zM462 205q0 68 39.5 107t112.5 39t112.5 -39t39.5 -107v-75q0 -68 -39.5 -106.5t-112.5 -38.5t-112.5 38.5t-39.5 106.5v75zM741 204q0 58 -33 90.5t-94 32.5t-94 -32.5t-33 -90.5v-73q0 -58 33 -90t94 -32
q62 0 94.5 32t32.5 90v73z" />
    <glyph glyph-name="ampersand" unicode="&#x26;" horiz-adv-x="648" 
d="M107 561q0 66 48 114.5t123 48.5q73 0 121.5 -48t48.5 -114q0 -71 -41 -111t-139 -80l-10 -5l226 -214l75 71q5 5 11 0l8 -9q5 -5 0 -10l-75 -71l130 -125q8 -8 -4 -8h-17q-8 0 -14 6l-114 109q-88 -79 -141.5 -104t-115.5 -25q-75 0 -128.5 52.5t-53.5 129.5
q0 43 13 76.5t39.5 57.5t52 39.5t64.5 32.5q-32 31 -51.5 54t-37.5 59.5t-18 73.5zM421 562q0 55 -40.5 96t-102.5 41q-63 0 -103 -41t-40 -97q0 -35 17.5 -69.5t35.5 -54t52 -51.5l16 7q34 15 45.5 20t37.5 18.5t35.5 23.5t23.5 26.5t18.5 36t4.5 44.5zM233 355
q-80 -33 -120 -73.5t-40 -114.5q0 -65 45.5 -110t109.5 -45q55 0 105 24t132 98z" />
    <glyph glyph-name="quotesingle" unicode="'" horiz-adv-x="164" 
d="M91 497q0 -6 -7 -6h-7q-7 0 -7 6v206q0 7 7 7h14q7 0 7 -7z" />
    <glyph glyph-name="parenleft" unicode="(" horiz-adv-x="231" 
d="M64 611q0 86 34 136t105 83q7 4 10 -4l5 -10q3 -7 -4 -10q-63 -29 -93 -73.5t-30 -120.5v-514q0 -76 30 -120.5t93 -73.5q8 -4 4 -10l-5 -10q-3 -8 -10 -4q-71 33 -105 83t-34 136v512z" />
    <glyph glyph-name="parenright" unicode=")" horiz-adv-x="231" 
d="M18 826q4 7 10 4q71 -32 105 -82.5t34 -136.5v-512q0 -86 -34 -136.5t-105 -82.5q-6 -3 -10 4l-5 10q-2 6 4 10q63 29 93 73.5t30 120.5v514q0 76 -30 120.5t-93 73.5q-6 4 -4 10z" />
    <glyph glyph-name="asterisk" unicode="*" horiz-adv-x="393" 
d="M202 673q6 0 5 -6l-4 -120l113 41q8 2 9 -3l3 -12q3 -7 -4 -8l-116 -31l74 -96q5 -5 -1 -9l-9 -7q-6 -3 -9 2l-67 101l-68 -100q-4 -7 -9 -3l-9 8q-7 5 -1 8l75 96l-114 32q-8 1 -6 8l4 11q2 5 9 4l112 -42l-4 120q-1 6 5 6h12z" />
    <glyph glyph-name="plus" unicode="+" horiz-adv-x="586" 
d="M521 340q8 0 8 -8v-10q0 -8 -8 -8h-215v-215q0 -8 -8 -8h-10q-8 0 -8 8v215h-215q-8 0 -8 8v10q0 8 8 8h215v215q0 8 8 8h10q8 0 8 -8v-215h215z" />
    <glyph glyph-name="comma" unicode="," horiz-adv-x="150" 
d="M40 -114q-3 -7 -10 -7h-5q-7 0 -6 6l41 151q2 10 13 10h11q13 0 9 -10z" />
    <glyph glyph-name="hyphen" unicode="-" horiz-adv-x="429" 
d="M356 279q8 0 8 -8v-11q0 -8 -8 -8h-282q-8 0 -8 8v11q0 8 8 8h282z" />
    <glyph glyph-name="period" unicode="." horiz-adv-x="152" 
d="M78 40q11 0 15.5 -4.5t4.5 -15.5v-5q0 -11 -4.5 -15t-15.5 -4h-5q-11 0 -15 3.5t-4 15.5v5q0 11 4 15.5t15 4.5h5z" />
    <glyph glyph-name="slash" unicode="/" horiz-adv-x="382" 
d="M66 -53q-3 -7 -11 -7h-13q-8 0 -5 7l280 756q3 7 10 7h14q9 0 5 -7z" />
    <glyph glyph-name="zero" unicode="0" horiz-adv-x="619" 
d="M62 500q0 104 65.5 164t182.5 60t182 -60t65 -164v-289q0 -105 -65 -165t-182 -60q-118 0 -183 60t-65 165v289zM527 500q0 92 -57 144.5t-160 52.5q-104 0 -161 -52.5t-57 -144.5v-289q0 -93 57 -145.5t161 -52.5q103 0 160 52.5t57 145.5v289z" />
    <glyph glyph-name="one" unicode="1" horiz-adv-x="446" 
d="M342 710q8 0 8 -8v-694q0 -8 -8 -8h-13q-8 0 -8 8v667l-270 -150q-7 -4 -11 3l-7 11q-4 7 3 10l284 157q5 4 11 4h11z" />
    <glyph glyph-name="two" unicode="2" horiz-adv-x="582" 
d="M56 563q36 82 96.5 121.5t157.5 39.5q96 0 156.5 -59.5t60.5 -146.5q0 -26 -5 -48.5t-10.5 -40t-20 -34.5t-24 -28t-31.5 -24.5t-33.5 -20.5t-39.5 -19t-39.5 -16.5t-43.5 -16.5q-38 -14 -60 -23.5t-51.5 -26.5t-45 -34t-27 -43.5t-11.5 -58.5v-57h433q8 0 8 -8v-11
q0 -8 -8 -8h-455q-8 0 -8 9v71q0 38 13 69.5t30 51.5t50.5 39.5t57 29.5t66.5 27q107 41 144 66q81 55 81 154q0 76 -52.5 128t-134.5 52q-85 0 -139 -35.5t-87 -109.5q-3 -8 -10 -5l-13 6q-7 3 -5 10z" />
    <glyph glyph-name="three" unicode="3" horiz-adv-x="588" 
d="M514 528q0 -56 -24.5 -100t-74.5 -61q120 -35 120 -176q0 -98 -57.5 -151.5t-174.5 -53.5q-112 0 -168.5 44t-82.5 136q-2 8 6 11l11 4q8 3 11 -5q25 -85 74 -124t149 -39q103 0 153 46.5t50 131.5q0 73 -41 116.5t-117 43.5h-180q-8 0 -8 8v11q0 8 8 8h178q70 0 105 43
t35 106q0 83 -45.5 126.5t-136.5 43.5q-97 0 -145 -37t-73 -120q-3 -8 -11 -5l-11 3q-9 3 -6 11q26 90 81.5 132.5t164.5 42.5q104 0 157 -51t53 -145z" />
    <glyph glyph-name="four" unicode="4" horiz-adv-x="593" 
d="M555 243q8 0 8 -8v-11q0 -8 -8 -8h-113v-208q0 -8 -8 -8h-12q-8 0 -8 8v208h-379q-8 0 -8 8v8q0 7 3 11l379 474q4 5 11 5h13q9 0 9 -8v-471h113zM414 680l-351 -437h351v437z" />
    <glyph glyph-name="five" unicode="5" horiz-adv-x="577" 
d="M498 710q8 0 8 -8v-11q0 -8 -8 -8h-365l-26 -268h202q108 0 165 -59t57 -151q0 -93 -63.5 -156.5t-169.5 -63.5q-198 0 -252 154q-3 8 3 10l14 6q8 2 10 -6q48 -137 224 -137q94 0 149 55.5t55 137.5q0 79 -50 130.5t-143 51.5h-221q-12 0 -11 13l30 294q1 16 17 16h375z
" />
    <glyph glyph-name="six" unicode="6" horiz-adv-x="610" 
d="M91 360q92 42 229 42q122 0 181 -51.5t59 -156.5q0 -98 -66 -153t-183 -55q-121 0 -185.5 65t-64.5 181v246q0 121 63.5 183.5t186.5 62.5q181 0 238 -149q4 -7 -5 -10l-12 -5q-7 -2 -10 6q-53 131 -211 131q-108 0 -164 -55.5t-56 -163.5v-118zM91 232
q0 -104 56.5 -161.5t163.5 -57.5q104 0 161.5 47t57.5 134q0 92 -51.5 136.5t-159.5 44.5q-135 0 -228 -44v-99z" />
    <glyph glyph-name="seven" unicode="7" horiz-adv-x="503" 
d="M485 710q8 0 8 -8v-8q0 -4 -3 -11l-296 -676q-4 -7 -14 -7h-14q-7 0 -4 8l297 675h-422q-8 0 -8 8v11q0 8 8 8h448z" />
    <glyph glyph-name="eight" unicode="8" horiz-adv-x="606" 
d="M73 549q0 85 60.5 130t169.5 45q114 0 172.5 -44t58.5 -129q0 -47 -18 -83.5t-47 -57.5t-54 -32t-52 -18q44 -13 73 -26t58.5 -34.5t44.5 -54.5t15 -76q0 -183 -251 -183t-251 176q0 49 21 88t55.5 62t62 35t56.5 19q-83 27 -128.5 67t-45.5 116zM505 549q0 73 -51.5 111
t-150.5 38q-95 0 -148 -38.5t-53 -110.5q0 -24 6.5 -45t15.5 -35.5t27.5 -28t32.5 -21.5t40.5 -17.5t42 -14t45.5 -12.5l10 -3q16 3 31 6.5t45.5 16.5t51.5 30.5t38 50t17 73.5zM524 168q0 34 -11.5 61t-29.5 44t-48 31t-58 23t-69 21q-4 1 -7 2t-7 2l-8 2q-16 -3 -32.5 -7
t-50.5 -18.5t-58 -33.5t-43.5 -54t-19.5 -78q0 -151 221 -151t221 156z" />
    <glyph glyph-name="nine" unicode="9" horiz-adv-x="610" 
d="M520 350q-97 -42 -229 -42q-123 0 -181.5 51.5t-58.5 156.5q0 98 66 153t183 55q121 0 185 -65t64 -181v-246q0 -121 -63.5 -183.5t-185.5 -62.5q-182 0 -239 149q-2 7 5 10l13 5q6 2 10 -6q53 -131 211 -131q108 0 164 55.5t56 163.5v118zM520 478q0 103 -56.5 161
t-163.5 58q-105 0 -162.5 -47t-57.5 -134q0 -92 51.5 -136.5t160.5 -44.5q134 0 228 44v99z" />
    <glyph glyph-name="colon" unicode=":" horiz-adv-x="175" 
d="M90 479q11 0 15 -4.5t4 -15.5v-5q0 -11 -4 -15t-15 -4h-5q-11 0 -15 3.5t-4 15.5v5q0 11 4 15.5t15 4.5h5zM90 40q11 0 15 -4.5t4 -15.5v-5q0 -11 -4 -15t-15 -4h-5q-11 0 -15 3.5t-4 15.5v5q0 11 4 15.5t15 4.5h5z" />
    <glyph glyph-name="semicolon" unicode=";" horiz-adv-x="218" 
d="M122 479q11 0 15.5 -4.5t4.5 -15.5v-5q0 -11 -4.5 -15t-15.5 -4h-4q-12 0 -16 3.5t-4 15.5v5q0 11 4.5 15.5t15.5 4.5h4zM80 -114q-3 -7 -9 -7h-6q-6 0 -5 6l41 151q2 10 13 10h11q12 0 8 -10z" />
    <glyph glyph-name="less" unicode="&#x3c;" horiz-adv-x="508" 
d="M431 548q10 6 10 -6v-12q0 -9 -9 -14l-353 -189v-1l353 -189q9 -6 9 -15v-12q0 -12 -10 -6l-382 207q-8 4 -8 11v8q0 7 8 12z" />
    <glyph glyph-name="equal" unicode="=" horiz-adv-x="605" 
d="M531 439q8 0 8 -8v-11q0 -8 -8 -8h-456q-8 0 -8 8v11q0 8 8 8h456zM531 241q8 0 8 -7v-12q0 -7 -8 -7h-456q-8 0 -8 7v12q0 7 8 7h456z" />
    <glyph glyph-name="greater" unicode="&#x3e;" horiz-adv-x="508" 
d="M67 542q0 12 10 6l382 -206q8 -5 8 -12v-8q0 -7 -8 -11l-382 -207q-10 -4 -10 6v12q0 9 9 14l353 189v1l-353 190q-9 5 -9 14v12z" />
    <glyph glyph-name="question" unicode="?" horiz-adv-x="550" 
d="M34 575q63 165 247 165q107 0 170 -58.5t63 -146.5q0 -38 -9 -71t-20.5 -53.5t-33.5 -42.5t-36 -32.5t-41 -28.5q-35 -24 -55 -41t-38 -51t-18 -76q0 -8 -8 -8h-10q-8 0 -8 8q0 38 9 67.5t29.5 52.5t36.5 36t46 33q31 21 47.5 34.5t38 38.5t31 57.5t9.5 75.5
q0 77 -54.5 128t-149.5 51q-163 0 -220 -147q-3 -8 -10 -5l-12 4q-8 3 -4 10zM253 40q11 0 15 -4.5t4 -15.5v-5q0 -11 -4 -15t-15 -4h-5q-11 0 -15 3.5t-4 15.5v5q0 11 4 15.5t15 4.5h5z" />
    <glyph glyph-name="at" unicode="@" horiz-adv-x="900" 
d="M52 326q0 185 105 291.5t290 106.5q190 0 294 -108t104 -290v-68q0 -102 -52 -156t-125 -54q-48 0 -57 44q-82 -43 -189 -43q-85 0 -127 42t-42 119v161q0 78 42 120.5t127 42.5q99 0 173 -30q20 -8 27 -17.5t7 -30.5v-346q0 -39 40 -39q62 0 106.5 47.5t44.5 138.5v69
q0 172 -97 273.5t-276 101.5q-173 0 -271.5 -100t-98.5 -275v-69q0 -176 97.5 -271t272.5 -95q23 0 47.5 1.5t44.5 4t38.5 5.5t33.5 6t25.5 5t17.5 4l7 2q6 1 6 -2v-14q0 -5 -6 -7q-112 -28 -214 -28q-187 0 -291 101t-104 289v68zM580 484q-61 26 -156 26q-146 0 -146 -139
v-160q0 -138 146 -138q116 0 180 44v334q0 14 -5 20.5t-19 12.5z" />
    <glyph glyph-name="A" unicode="A" horiz-adv-x="627" 
d="M614 8q3 -8 -6 -8h-12q-11 0 -14 7l-97 241h-344l-97 -241q-3 -7 -15 -7h-10q-9 0 -6 8l283 699q3 8 11 8h12q9 0 12 -7zM320 658q-5 13 -7 27h-1q-3 -19 -6 -27l-156 -385h326z" />
    <glyph glyph-name="B" unicode="B" horiz-adv-x="638" 
d="M378 710q88 0 136 -45.5t48 -131.5q0 -133 -108 -167v-1q64 -13 98.5 -58.5t34.5 -119.5q0 -90 -51 -138.5t-143 -48.5h-300q-8 0 -8 8v694q0 8 8 8h285zM533 530q0 75 -40.5 114t-116.5 39h-262v-307h262q76 0 116.5 39.5t40.5 114.5zM556 189q0 78 -42.5 119t-121.5 41
h-278v-322h278q78 0 121 42t43 120z" />
    <glyph glyph-name="C" unicode="C" horiz-adv-x="633" 
d="M63 481q0 114 68.5 178.5t197.5 64.5q114 0 174.5 -43.5t86.5 -132.5q3 -9 -6 -10l-11 -4q-8 -3 -11 5q-25 82 -78 120t-155 38q-116 0 -176 -57t-60 -158v-253q0 -101 61 -158.5t175 -57.5q104 0 157.5 40t78.5 124q3 8 10 5l12 -4q7 -2 5 -11q-25 -91 -85.5 -136
t-177.5 -45q-128 0 -197 64.5t-69 179.5v251z" />
    <glyph glyph-name="D" unicode="D" horiz-adv-x="642" 
d="M293 710q138 0 214 -70.5t76 -193.5v-182q0 -123 -76 -193.5t-214 -70.5h-200q-8 0 -8 8v694q0 8 8 8h200zM554 446q0 112 -67.5 174.5t-193.5 62.5h-179v-656h179q125 0 193 62.5t68 174.5v182z" />
    <glyph glyph-name="E" unicode="E" horiz-adv-x="568" 
d="M504 710q8 0 8 -8v-11q0 -8 -8 -8h-390v-309h347q8 0 8 -8v-12q0 -8 -8 -8h-347v-319h404q8 0 8 -8v-11q0 -8 -8 -8h-425q-8 0 -8 8v694q0 8 8 8h411z" />
    <glyph glyph-name="F" unicode="F" horiz-adv-x="548" 
d="M504 710q8 0 8 -8v-11q0 -8 -8 -8h-390v-320h341q8 0 8 -8v-12q0 -8 -8 -8h-341v-327q0 -8 -8 -8h-13q-8 0 -8 8v694q0 8 8 8h411z" />
    <glyph glyph-name="G" unicode="G" horiz-adv-x="649" 
d="M586 351q9 0 9 -9v-114q0 -113 -69 -177.5t-196 -64.5q-129 0 -198 65t-69 180v250q0 114 68.5 178.5t197.5 64.5q114 0 174.5 -43.5t86.5 -132.5q3 -9 -6 -10l-11 -4q-8 -3 -11 5q-25 82 -78 120t-155 38q-117 0 -177 -57t-60 -158v-250q0 -103 61.5 -161t176.5 -58
q113 0 174.5 57.5t61.5 158.5v94h-228q-8 0 -8 8v12q0 8 8 8h248z" />
    <glyph glyph-name="H" unicode="H" horiz-adv-x="677" 
d="M585 710q8 0 8 -8v-694q0 -8 -8 -8h-14q-8 0 -8 8v338h-449v-338q0 -8 -8 -8h-13q-8 0 -8 8v694q0 8 8 8h13q8 0 8 -8v-328h449v328q0 8 8 8h14z" />
    <glyph glyph-name="I" unicode="I" horiz-adv-x="199" 
d="M85 702q0 8 8 8h13q8 0 8 -8v-694q0 -8 -8 -8h-13q-8 0 -8 8v694z" />
    <glyph glyph-name="J" unicode="J" horiz-adv-x="565" 
d="M477 710q8 0 8 -8v-489q0 -106 -60.5 -167t-170.5 -61q-195 0 -230 204q-3 7 4 10l13 5q8 3 11 -6q16 -91 63.5 -138t138.5 -47q97 0 149.5 53.5t52.5 146.5v489q0 8 8 8h13z" />
    <glyph glyph-name="K" unicode="K" horiz-adv-x="594" 
d="M572 9q7 -9 -4 -9h-12q-12 0 -16 7l-120 239q-27 54 -63 77t-100 23h-143v-338q0 -8 -8 -8h-13q-8 0 -8 8v694q0 8 8 8h13q8 0 8 -8v-328h142q19 0 28 -1l243 330q5 7 17 7h13q12 0 5 -9l-247 -333q86 -17 131 -109z" />
    <glyph glyph-name="L" unicode="L" horiz-adv-x="516" 
d="M106 710q8 0 8 -8v-675h380q8 0 8 -8v-11q0 -8 -8 -8h-401q-8 0 -8 8v694q0 8 8 8h13z" />
    <glyph glyph-name="M" unicode="M" horiz-adv-x="792" 
d="M699 710q8 0 8 -8v-694q0 -8 -8 -8h-13q-8 0 -8 8l1 492q0 87 4 160h-2q-28 -55 -73 -134l-195 -347q-4 -7 -11 -7h-10q-7 0 -12 7l-198 352q-40 70 -70 130h-2q3 -83 3 -161v-492q0 -8 -8 -8h-12q-8 0 -8 8v694q0 8 8 8h11q8 0 12 -8l281 -494l278 493q4 9 13 9h11z" />
    <glyph glyph-name="N" unicode="N" horiz-adv-x="686" 
d="M594 710q8 0 8 -8v-694q0 -8 -8 -8h-13q-6 0 -10 6l-378 536q-14 21 -41.5 63t-39.5 59h-1q0 -20 1.5 -74t1.5 -83v-499q0 -8 -8 -8h-13q-8 0 -8 8v694q0 8 8 8h12q7 0 10 -5l367 -521q15 -21 46.5 -68.5t46.5 -68.5h2q0 23 -2 82.5t-2 92.5v481q0 7 8 7h13z" />
    <glyph glyph-name="O" unicode="O" horiz-adv-x="658" 
d="M63 480q0 115 69 179.5t198 64.5q128 0 196.5 -64.5t68.5 -179.5v-250q0 -115 -68.5 -179.5t-196.5 -64.5q-129 0 -198 64.5t-69 179.5v250zM565 479q0 103 -61 160.5t-174 57.5q-115 0 -176.5 -57.5t-61.5 -160.5v-248q0 -103 61.5 -160.5t176.5 -57.5q113 0 174 57.5
t61 160.5v248z" />
    <glyph glyph-name="P" unicode="P" horiz-adv-x="615" 
d="M363 710q101 0 159.5 -57t58.5 -158q0 -99 -58.5 -155.5t-159.5 -56.5h-249v-275q0 -8 -8 -8h-13q-8 0 -8 8v694q0 8 8 8h270zM360 310q89 0 139.5 49t50.5 136q0 89 -50.5 138.5t-139.5 49.5h-246v-373h246z" />
    <glyph glyph-name="Q" unicode="Q" horiz-adv-x="667" 
d="M606 -36q6 -6 0 -12l-9 -7q-6 -6 -12 0l-77 92q-66 -51 -178 -51q-129 0 -198 64.5t-69 179.5v250q0 115 69 179.5t198 64.5q128 0 196.5 -64.5t68.5 -179.5v-250q0 -113 -65 -176zM92 231q0 -103 61.5 -160.5t176.5 -57.5q113 0 174 57.5t61 160.5v248q0 103 -61 160.5
t-174 57.5q-115 0 -176.5 -57.5t-61.5 -160.5v-248z" />
    <glyph glyph-name="R" unicode="R" horiz-adv-x="638" 
d="M382 710q94 0 146.5 -51.5t52.5 -144.5q0 -87 -50 -137t-136 -54q57 -21 93 -90l113 -224q5 -9 -5 -9h-12q-10 0 -16 7l-107 213q-27 54 -63 77t-99 23h-185v-312q0 -8 -8 -8h-13q-8 0 -8 8v694q0 8 8 8h289zM550 514q0 81 -44.5 125t-126.5 44h-265v-335h265
q81 0 126 43t45 123z" />
    <glyph glyph-name="S" unicode="S" horiz-adv-x="620" 
d="M59 530q0 90 65.5 142t180.5 52q98 0 160 -37t102 -119q4 -8 -4 -11l-12 -5q-7 -3 -11 3q-36 73 -91.5 106.5t-143.5 33.5q-101 0 -158.5 -43.5t-57.5 -120.5q0 -37 14 -64.5t33.5 -43.5t54 -27.5t61.5 -16t71 -9.5q38 -4 61.5 -8t56.5 -12t53 -21t39.5 -31.5t28.5 -47
t9 -65.5q0 -97 -66 -148t-194 -51q-102 0 -166 42.5t-102 134.5q-4 8 5 12l11 4q8 3 11 -4q36 -83 94.5 -122t146.5 -39q231 0 231 170q0 37 -13.5 64.5t-31.5 43t-52.5 26.5t-58.5 15t-68 9q-46 5 -76 10t-68.5 18.5t-60.5 32t-38 51t-16 76.5z" />
    <glyph glyph-name="T" unicode="T" horiz-adv-x="525" 
d="M504 710q8 0 8 -8v-11q0 -8 -8 -8h-227v-675q0 -8 -8 -8h-13q-8 0 -8 8v675h-227q-8 0 -8 8v11q0 8 8 8h483z" />
    <glyph glyph-name="U" unicode="U" horiz-adv-x="678" 
d="M108 240q0 -107 58.5 -167.5t172.5 -60.5t172 60.5t58 167.5v462q0 8 8 8h14q8 0 8 -8v-462q0 -119 -66 -187t-194 -68q-129 0 -194.5 67.5t-65.5 187.5v462q0 8 8 8h13q8 0 8 -8v-462z" />
    <glyph glyph-name="V" unicode="V" horiz-adv-x="607" 
d="M590 710q7 0 4 -8l-273 -694q-3 -8 -11 -8h-13q-8 0 -11 8l-273 694q-3 8 5 8h13q12 0 13 -7l238 -606q4 -10 11 -30.5t10 -28.5h2q3 7 10 27t11 31l237 607q3 7 13 7h14z" />
    <glyph glyph-name="W" unicode="W" horiz-adv-x="864" 
d="M834 710q8 0 5 -8l-190 -694q-2 -8 -12 -8h-12q-9 0 -12 8l-158 554q-4 14 -22 86h-1l-24 -86l-158 -554q-1 -8 -11 -8h-13q-10 0 -11 8l-190 694q-3 8 5 8h15q10 0 11 -7l156 -573q2 -9 9.5 -41t11.5 -46h1q3 15 11.5 46t10.5 40l159 556q2 7 11 7h14q9 0 11 -7
l159 -558q19 -73 22 -84h1q5 20 19 83l156 577q3 7 12 7h14z" />
    <glyph glyph-name="X" unicode="X" horiz-adv-x="600" 
d="M583 11q7 -11 -3 -11h-17q-10 0 -15 7l-249 331l-248 -331q-5 -7 -14 -7h-17q-10 0 -3 11l264 349l-257 342q-6 8 4 8h17q9 0 15 -7l240 -319l240 319q6 7 15 7h16q11 0 5 -8l-257 -342z" />
    <glyph glyph-name="Y" unicode="Y" horiz-adv-x="613" 
d="M593 710q9 0 5 -8l-277 -408v-286q0 -8 -8 -8h-13q-8 0 -8 8v287l-275 407q-6 8 5 8h16q10 0 15 -7l254 -378l255 378q4 7 14 7h17z" />
    <glyph glyph-name="Z" unicode="Z" horiz-adv-x="548" 
d="M500 710q8 0 8 -8v-10q0 -7 -3 -11l-437 -653h445q8 0 8 -8v-12q0 -8 -8 -8h-474q-8 0 -8 8v11q0 7 5 13l435 651h-428q-7 0 -7 8v11q0 8 7 8h457z" />
    <glyph glyph-name="bracketleft" unicode="[" horiz-adv-x="247" 
d="M228 856q8 0 8 -7v-11q0 -8 -8 -8h-129v-950h129q8 0 8 -8v-11q0 -7 -8 -7h-149q-7 0 -7 7v988q0 7 7 7h149z" />
    <glyph glyph-name="backslash" unicode="\" horiz-adv-x="382" 
d="M36 703q-4 7 5 7h14q8 0 11 -7l280 -756q4 -7 -5 -7h-15q-7 0 -10 7z" />
    <glyph glyph-name="bracketright" unicode="]" horiz-adv-x="247" 
d="M168 856q8 0 8 -7v-988q0 -7 -8 -7h-149q-7 0 -7 7v11q0 8 7 8h129v950h-129q-7 0 -7 8v11q0 7 7 7h149z" />
    <glyph glyph-name="asciicircum" unicode="^" horiz-adv-x="596" 
d="M300 810q6 0 10 -6l226 -274q7 -10 -4 -10h-13q-10 0 -16 7l-206 252h-3l-203 -252q-5 -7 -16 -7h-12q-11 0 -4 10l222 274q5 6 11 6h8z" />
    <glyph glyph-name="underscore" unicode="_" horiz-adv-x="513" 
d="M475 0q8 0 8 -8v-11q0 -8 -8 -8h-436q-8 0 -8 8v11q0 8 8 8h436z" />
    <glyph glyph-name="grave" unicode="`" horiz-adv-x="257" 
d="M35 720q6 7 15 1l174 -110q6 -4 1 -10l-5 -6q-4 -4 -12 -1l-178 109q-8 4 -1 10z" />
    <glyph glyph-name="a" unicode="a" horiz-adv-x="507" 
d="M59 419q54 106 194 106q56 0 95 -15t59 -43t28 -60t8 -74v-264q0 -26 -7.5 -37t-28.5 -20q-60 -26 -154 -26q-122 0 -166.5 36.5t-44.5 114.5q0 81 49 114.5t166 33.5q45 0 159 -12v61q0 37 -6.5 64.5t-23.5 52t-51 37t-83 12.5q-119 0 -169 -92q-4 -6 -10 -4l-10 4
q-9 3 -4 11zM416 249q-82 13 -161 13q-102 0 -143.5 -28.5t-41.5 -96.5q0 -66 38 -96.5t144 -30.5q86 0 138 23q17 7 21.5 14t4.5 26v176z" />
    <glyph glyph-name="b" unicode="b" horiz-adv-x="532" 
d="M91 740q7 0 7 -7v-250q95 42 190 42q188 0 188 -191v-148q0 -200 -206 -200q-93 0 -160 28q-24 11 -31.5 21t-7.5 34v664q0 7 7 7h13zM449 333q0 167 -164 167q-91 0 -187 -44v-381q0 -17 4.5 -23.5t23.5 -14.5q65 -26 143 -26q180 0 180 175v147z" />
    <glyph glyph-name="c" unicode="c" horiz-adv-x="513" 
d="M55 334q0 90 53.5 140.5t156.5 50.5q89 0 136.5 -34.5t67.5 -103.5q2 -8 -4 -11l-11 -3q-7 -3 -10 4q-19 65 -60.5 94t-120.5 29q-88 0 -134.5 -44t-46.5 -121v-158q0 -77 47 -121.5t134 -44.5q77 0 121 31.5t62 98.5q3 8 10 5l12 -3q7 -3 5 -10q-42 -147 -209 -147
q-101 0 -155 50.5t-54 141.5v156z" />
    <glyph glyph-name="d" unicode="d" horiz-adv-x="532" 
d="M56 333q0 192 189 192q100 0 189 -41v249q0 7 8 7h12q8 0 8 -7v-664q0 -24 -8 -34.5t-32 -20.5q-69 -28 -160 -28q-206 0 -206 198v149zM434 457q-82 43 -186 43q-165 0 -165 -168v-147q0 -174 180 -174q78 0 143 26q19 8 23.5 14t4.5 24v382z" />
    <glyph glyph-name="e" unicode="e" horiz-adv-x="525" 
d="M53 318q0 97 54.5 152t158.5 55q103 0 158 -55.5t55 -150.5v-50q0 -17 -18 -17h-381v-74q0 -78 45.5 -123t133.5 -45q133 0 189 107q5 7 12 3l9 -5q7 -3 2 -10q-60 -119 -212 -119q-102 0 -154 51.5t-52 142.5v138zM451 320q0 84 -47 132.5t-138 48.5t-138.5 -48.5
t-47.5 -132.5v-45h371v45z" />
    <glyph glyph-name="f" unicode="f" horiz-adv-x="339" 
d="M320 740q7 0 7 -8v-11q0 -7 -7 -7q-98 0 -132.5 -33t-34.5 -132v-38h170q7 0 7 -7v-11q0 -7 -7 -7h-170v-479q0 -7 -8 -7h-12q-7 0 -7 7v479h-114q-7 0 -7 7v11q0 7 7 7h114v38q0 109 41 149.5t146 41.5h7z" />
    <glyph glyph-name="g" unicode="g" horiz-adv-x="532" 
d="M56 326q0 199 207 199q92 0 159 -28q24 -10 31.5 -20t7.5 -35v-483q0 -216 -204 -216q-134 0 -190 117q-5 8 3 12l8 4q7 4 12 -3q25 -50 63.5 -77t103.5 -27q177 0 177 189v72q-85 -41 -189 -41q-189 0 -189 191v146zM406 474q-65 26 -142 26q-181 0 -181 -175v-145
q0 -166 164 -166q105 0 187 43v379q0 18 -4.5 24t-23.5 14z" />
    <glyph glyph-name="h" unicode="h" horiz-adv-x="548" 
d="M94 740q7 0 7 -7v-247q85 39 188 39q190 0 190 -191v-327q0 -7 -7 -7h-12q-8 0 -8 7v325q0 168 -165 168q-102 0 -186 -41v-452q0 -7 -7 -7h-13q-7 0 -7 7v726q0 7 7 7h13z" />
    <glyph glyph-name="i" unicode="i" horiz-adv-x="175" 
d="M89 687q19 0 19 -19v-4q0 -18 -19 -18h-4q-11 0 -14.5 3.5t-3.5 14.5v4q0 19 18 19h4zM93 511q8 0 8 -7v-497q0 -7 -8 -7h-12q-7 0 -7 7v497q0 7 7 7h12z" />
    <glyph glyph-name="j" unicode="j" horiz-adv-x="175" 
d="M90 687q18 0 18 -19v-4q0 -18 -18 -18h-5q-11 0 -14.5 3.5t-3.5 14.5v4q0 19 18 19h5zM93 511q8 0 8 -7v-514q0 -112 -42.5 -166t-148.5 -54q-7 0 -7 8v11q0 7 7 7q92 0 128 47.5t36 146.5v514q0 7 7 7h12z" />
    <glyph glyph-name="k" unicode="k" horiz-adv-x="494" 
d="M469 8q5 -8 -4 -8h-12q-9 0 -13 6l-87 175q-19 37 -44 53.5t-68 16.5h-140v-243q0 -8 -8 -8h-12q-7 0 -7 8v724q0 8 7 8h12q8 0 8 -8v-456h138h11l181 229q4 6 15 6h11q11 0 5 -9l-184 -231q65 -9 99 -78z" />
    <glyph glyph-name="l" unicode="l" horiz-adv-x="182" 
d="M105 7q0 -7 -8 -7h-12q-8 0 -8 7v726q0 7 8 7h12q8 0 8 -7v-726z" />
    <glyph glyph-name="m" unicode="m" horiz-adv-x="810" 
d="M384 475q83 50 184 50q172 0 172 -182v-336q0 -7 -7 -7h-13q-7 0 -7 7v334q0 82 -35.5 120.5t-111.5 38.5q-94 0 -167 -47q26 -40 26 -110v-336q0 -7 -7 -7h-13q-7 0 -7 7v334q0 159 -151 159q-73 0 -125 -27q-24 -12 -24 -40v-426q0 -7 -7 -7h-13q-7 0 -7 7v432
q0 22 8 34t29 23q62 29 141 29q91 0 135 -50z" />
    <glyph glyph-name="n" unicode="n" 
d="M108 493q79 32 178 32q190 0 190 -191v-327q0 -7 -7 -7h-12q-8 0 -8 7v325q0 168 -165 168q-96 0 -162 -30q-24 -10 -24 -36v-427q0 -7 -7 -7h-13q-7 0 -7 7v432q0 22 7.5 33t29.5 21z" />
    <glyph glyph-name="o" unicode="o" horiz-adv-x="536" 
d="M57 355q0 78 57.5 124t153.5 46t153.5 -46t57.5 -124v-199q0 -78 -57.5 -124t-153.5 -46t-153.5 46t-57.5 124v199zM452 356q0 66 -50.5 105t-133.5 39q-82 0 -133 -39t-51 -105v-201q0 -66 51 -105t133 -39q83 0 133.5 39t50.5 105v201z" />
    <glyph glyph-name="p" unicode="p" horiz-adv-x="532" 
d="M111 497q67 28 161 28q204 0 204 -198v-149q0 -192 -190 -192q-99 0 -188 48v-247q0 -7 -7 -7h-13q-7 0 -7 7v655q0 24 8 34.5t32 20.5zM449 326q0 174 -180 174q-81 0 -143 -26q-19 -8 -23.5 -14t-4.5 -24v-374q87 -51 187 -51q164 0 164 167v148z" />
    <glyph glyph-name="q" unicode="q" horiz-adv-x="532" 
d="M263 525q92 0 159 -28q24 -10 32 -20.5t8 -34.5v-655q0 -7 -8 -7h-12q-8 0 -8 7v247q-89 -48 -189 -48q-189 0 -189 190v150q0 199 207 199zM83 177q0 -166 164 -166q100 0 187 51v374q0 18 -4.5 24t-23.5 14q-60 26 -142 26q-181 0 -181 -175v-148z" />
    <glyph glyph-name="r" unicode="r" horiz-adv-x="334" 
d="M284 525h31q7 0 7 -7v-10q0 -8 -7 -8h-31q-92 0 -162 -29q-24 -11 -24 -38v-426q0 -7 -7 -7h-13q-7 0 -7 7v432q0 22 7.5 33t29.5 21q79 32 176 32z" />
    <glyph glyph-name="s" unicode="s" horiz-adv-x="490" 
d="M54 385q0 67 47.5 103.5t139.5 36.5q154 0 197 -109q3 -9 -3 -11l-9 -5q-7 -3 -11 4q-19 48 -58.5 72t-114.5 24q-161 0 -161 -115q0 -22 5.5 -39t12 -28.5t23 -20.5t26 -13.5t34.5 -8.5t36 -5t42 -4q34 -3 58 -7.5t50 -14t42 -23.5t26 -37.5t10 -55.5q0 -142 -195 -142
q-81 0 -133.5 29.5t-77.5 97.5q-3 8 5 11l10 3q6 3 9 -4q40 -112 187 -112q168 0 168 116q0 62 -41 84.5t-123 29.5q-27 3 -39 4t-36 4.5t-35 8t-29 12t-26.5 17.5t-18 23.5t-13.5 32.5t-4 42z" />
    <glyph glyph-name="t" unicode="t" horiz-adv-x="334" 
d="M146 631q8 0 8 -7v-113h168q8 0 8 -7v-11q0 -7 -8 -7h-168v-308q0 -100 34.5 -133t132.5 -33q7 0 7 -7v-11q0 -8 -7 -8q-111 -1 -153 39t-42 152v309h-116q-7 0 -7 7v11q0 7 7 7h116v113q0 7 8 7h12z" />
    <glyph glyph-name="u" unicode="u" 
d="M467 511q7 0 7 -7v-431q0 -23 -7.5 -34t-29.5 -21q-79 -32 -178 -32q-190 0 -190 191v327q0 7 7 7h13q7 0 7 -7v-325q0 -168 166 -168q91 0 161 29q24 11 24 38v426q0 7 8 7h12z" />
    <glyph glyph-name="v" unicode="v" horiz-adv-x="494" 
d="M471 511q9 0 6 -8l-214 -500q-3 -7 -12 -7h-7q-8 0 -12 7l-214 499q-4 9 6 9h11q8 0 12 -8l172 -403l28 -70h2q4 9 13 33.5t14 35.5l172 404q3 8 12 8h11z" />
    <glyph glyph-name="w" unicode="w" horiz-adv-x="728" 
d="M697 511q9 0 6 -9l-160 -499q-1 -8 -9 -8h-11q-8 0 -11 8l-127 384q-4 14 -11 37.5t-10 31.5h-2q-3 -8 -10 -31.5t-11 -37.5l-126 -384q-3 -8 -11 -8h-10q-8 0 -10 8l-159 499q-3 9 6 9h11q11 0 12 -8l120 -381q4 -13 12.5 -44t12.5 -44h2q3 10 12 41.5t15 48.5l120 362
q2 7 12 7h8q9 0 11 -7l119 -358q6 -17 15.5 -49.5t13.5 -44.5h2q6 18 26 93l120 376q1 8 12 8h10z" />
    <glyph glyph-name="x" unicode="x" horiz-adv-x="471" 
d="M437 511q10 0 4 -7l-188 -242l200 -255q4 -7 -5 -7h-16q-6 0 -11 6l-185 237l-186 -237q-5 -6 -13 -6h-14q-8 0 -4 7l200 256l-191 241q-5 7 6 7h14q9 0 12 -6l176 -223l174 223q5 6 12 6h15z" />
    <glyph glyph-name="y" unicode="y" horiz-adv-x="548" 
d="M467 511q7 0 7 -7v-545q0 -216 -206 -216q-136 0 -192 117q-5 7 3 12l9 4q6 4 12 -3q49 -104 168 -104q179 0 179 189v69q-100 -38 -188 -38q-190 0 -190 192v323q0 7 7 7h13q7 0 7 -7v-322q0 -168 166 -168q88 0 185 39v451q0 7 8 7h12z" />
    <glyph glyph-name="z" unicode="z" horiz-adv-x="442" 
d="M405 25q6 0 6 -7v-11q0 -7 -6 -7h-367q-7 0 -7 7v11q0 5 4 10l338 458h-331q-7 0 -7 8v10q0 7 7 7h358q7 0 7 -7v-10q0 -7 -4 -12l-337 -457h339z" />
    <glyph glyph-name="braceleft" unicode="{" horiz-adv-x="297" 
d="M280 856q7 0 7 -7v-11q0 -8 -7 -8h-43q-50 0 -71 -24t-21 -75v-259q0 -94 -65 -117q65 -22 65 -118v-259q0 -51 21 -75t71 -24h43q7 0 7 -8v-11q0 -7 -7 -7h-43q-65 0 -92 29.5t-27 94.5v258q0 54 -22 80t-75 26h-11q-7 0 -7 7v13q0 7 7 7h11q52 0 74.5 26t22.5 80v258
q0 65 27 94.5t92 29.5h43z" />
    <glyph glyph-name="bar" unicode="|" horiz-adv-x="169" 
d="M90 856q7 0 7 -7v-989q0 -7 -7 -7h-11q-7 0 -7 7v989q0 7 7 7h11z" />
    <glyph glyph-name="braceright" unicode="}" horiz-adv-x="297" 
d="M60 856q65 0 92 -29.5t27 -94.5v-258q0 -54 22.5 -80t74.5 -26h11q7 0 7 -7v-13q0 -7 -7 -7h-11q-53 0 -75 -26t-22 -80v-258q0 -65 -27 -94.5t-92 -29.5h-43q-7 0 -7 7v11q0 8 7 8h43q50 0 71 24t21 75v259q0 96 65 118q-65 23 -65 117v259q0 51 -21 75t-71 24h-43
q-7 0 -7 8v11q0 7 7 7h43z" />
    <glyph glyph-name="asciitilde" unicode="~" horiz-adv-x="564" 
d="M71 307q55 50 116 50q40 0 97.5 -23t92.5 -23q54 0 100 43q6 4 11 -1l7 -7q6 -6 0 -11q-55 -50 -116 -50q-41 0 -98 23t-93 23q-50 0 -98 -43q-6 -6 -11 0l-8 8q-6 5 0 11z" />
    <glyph glyph-name="exclamdown" unicode="&#xa1;" horiz-adv-x="167" 
d="M82 468q-11 0 -15.5 4.5t-4.5 15.5v4q0 12 4.5 16t15.5 4h4q11 0 15.5 -4.5t4.5 -15.5v-4q0 -11 -4.5 -15.5t-15.5 -4.5h-4zM76 -232q-8 0 -8 7l5 585q0 8 7 8h7q7 0 7 -8l5 -585q0 -7 -8 -7h-15z" />
    <glyph glyph-name="cent" unicode="&#xa2;" horiz-adv-x="533" 
d="M473 143q6 -3 4 -10q-41 -142 -195 -146v-64q0 -7 -8 -7h-13q-7 0 -7 7v63q-94 4 -144.5 54.5t-50.5 137.5v156q0 86 50 136.5t145 54.5v78q0 7 7 7h13q8 0 8 -7v-78q84 -3 128 -37t64 -101q2 -8 -5 -11l-11 -3q-7 -3 -10 4q-19 65 -60 94t-120 29q-89 0 -135 -44
t-46 -121v-158q0 -77 47 -121.5t134 -44.5q76 0 120 31.5t63 98.5q2 7 10 5z" />
    <glyph glyph-name="sterling" unicode="&#xa3;" horiz-adv-x="626" 
d="M151 548q0 79 49.5 127.5t151.5 48.5q83 0 134.5 -35t80.5 -121q3 -8 -5 -10l-12 -5q-7 -2 -11 6q-27 77 -70.5 107.5t-115.5 30.5q-89 0 -130.5 -41t-41.5 -109v-195h289q8 0 8 -8v-10q0 -8 -8 -8h-289v-190q0 -73 -50 -109v-1q16 0 52 0.5t56 0.5h321q8 0 8 -8v-11
q0 -8 -8 -8h-515q-7 0 -7 8v12q0 7 6 7h24q42 1 62.5 34.5t20.5 74.5v190h-93q-8 0 -8 8v10q0 8 8 8h93v196z" />
    <glyph glyph-name="currency" unicode="&#xa4;" horiz-adv-x="590" 
d="M523 130q5 -6 0 -11l-8 -9q-5 -4 -11 0l-58 58q-64 -59 -151 -59q-83 0 -149 56l-58 -57q-5 -6 -11 0l-8 8q-5 6 0 11l58 58q-59 64 -59 151t57 150l-58 57q-5 5 0 11l9 9q6 5 11 0l57 -58q64 58 151 58q84 0 148 -56l58 58q5 4 11 0l8 -9q6 -6 0 -11l-57 -57
q59 -66 59 -152q0 -83 -56 -149zM295 536q-84 0 -142 -57.5t-58 -141.5t58 -142.5t142 -58.5q83 0 141 59t58 142q0 84 -58 141.5t-141 57.5z" />
    <glyph glyph-name="yen" unicode="&#xa5;" horiz-adv-x="624" 
d="M588 710q9 0 5 -8l-254 -370h161q7 0 7 -7v-9q0 -7 -7 -7h-174v-119h174q7 0 7 -7v-9q0 -7 -7 -7h-173v-159q0 -8 -8 -8h-14q-8 0 -8 8v159h-175q-7 0 -7 7v9q0 7 7 7h175v119h-175q-7 0 -7 7v9q0 7 7 7h163l-253 370q-4 8 5 8h16q11 0 14 -7l246 -361l245 361q5 7 15 7
h15z" />
    <glyph glyph-name="brokenbar" unicode="&#xa6;" horiz-adv-x="179" 
d="M95 856q7 0 7 -7v-411q0 -7 -7 -7h-11q-8 0 -8 7v411q0 7 8 7h11zM95 279q7 0 7 -7v-411q0 -7 -7 -7h-11q-8 0 -8 7v411q0 7 8 7h11z" />
    <glyph glyph-name="section" unicode="&#xa7;" horiz-adv-x="587" 
d="M62 561q0 78 55 124t169 46q183 0 243 -173q3 -7 -6 -10l-10 -5q-8 -3 -12 5q-54 155 -215 155q-194 0 -194 -142q0 -29 7.5 -51.5t24 -37t32.5 -24t45 -15.5t47.5 -8.5t52.5 -6.5q48 -5 82.5 -13t69.5 -25.5t53 -49t18 -76.5q0 -103 -107 -159q116 -33 116 -150
q0 -77 -59 -123t-175 -46q-187 0 -246 174q-2 7 6 10l11 4q9 3 11 -5q53 -156 218 -156q103 0 154 38.5t51 103.5q0 20 -4.5 37t-10 29.5t-18 23t-21 17t-27.5 12.5t-29.5 9t-34.5 6.5t-34 4.5t-36 4q-41 4 -68.5 8.5t-61.5 15.5t-53.5 27.5t-33.5 45t-14 67.5
q0 113 121 160q-117 33 -117 149zM296 391q-54 6 -81 11q-16 -5 -31 -12t-40 -23t-40.5 -45.5t-15.5 -67.5q0 -32 12 -56t29 -38t47 -23.5t54.5 -13.5t62.5 -8q55 -4 89 -11q113 51 113 148q0 39 -16.5 66t-47.5 41t-61.5 21t-73.5 11z" />
    <glyph glyph-name="dieresis" unicode="&#xa8;" horiz-adv-x="439" 
d="M124 669q10 0 13.5 -3.5t3.5 -12.5v-7q0 -10 -3.5 -13t-13.5 -3h-6q-9 0 -12.5 3t-3.5 13v7q0 16 16 16h6zM313 669q17 0 17 -16v-7q0 -16 -17 -16h-5q-10 0 -13.5 3t-3.5 13v7q0 9 3.5 12.5t13.5 3.5h5z" />
    <glyph glyph-name="copyright" unicode="&#xa9;" horiz-adv-x="814" 
d="M49 351q0 153 103.5 256t255.5 103q151 0 254 -103t103 -256q0 -152 -103 -255.5t-254 -103.5q-152 0 -255.5 103.5t-103.5 255.5zM742 351q0 143 -96.5 239.5t-237.5 96.5q-143 0 -240 -96.5t-97 -239.5q0 -142 97.5 -239t239.5 -97q141 0 237.5 97t96.5 239zM245 407
q0 69 40.5 107t117.5 38q68 0 104 -26t51 -78q2 -6 -3 -9l-10 -3q-5 -2 -8 3q-15 50 -44.5 70.5t-90.5 20.5q-133 0 -133 -123v-121q0 -59 33.5 -91.5t99.5 -32.5q59 0 91 23t46 74q2 6 9 4l8 -2q7 -3 4 -9q-31 -111 -157 -111q-76 0 -117 38.5t-41 106.5v121z" />
    <glyph glyph-name="ordfeminine" unicode="&#xaa;" horiz-adv-x="376" 
d="M69 610q41 60 121 60q66 0 93.5 -31.5t27.5 -92.5v-123q0 -23 -6.5 -33.5t-26.5 -19.5q-33 -15 -95 -15q-125 0 -125 84q0 45 29.5 68t97.5 23q19 0 103 -6v23q0 50 -22.5 75.5t-76.5 25.5q-66 0 -100 -51q-5 -5 -9 -2l-8 4q-7 4 -3 11zM288 503q-42 6 -104 6
q-57 0 -79.5 -17.5t-22.5 -51.5q0 -64 101 -64q49 0 81 13q14 5 19 12.5t5 24.5v77z" />
    <glyph glyph-name="guillemotleft" unicode="&#xab;" horiz-adv-x="544" 
d="M268 69q6 -5 0 -11l-8 -8q-5 -5 -11 0l-208 208q-5 4 0 9l210 210q4 6 10 0l8 -8q5 -5 0 -11l-195 -195zM491 69q4 -5 0 -11l-9 -8q-5 -5 -11 0l-207 208q-6 4 0 9l209 210q4 6 10 0l8 -8q5 -5 0 -11l-195 -195z" />
    <glyph glyph-name="logicalnot" unicode="&#xac;" horiz-adv-x="574" 
d="M499 371q7 0 7 -7v-217q0 -7 -7 -7h-13q-8 0 -8 7v198h-398q-7 0 -7 7v12q0 7 7 7h419z" />
    <glyph glyph-name="registered" unicode="&#xae;" horiz-adv-x="492" 
d="M52 516q0 80 57.5 137t137.5 57q79 0 136 -57t57 -137t-56.5 -137t-136.5 -57t-137.5 57t-57.5 137zM71 516q0 -73 52 -125t125 -52t124 52t51 125t-51 124.5t-124 51.5t-125 -51.5t-52 -124.5zM270 620q32 0 50.5 -17.5t18.5 -48.5q0 -53 -49 -62l42 -73q5 -7 -3 -7h-8
q-6 0 -8 4l-42 74h-86v-74q0 -4 -5 -4h-9q-4 0 -4 4v195q0 9 8 9h95zM185 507h84q52 0 52 47q0 49 -52 49h-84v-96z" />
    <glyph glyph-name="macron" unicode="&#xaf;" horiz-adv-x="352" 
d="M293 660q7 0 7 -8v-7q0 -8 -7 -8h-239q-7 0 -7 8v7q0 8 7 8h239z" />
    <glyph glyph-name="degree" unicode="&#xb0;" horiz-adv-x="380" 
d="M332 555q0 -58 -42 -100t-100 -42q-59 0 -100.5 41.5t-41.5 100.5q0 60 41 100.5t101 40.5q59 0 100.5 -40.5t41.5 -100.5zM73 555q0 -49 34 -83t83 -34q48 0 82.5 35t34.5 82q0 49 -34 82.5t-83 33.5t-83 -33.5t-34 -82.5z" />
    <glyph glyph-name="plusminus" unicode="&#xb1;" horiz-adv-x="672" 
d="M564 408q8 0 8 -7v-10q0 -8 -8 -8h-214v-141q0 -8 -8 -8h-10q-8 0 -8 8v141h-216q-8 0 -8 8v10q0 7 8 7h216v145q0 8 8 8h10q8 0 8 -8v-145h214zM564 164q8 0 8 -7v-10q0 -8 -8 -8h-456q-8 0 -8 8v10q0 7 8 7h456z" />
    <glyph glyph-name="twosuperior" unicode="&#xb2;" horiz-adv-x="348" 
d="M40 704l1 4q1 5 2.5 10t5 13t7 15.5t10 16.5t13.5 16.5t17.5 15t22 12.5t27 8t32.5 3q63 0 97 -32t34 -83q0 -34 -19.5 -58t-36 -32t-57.5 -22l-3 -1.5t-3 -1t-4 -1.5l-62 -23q-62 -23 -62 -90v-38h236q9 0 9 -7v-8q0 -8 -9 -8h-249q-11 0 -11 10v46q0 86 77 115l62 23
q4 1 22 8t23 9t19 8.5t18.5 12t12 14.5t10 19.5t2.5 23.5q0 42 -27 67.5t-79 25.5q-16 0 -30.5 -3t-24.5 -9t-19 -13t-15 -15t-10.5 -16t-7 -15t-4 -12.5t-2.5 -9.5l-1 -4q-2 -8 -10 -7l-9 3q-8 2 -5 10z" />
    <glyph glyph-name="threesuperior" unicode="&#xb3;" horiz-adv-x="358" 
d="M38 705q17 59 52.5 86t97.5 27q57 0 89 -30.5t32 -80.5q0 -66 -52 -90q63 -29 63 -100q0 -51 -34 -81.5t-99 -30.5q-64 0 -99.5 27.5t-51.5 83.5q-2 8 4 11l10 3q7 2 10 -6q15 -51 43.5 -73.5t83.5 -22.5q52 0 80.5 25t28.5 65q0 36 -21.5 61t-56.5 25h-78q-7 0 -7 7v8
q0 8 8 8h76q34 0 51 22.5t17 55.5q0 41 -25.5 66t-71.5 25q-51 0 -81.5 -23.5t-44.5 -74.5q-3 -10 -12 -6l-7 2q-8 3 -5 11z" />
    <glyph glyph-name="acute" unicode="&#xb4;" horiz-adv-x="257" 
d="M208 721q9 6 15 -1l6 -7q7 -6 -1 -10l-179 -109q-7 -3 -11 1l-5 6q-5 6 1 10z" />
    <glyph glyph-name="mu" unicode="&#xb5;" horiz-adv-x="538" 
d="M465 511q7 0 7 -7v-432q0 -23 -7.5 -34t-29.5 -21q-81 -32 -174 -32q-129 0 -168 95l1 -293q0 -7 -7 -7h-14q-6 0 -6 7v717q0 7 7 7h13q7 0 7 -7v-326q0 -168 166 -168q88 0 161 30q24 11 24 37v427q0 7 8 7h12z" />
    <glyph glyph-name="paragraph" unicode="&#xb6;" horiz-adv-x="314" 
d="M228 710q8 0 8 -7v-785q0 -7 -8 -7h-12q-8 0 -8 7v763h-51v-763q0 -7 -7 -7h-11q-8 0 -8 7v637q-34 0 -55 21t-21 55q0 36 21.5 57.5t57.5 21.5h94z" />
    <glyph glyph-name="periodcentered" unicode="&#xb7;" horiz-adv-x="179" 
d="M92 285q11 0 15 -4t4 -16v-4q0 -11 -4 -15.5t-15 -4.5h-5q-11 0 -15 4t-4 16v4q0 12 4 16t15 4h5z" />
    <glyph glyph-name="cedilla" unicode="&#xb8;" horiz-adv-x="251" 
d="M111 -87q15 5 36 5q41 0 64 -19t22 -53q-1 -44 -29.5 -68t-77.5 -24q-48 0 -86 24q-7 4 -7 13v9q0 8 5 3q35 -29 86 -29q40 0 62.5 19.5t22.5 53.5q0 53 -73 53q-24 0 -41 -6q-6 -2 -8 1t0 10l35 95h20z" />
    <glyph glyph-name="onesuperior" unicode="&#xb9;" horiz-adv-x="278" 
d="M207 810q8 0 8 -8v-381q0 -8 -8 -8h-9q-8 0 -8 8v358l-154 -85q-7 -4 -11 2l-3 7q-3 7 2 11l167 93q5 3 11 3h5z" />
    <glyph glyph-name="ordmasculine" unicode="&#xba;" horiz-adv-x="380" 
d="M58 552q0 56 33.5 87t97.5 31t98 -31t34 -87v-78q0 -56 -34 -87t-98 -31t-97.5 31t-33.5 87v78zM296 553q0 44 -27.5 69t-79.5 25q-51 0 -79 -25t-28 -69v-80q0 -45 28 -69.5t79 -24.5q53 0 80 24.5t27 69.5v80z" />
    <glyph glyph-name="guillemotright" unicode="&#xbb;" horiz-adv-x="544" 
d="M52 458q-6 7 0 11l8 8q6 6 10 0l209 -210q6 -5 0 -9l-207 -208q-7 -6 -11 0l-9 8q-4 6 0 11l195 194zM274 458q-5 6 0 11l8 8q6 6 10 0l210 -210q4 -5 0 -9l-208 -208q-6 -5 -11 0l-8 8q-5 6 0 11l194 194z" />
    <glyph glyph-name="onequarter" unicode="&#xbc;" horiz-adv-x="772" 
d="M219 718q8 0 8 -8v-381q0 -8 -8 -8h-9q-8 0 -8 8v358l-154 -86q-8 -3 -11 3l-3 7q-4 7 3 10l166 94q4 3 11 3h5zM661 710q11 0 5 -9l-510 -693q-6 -8 -18 -8h-10q-10 0 -4 9l510 693q6 8 15 8h12zM665 397q8 0 8 -8v-249h58q7 0 7 -7v-7q0 -8 -7 -8h-58v-111q0 -7 -7 -7
h-10q-7 0 -7 7v111h-207q-7 0 -7 7v6q0 8 3 11l203 249q6 6 13 6h11zM464 140h185v225z" />
    <glyph glyph-name="onehalf" unicode="&#xbd;" horiz-adv-x="845" 
d="M218 719q8 0 8 -8v-381q0 -8 -8 -8h-9q-8 0 -8 8v358l-154 -86q-8 -4 -10 2l-4 8q-4 7 3 10l166 94q1 0 5 1.5t6 1.5h5zM663 710q10 0 4 -9l-510 -693q-6 -8 -17 -8h-10q-12 0 -4 9l510 693q6 8 15 8h12zM530 290l2 8q2 9 6 18t10.5 22t17 24t24.5 21t34.5 16t44.5 6
q63 0 97 -32t34 -83q0 -26 -8.5 -45t-27 -31.5t-34 -19.5t-41.5 -16q-8 -3 -12 -4l-62 -23q-62 -24 -62 -90v-38h236q8 0 8 -7v-9q0 -7 -8 -7h-250q-10 0 -10 10v46q0 85 76 114l62 24q5 2 22 8t23 8.5t19 9t18 12t12.5 14t10 19.5t2.5 24q0 42 -27 67t-78 25
q-16 0 -30.5 -3t-24.5 -9t-19 -13t-15 -15t-10.5 -16t-7 -15t-4 -12.5t-2.5 -9.5l-1 -4q-4 -7 -10 -6l-9 2q-9 2 -6 10z" />
    <glyph glyph-name="threequarters" unicode="&#xbe;" horiz-adv-x="814" 
d="M47 614q16 59 51.5 86t97.5 27q57 0 89.5 -30.5t32.5 -81.5q0 -65 -53 -90q64 -27 64 -100q0 -51 -34 -81t-100 -30q-63 0 -98.5 27.5t-51.5 83.5q-2 8 4 11l9 2q8 3 10 -6q15 -51 43.5 -73t83.5 -22q53 0 81 24.5t28 65.5q0 36 -21.5 61t-55.5 25h-78q-8 0 -8 7v8
q0 7 8 7h76q34 0 51.5 23t17.5 56q0 40 -26 65t-71 25q-52 0 -82 -23.5t-44 -73.5q-4 -10 -12 -7l-8 3q-6 3 -4 11zM706 710q11 0 5 -9l-510 -693q-6 -8 -17 -8h-11q-10 0 -4 9l510 693q6 8 15 8h12zM708 397q8 0 8 -8v-249h57q7 0 7 -7v-7q0 -8 -7 -8h-57v-111q0 -7 -7 -7
h-10q-7 0 -7 7v111h-207q-8 0 -8 7v6q0 8 3 11l204 249q5 6 13 6h11zM692 140v225l-185 -225h185z" />
    <glyph glyph-name="questiondown" unicode="&#xbf;" horiz-adv-x="544" 
d="M294 469q-11 0 -15 4t-4 15v5q0 11 4 15.5t15 4.5h5q11 0 15 -4t4 -16v-5q0 -11 -4 -15t-15 -4h-5zM513 -67q-63 -165 -247 -165q-107 0 -170 59t-63 147q0 38 9 70.5t20.5 53.5t33.5 42.5t36.5 32.5t40.5 28t41.5 30t33.5 33.5t27 47t9 58.5q0 7 7 7h11q8 0 8 -7
q0 -38 -9 -67.5t-30 -53t-36 -36t-46 -33.5t-47.5 -34.5t-38 -38.5t-31 -57.5t-9.5 -75.5q0 -77 54.5 -128t149.5 -51q163 0 220 147q3 8 10 5l12 -4q7 -2 4 -10z" />
    <glyph glyph-name="Agrave" unicode="&#xc0;" horiz-adv-x="627" 
d="M218 884q6 6 16 1l177 -106q6 -4 1 -9l-5 -6q-4 -4 -11 -1l-182 103q-8 4 -1 11zM614 8q3 -8 -6 -8h-12q-11 0 -14 7l-97 241h-344l-97 -241q-3 -7 -15 -7h-10q-9 0 -6 8l283 699q3 8 11 8h12q9 0 12 -7zM320 658q-5 13 -7 27h-1q-3 -19 -6 -27l-156 -385h326z" />
    <glyph glyph-name="Aacute" unicode="&#xc1;" horiz-adv-x="627" 
d="M391 893q9 5 15 -1l6 -7q6 -8 -2 -11l-178 -108q-7 -4 -11 1l-5 6q-6 5 1 9zM614 8q3 -8 -6 -8h-12q-11 0 -14 7l-97 241h-344l-97 -241q-3 -7 -15 -7h-10q-9 0 -6 8l283 699q3 8 11 8h12q9 0 12 -7zM320 658q-5 13 -7 27h-1q-3 -19 -6 -27l-156 -385h326z" />
    <glyph glyph-name="Acircumflex" unicode="&#xc2;" horiz-adv-x="627" 
d="M315 895q9 0 17 -8l139 -115q7 -7 -4 -7h-13q-9 0 -14 5l-127 103l-128 -103q-5 -5 -13 -5h-13q-11 0 -4 7l140 115q8 8 16 8h4zM614 8q3 -8 -6 -8h-12q-11 0 -14 7l-97 241h-344l-97 -241q-3 -7 -15 -7h-10q-9 0 -6 8l283 699q3 8 11 8h12q9 0 12 -7zM320 658
q-5 13 -7 27h-1q-3 -19 -6 -27l-156 -385h326z" />
    <glyph glyph-name="Atilde" unicode="&#xc3;" horiz-adv-x="627" 
d="M461 871q6 0 6 -6q0 -90 -73 -90q-30 0 -57 18.5t-52.5 37.5t-51.5 19q-25 0 -39.5 -19t-14.5 -50q0 -6 -6 -6h-9q-6 0 -6 6q0 42 19 66t54 24q31 0 58.5 -19t53 -38t50.5 -19q52 0 52 70q0 6 6 6h10zM614 8q3 -8 -6 -8h-12q-11 0 -14 7l-97 241h-344l-97 -241
q-3 -7 -15 -7h-10q-9 0 -6 8l283 699q3 8 11 8h12q9 0 12 -7zM320 658q-5 13 -7 27h-1q-3 -19 -6 -27l-156 -385h326z" />
    <glyph glyph-name="Adieresis" unicode="&#xc4;" horiz-adv-x="627" 
d="M222 845q10 0 13 -3.5t3 -12.5v-6q0 -10 -3 -13.5t-13 -3.5h-7q-16 0 -16 17v6q0 16 16 16h7zM410 845q18 0 18 -16v-6q0 -17 -18 -17h-5q-10 0 -13.5 3.5t-3.5 13.5v6q0 9 3.5 12.5t13.5 3.5h5zM614 8q3 -8 -6 -8h-12q-11 0 -14 7l-97 241h-344l-97 -241q-3 -7 -15 -7
h-10q-9 0 -6 8l283 699q3 8 11 8h12q9 0 12 -7zM320 658q-5 13 -7 27h-1q-3 -19 -6 -27l-156 -385h326z" />
    <glyph glyph-name="Aring" unicode="&#xc5;" horiz-adv-x="627" 
d="M216 790q0 43 26.5 68.5t72.5 25.5q43 0 68.5 -25t25.5 -69q0 -80 -75 -91l280 -691q3 -8 -6 -8h-12q-11 0 -14 7l-97 241h-344l-97 -241q-3 -7 -15 -7h-10q-9 0 -6 8l279 693q-35 5 -55.5 28.5t-20.5 60.5zM390 790q0 34 -20 54.5t-55 20.5q-37 0 -58 -20t-21 -55
q0 -34 21 -54t58 -20q35 0 55 20t20 54zM320 658q-5 13 -7 27h-1q-3 -19 -6 -27l-156 -385h326z" />
    <glyph glyph-name="AE" unicode="&#xc6;" horiz-adv-x="808" 
d="M759 27q8 0 8 -8v-11q0 -8 -8 -8h-327q-8 0 -8 8v187h-282l-113 -188q-4 -7 -14 -7h-12q-10 0 -7 8l421 694q5 8 11 8h316q8 0 8 -8v-11q0 -8 -8 -8h-291v-310h249q8 0 8 -8v-12q0 -8 -8 -8h-249v-318h306zM424 663l-266 -442h266v442z" />
    <glyph glyph-name="Ccedilla" unicode="&#xc7;" horiz-adv-x="633" 
d="M587 178q7 -2 5 -11q-25 -90 -85.5 -135t-177.5 -46l-26 -73q15 5 35 5q41 0 64 -19t23 -53q-1 -44 -29.5 -68t-77.5 -24q-50 0 -86 24q-8 4 -8 13v9q0 8 6 3q35 -29 86 -29q39 0 61.5 19.5t22.5 53.5q0 53 -73 53q-23 0 -41 -6q-6 -2 -8 1t1 10l30 81q-118 5 -182 69.5
t-64 174.5v251q0 114 68.5 178.5t197.5 64.5q114 0 174.5 -43.5t86.5 -132.5q3 -9 -6 -10l-11 -4q-8 -3 -11 5q-25 82 -78 120t-155 38q-116 0 -176 -57t-60 -158v-253q0 -101 61 -158.5t175 -57.5q104 0 157.5 40t78.5 124q3 8 10 5z" />
    <glyph glyph-name="Egrave" unicode="&#xc8;" horiz-adv-x="568" 
d="M204 884q6 6 15 1l178 -106q5 -4 1 -9l-6 -6q-3 -5 -11 -1l-182 103q-8 4 -1 11zM504 710q8 0 8 -8v-11q0 -8 -8 -8h-390v-309h347q8 0 8 -8v-12q0 -8 -8 -8h-347v-319h404q8 0 8 -8v-11q0 -8 -8 -8h-425q-8 0 -8 8v694q0 8 8 8h411z" />
    <glyph glyph-name="Eacute" unicode="&#xc9;" horiz-adv-x="568" 
d="M376 893q10 5 15 -1l6 -7q7 -7 -1 -11l-179 -108q-7 -4 -11 1l-5 6q-5 5 1 9zM504 710q8 0 8 -8v-11q0 -8 -8 -8h-390v-309h347q8 0 8 -8v-12q0 -8 -8 -8h-347v-319h404q8 0 8 -8v-11q0 -8 -8 -8h-425q-8 0 -8 8v694q0 8 8 8h411z" />
    <glyph glyph-name="Ecircumflex" unicode="&#xca;" horiz-adv-x="568" 
d="M301 895q8 0 17 -8l139 -115q5 -7 -5 -7h-12q-9 0 -15 5l-126 103l-128 -103q-6 -5 -13 -5h-14q-9 0 -4 7l140 115q9 8 17 8h4zM504 710q8 0 8 -8v-11q0 -8 -8 -8h-390v-309h347q8 0 8 -8v-12q0 -8 -8 -8h-347v-319h404q8 0 8 -8v-11q0 -8 -8 -8h-425q-8 0 -8 8v694
q0 8 8 8h411z" />
    <glyph glyph-name="Edieresis" unicode="&#xcb;" horiz-adv-x="568" 
d="M207 845q10 0 13 -3.5t3 -12.5v-6q0 -10 -3 -13.5t-13 -3.5h-6q-17 0 -17 17v6q0 16 17 16h6zM396 845q17 0 17 -16v-6q0 -17 -17 -17h-6q-10 0 -13.5 3.5t-3.5 13.5v6q0 9 3.5 12.5t13.5 3.5h6zM504 710q8 0 8 -8v-11q0 -8 -8 -8h-390v-309h347q8 0 8 -8v-12q0 -8 -8 -8
h-347v-319h404q8 0 8 -8v-11q0 -8 -8 -8h-425q-8 0 -8 8v694q0 8 8 8h411z" />
    <glyph glyph-name="Igrave" unicode="&#xcc;" horiz-adv-x="199" 
d="M5 884q6 6 15 1l178 -106q5 -4 1 -9l-5 -6q-5 -5 -11 -1l-182 103q-8 4 -2 11zM86 702q0 8 8 8h13q8 0 8 -8v-694q0 -8 -8 -8h-13q-8 0 -8 8v694z" />
    <glyph glyph-name="Iacute" unicode="&#xcd;" horiz-adv-x="199" 
d="M176 893q10 5 16 -1l6 -7q6 -7 -2 -11l-178 -108q-7 -4 -11 1l-6 6q-5 5 2 9zM85 702q0 8 8 8h13q8 0 8 -8v-694q0 -8 -8 -8h-13q-8 0 -8 8v694z" />
    <glyph glyph-name="Icircumflex" unicode="&#xce;" horiz-adv-x="199" 
d="M101 895q8 0 17 -8l139 -115q7 -7 -4 -7h-13q-9 0 -14 5l-127 103l-128 -103q-5 -5 -13 -5h-13q-10 0 -5 7l140 115q9 8 17 8h4zM85 702q0 8 8 8h13q8 0 8 -8v-694q0 -8 -8 -8h-13q-8 0 -8 8v694z" />
    <glyph glyph-name="Idieresis" unicode="&#xcf;" horiz-adv-x="199" 
d="M7 845q10 0 13.5 -3.5t3.5 -12.5v-6q0 -10 -3.5 -13.5t-13.5 -3.5h-6q-16 0 -16 17v6q0 16 16 16h6zM196 845q17 0 17 -16v-6q0 -17 -17 -17h-5q-10 0 -14 3.5t-4 13.5v6q0 16 18 16h5zM85 702q0 8 8 8h13q8 0 8 -8v-694q0 -8 -8 -8h-13q-8 0 -8 8v694z" />
    <glyph glyph-name="Eth" unicode="&#xd0;" horiz-adv-x="650" 
d="M301 710q138 0 214 -70.5t76 -193.5v-182q0 -123 -76 -193.5t-214 -70.5h-200q-8 0 -8 8v336h-85q-8 0 -8 7v9q0 7 8 7h85v335q0 8 8 8h200zM562 446q0 112 -67.5 174.5t-193.5 62.5h-179v-316h205q6 0 6 -7v-9q0 -7 -6 -7h-205v-317h179q125 0 193 62.5t68 174.5v182z
" />
    <glyph glyph-name="Ntilde" unicode="&#xd1;" horiz-adv-x="686" 
d="M491 871q6 0 6 -6q0 -90 -73 -90q-36 0 -83 37.5t-78 37.5q-25 0 -39 -19t-14 -50q0 -6 -6 -6h-10q-6 0 -6 6q0 42 19 66t55 24q38 0 84.5 -38t76.5 -38q26 0 39.5 19.5t13.5 50.5q0 6 6 6h9zM594 710q8 0 8 -8v-694q0 -8 -8 -8h-13q-6 0 -10 6l-378 536q-14 21 -41.5 63
t-39.5 59h-1q0 -20 1.5 -74t1.5 -83v-499q0 -8 -8 -8h-13q-8 0 -8 8v694q0 8 8 8h12q7 0 10 -5l367 -521q15 -21 46.5 -68.5t46.5 -68.5h2q0 23 -2 82.5t-2 92.5v481q0 7 8 7h13z" />
    <glyph glyph-name="Ograve" unicode="&#xd2;" horiz-adv-x="658" 
d="M235 894q6 6 15 1l178 -106q5 -4 1 -9l-5 -6q-5 -5 -12 -1l-182 103q-8 4 -1 11zM63 480q0 115 69 179.5t198 64.5q128 0 196.5 -64.5t68.5 -179.5v-250q0 -115 -68.5 -179.5t-196.5 -64.5q-129 0 -198 64.5t-69 179.5v250zM565 479q0 103 -61 160.5t-174 57.5
q-115 0 -176.5 -57.5t-61.5 -160.5v-248q0 -103 61.5 -160.5t176.5 -57.5q113 0 174 57.5t61 160.5v248z" />
    <glyph glyph-name="Oacute" unicode="&#xd3;" horiz-adv-x="658" 
d="M407 903q10 5 15 -1l6 -7q7 -7 -1 -11l-178 -108q-8 -4 -12 1l-5 6q-5 5 1 9zM63 480q0 115 69 179.5t198 64.5q128 0 196.5 -64.5t68.5 -179.5v-250q0 -115 -68.5 -179.5t-196.5 -64.5q-129 0 -198 64.5t-69 179.5v250zM565 479q0 103 -61 160.5t-174 57.5
q-115 0 -176.5 -57.5t-61.5 -160.5v-248q0 -103 61.5 -160.5t176.5 -57.5q113 0 174 57.5t61 160.5v248z" />
    <glyph glyph-name="Ocircumflex" unicode="&#xd4;" horiz-adv-x="658" 
d="M332 905q8 0 17 -8l139 -115q5 -7 -5 -7h-12q-9 0 -15 5l-126 103l-128 -103q-6 -5 -13 -5h-13q-10 0 -5 7l140 115q9 8 17 8h4zM63 480q0 115 69 179.5t198 64.5q128 0 196.5 -64.5t68.5 -179.5v-250q0 -115 -68.5 -179.5t-196.5 -64.5q-129 0 -198 64.5t-69 179.5v250z
M565 479q0 103 -61 160.5t-174 57.5q-115 0 -176.5 -57.5t-61.5 -160.5v-248q0 -103 61.5 -160.5t176.5 -57.5q113 0 174 57.5t61 160.5v248z" />
    <glyph glyph-name="Otilde" unicode="&#xd5;" horiz-adv-x="658" 
d="M477 881q6 0 6 -6q0 -90 -73 -90q-36 0 -83 37.5t-78 37.5q-25 0 -39 -19t-14 -50q0 -6 -6 -6h-10q-6 0 -6 6q0 42 19 66t55 24q38 0 84.5 -38t76.5 -38q26 0 39.5 19.5t13.5 50.5q0 6 6 6h9zM63 480q0 115 69 179.5t198 64.5q128 0 196.5 -64.5t68.5 -179.5v-250
q0 -115 -68.5 -179.5t-196.5 -64.5q-129 0 -198 64.5t-69 179.5v250zM565 479q0 103 -61 160.5t-174 57.5q-115 0 -176.5 -57.5t-61.5 -160.5v-248q0 -103 61.5 -160.5t176.5 -57.5q113 0 174 57.5t61 160.5v248z" />
    <glyph glyph-name="Odieresis" unicode="&#xd6;" horiz-adv-x="658" 
d="M238 855q10 0 13 -3.5t3 -12.5v-6q0 -10 -3 -13.5t-13 -3.5h-6q-16 0 -16 17v6q0 16 16 16h6zM427 855q17 0 17 -16v-6q0 -17 -17 -17h-5q-10 0 -14 3.5t-4 13.5v6q0 16 18 16h5zM63 480q0 115 69 179.5t198 64.5q128 0 196.5 -64.5t68.5 -179.5v-250
q0 -115 -68.5 -179.5t-196.5 -64.5q-129 0 -198 64.5t-69 179.5v250zM565 479q0 103 -61 160.5t-174 57.5q-115 0 -176.5 -57.5t-61.5 -160.5v-248q0 -103 61.5 -160.5t176.5 -57.5q113 0 174 57.5t61 160.5v248z" />
    <glyph glyph-name="multiply" unicode="&#xd7;" horiz-adv-x="503" 
d="M434 160q7 -7 0 -12l-6 -7q-6 -5 -12 0l-165 165l-165 -165q-5 -5 -12 0l-6 7q-7 5 0 12l164 164l-164 165q-7 7 0 12l6 7q7 5 12 0l165 -166l165 166q6 6 12 0l6 -6q6 -6 0 -13l-165 -165z" />
    <glyph glyph-name="Oslash" unicode="&#xd8;" horiz-adv-x="658" 
d="M596 749q5 0 3 -4l-62 -97q58 -63 58 -168v-250q0 -115 -68.5 -179.5t-196.5 -64.5q-116 0 -183 52l-50 -78q-2 -4 -9 -4h-16q-5 0 -2 4l59 93q-66 63 -66 177v250q0 115 69 179.5t198 64.5q121 0 189 -60l52 81q3 4 8 4h17zM504 639q-63 58 -174 58q-115 0 -176.5 -57.5
t-61.5 -160.5v-248q0 -95 55 -150zM163 63q63 -50 167 -50q113 0 174 57.5t61 160.5v248q0 89 -45 141z" />
    <glyph glyph-name="Ugrave" unicode="&#xd9;" horiz-adv-x="678" 
d="M244 884q6 6 15 1l178 -106q5 -4 1 -9l-5 -6q-5 -5 -12 -1l-182 103q-8 4 -1 11zM108 240q0 -107 58.5 -167.5t172.5 -60.5t172 60.5t58 167.5v462q0 8 8 8h14q8 0 8 -8v-462q0 -119 -66 -187t-194 -68q-129 0 -194.5 67.5t-65.5 187.5v462q0 8 8 8h13q8 0 8 -8v-462z
" />
    <glyph glyph-name="Uacute" unicode="&#xda;" horiz-adv-x="678" 
d="M416 893q10 5 15 -1l6 -7q7 -7 -1 -11l-178 -108q-8 -4 -12 1l-5 6q-5 5 1 9zM108 240q0 -107 58.5 -167.5t172.5 -60.5t172 60.5t58 167.5v462q0 8 8 8h14q8 0 8 -8v-462q0 -119 -66 -187t-194 -68q-129 0 -194.5 67.5t-65.5 187.5v462q0 8 8 8h13q8 0 8 -8v-462z" />
    <glyph glyph-name="Ucircumflex" unicode="&#xdb;" horiz-adv-x="678" 
d="M341 895q8 0 17 -8l139 -115q5 -7 -5 -7h-12q-9 0 -15 5l-126 103l-128 -103q-6 -5 -13 -5h-13q-10 0 -5 7l140 115q9 8 17 8h4zM108 240q0 -107 58.5 -167.5t172.5 -60.5t172 60.5t58 167.5v462q0 8 8 8h14q8 0 8 -8v-462q0 -119 -66 -187t-194 -68q-129 0 -194.5 67.5
t-65.5 187.5v462q0 8 8 8h13q8 0 8 -8v-462z" />
    <glyph glyph-name="Udieresis" unicode="&#xdc;" horiz-adv-x="678" 
d="M247 845q10 0 13 -3.5t3 -12.5v-6q0 -10 -3 -13.5t-13 -3.5h-6q-16 0 -16 17v6q0 16 16 16h6zM436 845q17 0 17 -16v-6q0 -17 -17 -17h-5q-10 0 -14 3.5t-4 13.5v6q0 16 18 16h5zM108 240q0 -107 58.5 -167.5t172.5 -60.5t172 60.5t58 167.5v462q0 8 8 8h14q8 0 8 -8
v-462q0 -119 -66 -187t-194 -68q-129 0 -194.5 67.5t-65.5 187.5v462q0 8 8 8h13q8 0 8 -8v-462z" />
    <glyph glyph-name="Yacute" unicode="&#xdd;" horiz-adv-x="613" 
d="M385 893q9 5 15 -1l6 -7q7 -7 -1 -11l-179 -108q-7 -4 -11 1l-5 6q-5 5 1 9zM593 710q9 0 5 -8l-277 -408v-286q0 -8 -8 -8h-13q-8 0 -8 8v287l-275 407q-6 8 5 8h16q10 0 15 -7l254 -378l255 378q4 7 14 7h17z" />
    <glyph glyph-name="Thorn" unicode="&#xde;" horiz-adv-x="613" 
d="M353 584q105 0 166.5 -60.5t61.5 -164.5t-61.5 -163.5t-166.5 -59.5h-239v-128q0 -8 -8 -8h-13q-8 0 -8 8v694q0 8 8 8h13q8 0 8 -8v-118h239zM350 164q93 0 146.5 52t53.5 143q0 92 -53.5 144.5t-146.5 52.5h-236v-392h236z" />
    <glyph glyph-name="germandbls" unicode="&#xdf;" horiz-adv-x="546" 
d="M74 528q0 103 51 162.5t147 59.5q203 0 203 -198q0 -51 -25.5 -98.5t-78.5 -65.5v-2q62 -16 95.5 -63.5t33.5 -119.5q0 -101 -51.5 -152t-148.5 -51h-105q-8 0 -8 8v11q0 8 8 8h104q172 0 172 178q0 77 -43 122t-119 45h-109q-8 0 -8 8v10q0 8 8 8h107q48 0 81.5 26
t45.5 58.5t12 67.5q0 173 -174 173q-83 0 -127 -52t-44 -143v-520q0 -8 -8 -8h-11q-8 0 -8 8v520z" />
    <glyph glyph-name="agrave" unicode="&#xe0;" horiz-adv-x="507" 
d="M157 711q7 7 15 1l174 -110q6 -4 1 -10l-5 -6q-3 -4 -11 -1l-179 109q-8 4 -1 11zM59 419q54 106 194 106q56 0 95 -15t59 -43t28 -60t8 -74v-264q0 -26 -7.5 -37t-28.5 -20q-60 -26 -154 -26q-122 0 -166.5 36.5t-44.5 114.5q0 81 49 114.5t166 33.5q45 0 159 -12v61
q0 37 -6.5 64.5t-23.5 52t-51 37t-83 12.5q-119 0 -169 -92q-4 -6 -10 -4l-10 4q-9 3 -4 11zM416 249q-82 13 -161 13q-102 0 -143.5 -28.5t-41.5 -96.5q0 -66 38 -96.5t144 -30.5q86 0 138 23q17 7 21.5 14t4.5 26v176z" />
    <glyph glyph-name="aacute" unicode="&#xe1;" horiz-adv-x="507" 
d="M327 712q9 6 16 -1l5 -6q7 -7 -1 -11l-178 -109q-8 -3 -11 1l-6 6q-5 6 1 10zM59 419q54 106 194 106q56 0 95 -15t59 -43t28 -60t8 -74v-264q0 -26 -7.5 -37t-28.5 -20q-60 -26 -154 -26q-122 0 -166.5 36.5t-44.5 114.5q0 81 49 114.5t166 33.5q45 0 159 -12v61
q0 37 -6.5 64.5t-23.5 52t-51 37t-83 12.5q-119 0 -169 -92q-4 -6 -10 -4l-10 4q-9 3 -4 11zM416 249q-82 13 -161 13q-102 0 -143.5 -28.5t-41.5 -96.5q0 -66 38 -96.5t144 -30.5q86 0 138 23q17 7 21.5 14t4.5 26v176z" />
    <glyph glyph-name="acircumflex" unicode="&#xe2;" horiz-adv-x="507" 
d="M252 708q8 0 17 -8l139 -116q6 -6 -4 -6h-13q-9 0 -14 5l-127 103l-128 -103q-6 -5 -13 -5h-13q-11 0 -5 6l140 116q10 8 17 8h4zM59 419q54 106 194 106q56 0 95 -15t59 -43t28 -60t8 -74v-264q0 -26 -7.5 -37t-28.5 -20q-60 -26 -154 -26q-122 0 -166.5 36.5
t-44.5 114.5q0 81 49 114.5t166 33.5q45 0 159 -12v61q0 37 -6.5 64.5t-23.5 52t-51 37t-83 12.5q-119 0 -169 -92q-4 -6 -10 -4l-10 4q-9 3 -4 11zM416 249q-82 13 -161 13q-102 0 -143.5 -28.5t-41.5 -96.5q0 -66 38 -96.5t144 -30.5q86 0 138 23q17 7 21.5 14t4.5 26v176
z" />
    <glyph glyph-name="atilde" unicode="&#xe3;" horiz-adv-x="507" 
d="M397 691q6 0 6 -6q0 -90 -73 -90q-36 0 -83 37.5t-78 37.5q-25 0 -39 -19t-14 -50q0 -6 -6 -6h-10q-6 0 -6 6q0 42 19 66t55 24q38 0 84.5 -37.5t76.5 -37.5q26 0 39.5 19t13.5 50q0 6 6 6h9zM59 419q54 106 194 106q56 0 95 -15t59 -43t28 -60t8 -74v-264
q0 -26 -7.5 -37t-28.5 -20q-60 -26 -154 -26q-122 0 -166.5 36.5t-44.5 114.5q0 81 49 114.5t166 33.5q45 0 159 -12v61q0 37 -6.5 64.5t-23.5 52t-51 37t-83 12.5q-119 0 -169 -92q-4 -6 -10 -4l-10 4q-9 3 -4 11zM416 249q-82 13 -161 13q-102 0 -143.5 -28.5t-41.5 -96.5
q0 -66 38 -96.5t144 -30.5q86 0 138 23q17 7 21.5 14t4.5 26v176z" />
    <glyph glyph-name="adieresis" unicode="&#xe4;" horiz-adv-x="507" 
d="M158 669q10 0 13.5 -3.5t3.5 -12.5v-7q0 -10 -3.5 -13t-13.5 -3h-6q-9 0 -12.5 3t-3.5 13v7q0 16 16 16h6zM347 669q17 0 17 -16v-7q0 -16 -17 -16h-5q-11 0 -14.5 3t-3.5 13v7q0 16 18 16h5zM59 419q54 106 194 106q56 0 95 -15t59 -43t28 -60t8 -74v-264
q0 -26 -7.5 -37t-28.5 -20q-60 -26 -154 -26q-122 0 -166.5 36.5t-44.5 114.5q0 81 49 114.5t166 33.5q45 0 159 -12v61q0 37 -6.5 64.5t-23.5 52t-51 37t-83 12.5q-119 0 -169 -92q-4 -6 -10 -4l-10 4q-9 3 -4 11zM416 249q-82 13 -161 13q-102 0 -143.5 -28.5t-41.5 -96.5
q0 -66 38 -96.5t144 -30.5q86 0 138 23q17 7 21.5 14t4.5 26v176z" />
    <glyph glyph-name="aring" unicode="&#xe5;" horiz-adv-x="507" 
d="M156 682q0 43 26 67.5t70 24.5q43 0 68 -24.5t25 -67.5t-25 -67.5t-68 -24.5q-44 0 -70 24.5t-26 67.5zM327 682q0 34 -20 54t-55 20q-36 0 -57 -20t-21 -54q0 -35 21 -55t57 -20q35 0 55 20t20 55zM59 419q54 106 194 106q56 0 95 -15t59 -43t28 -60t8 -74v-264
q0 -26 -7.5 -37t-28.5 -20q-60 -26 -154 -26q-122 0 -166.5 36.5t-44.5 114.5q0 81 49 114.5t166 33.5q45 0 159 -12v61q0 37 -6.5 64.5t-23.5 52t-51 37t-83 12.5q-119 0 -169 -92q-4 -6 -10 -4l-10 4q-9 3 -4 11zM416 249q-82 13 -161 13q-102 0 -143.5 -28.5t-41.5 -96.5
q0 -66 38 -96.5t144 -30.5q86 0 138 23q17 7 21.5 14t4.5 26v176z" />
    <glyph glyph-name="ae" unicode="&#xe6;" horiz-adv-x="779" 
d="M60 420q55 105 171 105q129 0 153 -111q33 111 166 111q182 0 182 -204v-52q0 -17 -18 -17h-318v-76q0 -166 150 -166q63 0 94.5 25t60.5 80q5 7 12 4l9 -5q7 -4 2 -11q-30 -59 -67 -88t-111 -29q-113 0 -152 78q-39 -78 -163 -78q-107 0 -147.5 35.5t-40.5 112.5
q0 82 43.5 116t148.5 34q46 0 133 -13v66q0 79 -27.5 121t-110.5 42q-97 0 -145 -91q-5 -6 -10 -4l-11 4q-8 3 -4 11zM705 322q0 179 -155 179q-82 0 -118 -46t-36 -133v-47h309v47zM368 247q-72 13 -136 13q-89 0 -125 -28.5t-36 -97.5q0 -64 34 -94t124 -30q123 0 149 83
q-10 33 -10 79v75z" />
    <glyph glyph-name="ccedilla" unicode="&#xe7;" horiz-adv-x="512" 
d="M468 143q7 -3 5 -10q-41 -143 -199 -147l-27 -73q15 5 36 5q41 0 64 -19t22 -53q-1 -44 -29.5 -68t-77.5 -24q-48 0 -86 24q-7 4 -7 13v9q0 8 5 3q35 -29 86 -29q40 0 62.5 19.5t22.5 53.5q0 53 -73 53q-24 0 -41 -6q-6 -2 -8 1t0 10l30 81q-96 3 -147 53t-51 139v156
q0 90 53.5 140.5t156.5 50.5q89 0 136.5 -34.5t67.5 -103.5q2 -8 -4 -11l-11 -3q-7 -3 -10 4q-19 65 -60.5 94t-120.5 29q-88 0 -134.5 -44t-46.5 -121v-158q0 -77 47 -121.5t134 -44.5q77 0 121 31.5t62 98.5q3 8 10 5z" />
    <glyph glyph-name="egrave" unicode="&#xe8;" horiz-adv-x="525" 
d="M173 712q6 6 15 1l174 -110q6 -4 1 -10l-5 -6q-4 -3 -11 -1l-179 109q-8 4 -1 10zM53 318q0 97 54.5 152t158.5 55q103 0 158 -55.5t55 -150.5v-50q0 -17 -18 -17h-381v-74q0 -78 45.5 -123t133.5 -45q133 0 189 107q5 7 12 3l9 -5q7 -3 2 -10q-60 -119 -212 -119
q-102 0 -154 51.5t-52 142.5v138zM451 320q0 84 -47 132.5t-138 48.5t-138.5 -48.5t-47.5 -132.5v-45h371v45z" />
    <glyph glyph-name="eacute" unicode="&#xe9;" horiz-adv-x="525" 
d="M343 713q10 5 16 -1l5 -7q7 -6 -1 -10l-178 -109q-8 -3 -11 1l-6 6q-5 6 1 10zM53 318q0 97 54.5 152t158.5 55q103 0 158 -55.5t55 -150.5v-50q0 -17 -18 -17h-381v-74q0 -78 45.5 -123t133.5 -45q133 0 189 107q5 7 12 3l9 -5q7 -3 2 -10q-60 -119 -212 -119
q-102 0 -154 51.5t-52 142.5v138zM451 320q0 84 -47 132.5t-138 48.5t-138.5 -48.5t-47.5 -132.5v-45h371v45z" />
    <glyph glyph-name="ecircumflex" unicode="&#xea;" horiz-adv-x="525" 
d="M268 704q8 0 16 -8l137 -112q5 -7 -5 -7h-12q-9 0 -14 5l-124 101l-125 -101q-6 -5 -13 -5h-13q-11 0 -4 7l137 112q8 8 16 8h4zM53 318q0 97 54.5 152t158.5 55q103 0 158 -55.5t55 -150.5v-50q0 -17 -18 -17h-381v-74q0 -78 45.5 -123t133.5 -45q133 0 189 107
q5 7 12 3l9 -5q7 -3 2 -10q-60 -119 -212 -119q-102 0 -154 51.5t-52 142.5v138zM451 320q0 84 -47 132.5t-138 48.5t-138.5 -48.5t-47.5 -132.5v-45h371v45z" />
    <glyph glyph-name="edieresis" unicode="&#xeb;" horiz-adv-x="525" 
d="M174 670q10 0 13.5 -3.5t3.5 -12.5v-7q0 -10 -3.5 -13t-13.5 -3h-6q-9 0 -12.5 3t-3.5 13v7q0 16 16 16h6zM363 670q17 0 17 -16v-7q0 -16 -17 -16h-5q-11 0 -14.5 3t-3.5 13v7q0 16 18 16h5zM53 318q0 97 54.5 152t158.5 55q103 0 158 -55.5t55 -150.5v-50
q0 -17 -18 -17h-381v-74q0 -78 45.5 -123t133.5 -45q133 0 189 107q5 7 12 3l9 -5q7 -3 2 -10q-60 -119 -212 -119q-102 0 -154 51.5t-52 142.5v138zM451 320q0 84 -47 132.5t-138 48.5t-138.5 -48.5t-47.5 -132.5v-45h371v45z" />
    <glyph glyph-name="igrave" unicode="&#xec;" horiz-adv-x="173" 
d="M17 706q5 6 14 2l135 -106q7 -4 2 -11l-4 -5q-3 -5 -11 0l-140 103q-8 3 -2 10zM93 511q8 0 8 -7v-497q0 -7 -8 -7h-12q-7 0 -7 7v497q0 7 7 7h12z" />
    <glyph glyph-name="iacute" unicode="&#xed;" horiz-adv-x="173" 
d="M144 708q9 4 14 -2l6 -7q6 -7 -2 -10l-140 -104q-9 -3 -11 1l-4 5q-6 5 2 10zM93 511q7 0 7 -7v-497q0 -7 -7 -7h-13q-7 0 -7 7v497q0 7 7 7h13z" />
    <glyph glyph-name="icircumflex" unicode="&#xee;" horiz-adv-x="173" 
d="M205 592q6 -6 -5 -6h-10q-11 0 -14 4l-90 95l-90 -95q-2 -4 -13 -4h-12q-8 0 -4 6l102 107q7 7 15 7h4q9 0 16 -7zM93 511q7 0 7 -7v-497q0 -7 -7 -7h-13q-7 0 -7 7v497q0 7 7 7h13z" />
    <glyph glyph-name="idieresis" unicode="&#xef;" horiz-adv-x="173" 
d="M23 687q10 0 13 -3.5t3 -13.5v-6q0 -10 -3 -13t-13 -3h-7q-9 0 -12.5 3t-3.5 13v6q0 17 16 17h7zM155 687q18 0 18 -17v-6q0 -16 -18 -16h-5q-10 0 -13.5 3t-3.5 13v6q0 10 3.5 13.5t13.5 3.5h5zM93 511q7 0 7 -7v-497q0 -7 -7 -7h-13q-7 0 -7 7v497q0 7 7 7h13z" />
    <glyph glyph-name="eth" unicode="&#xf0;" horiz-adv-x="549" 
d="M435 746q4 5 9 0l6 -5q5 -4 1 -9l-61 -62q91 -81 91 -269v-229q0 -88 -54.5 -137t-158.5 -49t-158.5 49t-54.5 137v146q0 88 54 137.5t156 49.5q147 0 190 -98q-2 171 -83 243l-86 -89q-4 -5 -9 0l-6 5q-4 4 -1 9l85 87q-74 53 -213 53q-8 0 -8 8v10q0 7 8 7
q153 0 230 -58zM454 318q0 77 -48 119.5t-138 42.5t-138 -42.5t-48 -119.5v-146q0 -77 47.5 -119t138.5 -42q90 0 138 42.5t48 118.5v146z" />
    <glyph glyph-name="ntilde" unicode="&#xf1;" 
d="M418 692q6 0 6 -6q0 -90 -73 -90q-24 0 -46.5 11.5t-37.5 26t-35.5 26t-41.5 11.5q-26 0 -40 -19t-14 -50q0 -6 -6 -6h-9q-6 0 -6 6q0 42 19 66t54 24q38 0 85 -37.5t77 -37.5q52 0 52 69q0 6 6 6h10zM108 493q79 32 178 32q190 0 190 -191v-327q0 -7 -7 -7h-12
q-8 0 -8 7v325q0 168 -165 168q-96 0 -162 -30q-24 -10 -24 -36v-427q0 -7 -7 -7h-13q-7 0 -7 7v432q0 22 7.5 33t29.5 21z" />
    <glyph glyph-name="ograve" unicode="&#xf2;" horiz-adv-x="536" 
d="M175 711q6 7 15 1l174 -110q6 -4 1 -10l-5 -6q-4 -4 -12 -1l-178 109q-8 4 -1 11zM57 355q0 78 57.5 124t153.5 46t153.5 -46t57.5 -124v-199q0 -78 -57.5 -124t-153.5 -46t-153.5 46t-57.5 124v199zM452 356q0 66 -50.5 105t-133.5 39q-82 0 -133 -39t-51 -105v-201
q0 -66 51 -105t133 -39q83 0 133.5 39t50.5 105v201z" />
    <glyph glyph-name="oacute" unicode="&#xf3;" horiz-adv-x="536" 
d="M345 712q8 6 15 -1l6 -6q7 -7 -1 -11l-179 -109q-8 -3 -11 1l-5 6q-5 6 1 10zM57 355q0 78 57.5 124t153.5 46t153.5 -46t57.5 -124v-199q0 -78 -57.5 -124t-153.5 -46t-153.5 46t-57.5 124v199zM452 356q0 66 -50.5 105t-133.5 39q-82 0 -133 -39t-51 -105v-201
q0 -66 51 -105t133 -39q83 0 133.5 39t50.5 105v201z" />
    <glyph glyph-name="ocircumflex" unicode="&#xf4;" horiz-adv-x="536" 
d="M270 703q8 0 16 -7l136 -113q3 -2 2 -4.5t-6 -2.5h-13q-8 0 -14 5l-123 101l-125 -101q-6 -5 -13 -5h-13q-12 0 -5 7l137 113q9 7 16 7h5zM57 355q0 78 57.5 124t153.5 46t153.5 -46t57.5 -124v-199q0 -78 -57.5 -124t-153.5 -46t-153.5 46t-57.5 124v199zM452 356
q0 66 -50.5 105t-133.5 39q-82 0 -133 -39t-51 -105v-201q0 -66 51 -105t133 -39q83 0 133.5 39t50.5 105v201z" />
    <glyph glyph-name="otilde" unicode="&#xf5;" horiz-adv-x="536" 
d="M415 691q6 0 6 -6q0 -90 -73 -90q-30 0 -57 18.5t-52.5 37.5t-51.5 19q-25 0 -39.5 -19t-14.5 -50q0 -6 -5 -6h-10q-6 0 -6 6q0 42 19 66t55 24q38 0 84.5 -37.5t76.5 -37.5q26 0 39.5 19t13.5 50q0 6 6 6h9zM57 355q0 78 57.5 124t153.5 46t153.5 -46t57.5 -124v-199
q0 -78 -57.5 -124t-153.5 -46t-153.5 46t-57.5 124v199zM452 356q0 66 -50.5 105t-133.5 39q-82 0 -133 -39t-51 -105v-201q0 -66 51 -105t133 -39q83 0 133.5 39t50.5 105v201z" />
    <glyph glyph-name="odieresis" unicode="&#xf6;" horiz-adv-x="536" 
d="M176 669q10 0 13 -3.5t3 -12.5v-7q0 -10 -3 -13t-13 -3h-6q-17 0 -17 16v7q0 16 17 16h6zM365 669q17 0 17 -16v-7q0 -16 -17 -16h-6q-10 0 -13.5 3t-3.5 13v7q0 9 3.5 12.5t13.5 3.5h6zM57 355q0 78 57.5 124t153.5 46t153.5 -46t57.5 -124v-199q0 -78 -57.5 -124
t-153.5 -46t-153.5 46t-57.5 124v199zM452 356q0 66 -50.5 105t-133.5 39q-82 0 -133 -39t-51 -105v-201q0 -66 51 -105t133 -39q83 0 133.5 39t50.5 105v201z" />
    <glyph glyph-name="divide" unicode="&#xf7;" horiz-adv-x="599" 
d="M302 551q11 0 15 -4t4 -16v-4q0 -11 -4 -15.5t-15 -4.5h-5q-11 0 -15 4t-4 16v4q0 12 4 16t15 4h5zM527 338q8 0 8 -8v-11q0 -8 -8 -8h-455q-8 0 -8 8v11q0 8 8 8h455zM302 144q11 0 15 -4.5t4 -15.5v-4q0 -12 -4 -16t-15 -4h-5q-11 0 -15 4t-4 16v4q0 11 4 15.5t15 4.5
h5z" />
    <glyph glyph-name="oslash" unicode="&#xf8;" horiz-adv-x="536" 
d="M465 552q2 0 1 -4l-44 -69q57 -45 57 -124v-199q0 -78 -57.5 -124t-153.5 -46q-82 0 -136 34l-33 -51q-3 -4 -8 -4h-14q-4 0 -2 4l39 63q-57 45 -57 124v199q0 78 57.5 124t153.5 46q84 0 137 -34l38 58q2 3 7 3h15zM391 468q-50 32 -123 32q-82 0 -133 -39t-51 -105
v-201q0 -61 47 -99zM145 43q49 -32 123 -32q83 0 133.5 39t50.5 105v201q0 60 -46 98z" />
    <glyph glyph-name="ugrave" unicode="&#xf9;" 
d="M179 711q6 7 15 1l174 -110q6 -4 1 -10l-5 -6q-4 -4 -12 -1l-178 109q-8 4 -1 11zM467 511q7 0 7 -7v-431q0 -23 -7.5 -34t-29.5 -21q-79 -32 -178 -32q-190 0 -190 191v327q0 7 7 7h13q7 0 7 -7v-325q0 -168 166 -168q91 0 161 29q24 11 24 38v426q0 7 8 7h12z" />
    <glyph glyph-name="uacute" unicode="&#xfa;" 
d="M349 712q8 6 15 -1l6 -6q7 -7 -1 -11l-179 -109q-7 -3 -11 1l-5 6q-5 6 1 10zM467 511q7 0 7 -7v-431q0 -23 -7.5 -34t-29.5 -21q-79 -32 -178 -32q-190 0 -190 191v327q0 7 7 7h13q7 0 7 -7v-325q0 -168 166 -168q91 0 161 29q24 11 24 38v426q0 7 8 7h12z" />
    <glyph glyph-name="ucircumflex" unicode="&#xfb;" 
d="M274 708q8 0 16 -8l140 -116q6 -6 -5 -6h-13q-8 0 -14 5l-126 103l-128 -103q-6 -5 -13 -5h-14q-12 0 -4 6l140 116q9 8 16 8h5zM467 511q7 0 7 -7v-431q0 -23 -7.5 -34t-29.5 -21q-79 -32 -178 -32q-190 0 -190 191v327q0 7 7 7h13q7 0 7 -7v-325q0 -168 166 -168
q91 0 161 29q24 11 24 38v426q0 7 8 7h12z" />
    <glyph glyph-name="udieresis" unicode="&#xfc;" 
d="M180 669q10 0 13 -3.5t3 -12.5v-7q0 -10 -3 -13t-13 -3h-6q-17 0 -17 16v7q0 16 17 16h6zM369 669q17 0 17 -16v-7q0 -16 -17 -16h-6q-10 0 -13.5 3t-3.5 13v7q0 9 3.5 12.5t13.5 3.5h6zM467 511q7 0 7 -7v-431q0 -23 -7.5 -34t-29.5 -21q-79 -32 -178 -32
q-190 0 -190 191v327q0 7 7 7h13q7 0 7 -7v-325q0 -168 166 -168q91 0 161 29q24 11 24 38v426q0 7 8 7h12z" />
    <glyph glyph-name="yacute" unicode="&#xfd;" horiz-adv-x="548" 
d="M349 712q8 6 15 -1l6 -6q7 -7 -1 -11l-179 -109q-7 -3 -11 1l-5 6q-5 6 1 10zM467 511q7 0 7 -7v-545q0 -216 -206 -216q-136 0 -192 117q-5 7 3 12l9 4q6 4 12 -3q49 -104 168 -104q179 0 179 189v69q-100 -38 -188 -38q-190 0 -190 192v323q0 7 7 7h13q7 0 7 -7v-322
q0 -168 166 -168q88 0 185 39v451q0 7 8 7h12z" />
    <glyph glyph-name="thorn" unicode="&#xfe;" horiz-adv-x="535" 
d="M74 732q0 8 7 8h13q7 0 7 -8v-256q79 41 174 41q204 0 204 -198v-142q0 -192 -190 -192q-99 0 -188 48v-246q0 -7 -7 -7h-13q-7 0 -7 7v945zM452 318q0 174 -180 174q-92 0 -171 -43v-388q87 -51 186 -51q165 0 165 167v141z" />
    <glyph glyph-name="ydieresis" unicode="&#xff;" horiz-adv-x="548" 
d="M180 669q10 0 13 -3.5t3 -12.5v-7q0 -10 -3 -13t-13 -3h-6q-17 0 -17 16v7q0 16 17 16h6zM369 669q17 0 17 -16v-7q0 -16 -17 -16h-6q-10 0 -13.5 3t-3.5 13v7q0 9 3.5 12.5t13.5 3.5h6zM467 511q7 0 7 -7v-545q0 -216 -206 -216q-136 0 -192 117q-5 7 3 12l9 4
q6 4 12 -3q49 -104 168 -104q179 0 179 189v69q-100 -38 -188 -38q-190 0 -190 192v323q0 7 7 7h13q7 0 7 -7v-322q0 -168 166 -168q88 0 185 39v451q0 7 8 7h12z" />
    <glyph glyph-name="Amacron" unicode="&#x100;" horiz-adv-x="627" 
d="M433 833q7 0 7 -8v-7q0 -7 -7 -7h-239q-7 0 -7 7v7q0 8 7 8h239zM614 8q3 -8 -6 -8h-12q-11 0 -14 7l-97 241h-344l-97 -241q-3 -7 -15 -7h-10q-9 0 -6 8l283 699q3 8 11 8h12q9 0 12 -7zM320 658q-5 13 -7 27h-1q-3 -19 -6 -27l-156 -385h326z" />
    <glyph glyph-name="amacron" unicode="&#x101;" horiz-adv-x="507" 
d="M369 651q8 0 8 -8v-7q0 -8 -8 -8h-239q-7 0 -7 8v7q0 8 7 8h239zM59 419q54 106 194 106q56 0 95 -15t59 -43t28 -60t8 -74v-264q0 -26 -7.5 -37t-28.5 -20q-60 -26 -154 -26q-122 0 -166.5 36.5t-44.5 114.5q0 81 49 114.5t166 33.5q45 0 159 -12v61q0 37 -6.5 64.5
t-23.5 52t-51 37t-83 12.5q-119 0 -169 -92q-4 -6 -10 -4l-10 4q-9 3 -4 11zM416 249q-82 13 -161 13q-102 0 -143.5 -28.5t-41.5 -96.5q0 -66 38 -96.5t144 -30.5q86 0 138 23q17 7 21.5 14t4.5 26v176z" />
    <glyph glyph-name="Abreve" unicode="&#x102;" horiz-adv-x="627" 
d="M462 879q-16 -59 -52 -86.5t-97 -27.5t-96.5 27.5t-51.5 86.5q-3 5 3 8l11 3q6 3 9 -4q26 -98 125 -98q100 0 126 98q2 6 8 5l12 -4q5 -3 3 -8zM614 8q3 -8 -6 -8h-12q-11 0 -14 7l-97 241h-344l-97 -241q-3 -7 -15 -7h-10q-9 0 -6 8l283 699q3 8 11 8h12q9 0 12 -7z
M320 658q-5 13 -7 27h-1q-3 -19 -6 -27l-156 -385h326z" />
    <glyph glyph-name="abreve" unicode="&#x103;" horiz-adv-x="507" 
d="M399 696q-30 -113 -149 -113t-149 113q-1 6 4 9l11 3q7 3 8 -4q13 -51 43.5 -74.5t82.5 -23.5t82.5 23.5t43.5 74.5q1 7 7 4l12 -3q5 -3 4 -9zM59 419q54 106 194 106q56 0 95 -15t59 -43t28 -60t8 -74v-264q0 -26 -7.5 -37t-28.5 -20q-60 -26 -154 -26
q-122 0 -166.5 36.5t-44.5 114.5q0 81 49 114.5t166 33.5q45 0 159 -12v61q0 37 -6.5 64.5t-23.5 52t-51 37t-83 12.5q-119 0 -169 -92q-4 -6 -10 -4l-10 4q-9 3 -4 11zM416 249q-82 13 -161 13q-102 0 -143.5 -28.5t-41.5 -96.5q0 -66 38 -96.5t144 -30.5q86 0 138 23
q17 7 21.5 14t4.5 26v176z" />
    <glyph glyph-name="Aogonek" unicode="&#x104;" horiz-adv-x="626" 
d="M319 715q9 0 12 -7l281 -696q3 -9 -1 -13q-61 -47 -92.5 -101.5t-17.5 -87.5q5 -16 18.5 -25t28.5 -9q43 0 73 31q4 4 6 -1l3 -11q2 -4 -2 -8q-37 -35 -86 -35q-22 0 -40.5 12t-25.5 33q-16 41 14 98.5t100 109.5q-8 1 -10 9l-99 243h-336l-101 -250q-3 -7 -14 -7h-11
q-9 0 -6 8l283 699q3 8 11 8h12zM387 496q-10 26 -35 90.5t-38 96.5h-1q-13 -32 -38 -96.5t-35 -90.5l-85 -214h317z" />
    <glyph glyph-name="aogonek" unicode="&#x105;" horiz-adv-x="509" 
d="M59 419q54 106 194 106q56 0 95 -15t59 -43t28 -60t8 -74v-264q0 -32 -14 -45q-61 -48 -93.5 -113.5t-19.5 -100.5q13 -34 50 -34q41 0 70 32q4 4 6 -1l4 -11q1 -4 -2 -8q-38 -36 -86 -36q-52 0 -67 45q-14 38 10.5 97.5t77.5 108.5q-49 -17 -126 -17q-122 0 -166.5 36.5
t-44.5 114.5q0 81 49 114.5t166 33.5q45 0 159 -12v61q0 37 -6.5 64.5t-23.5 52t-51 37t-83 12.5q-119 0 -169 -92q-4 -6 -10 -4l-10 4q-9 3 -4 11zM416 249q-82 13 -161 13q-102 0 -143.5 -28.5t-41.5 -96.5q0 -66 38 -96.5t144 -30.5q86 0 138 23q17 7 21.5 14t4.5 26v176
z" />
    <glyph glyph-name="Cacute" unicode="&#x106;" horiz-adv-x="633" 
d="M407 893q9 5 15 -1l6 -7q7 -7 -1 -11l-179 -108q-7 -4 -11 1l-5 6q-5 5 1 9zM63 481q0 114 68.5 178.5t197.5 64.5q114 0 174.5 -43.5t86.5 -132.5q3 -9 -6 -10l-11 -4q-8 -3 -11 5q-25 82 -78 120t-155 38q-116 0 -176 -57t-60 -158v-253q0 -101 61 -158.5t175 -57.5
q104 0 157.5 40t78.5 124q3 8 10 5l12 -4q7 -2 5 -11q-25 -91 -85.5 -136t-177.5 -45q-128 0 -197 64.5t-69 179.5v251z" />
    <glyph glyph-name="cacute" unicode="&#x107;" horiz-adv-x="513" 
d="M342 712q9 6 16 -1l5 -6q7 -7 -1 -11l-178 -109q-8 -3 -11 1l-6 6q-5 6 1 10zM55 334q0 90 53.5 140.5t156.5 50.5q89 0 136.5 -34.5t67.5 -103.5q2 -8 -4 -11l-11 -3q-7 -3 -10 4q-19 65 -60.5 94t-120.5 29q-88 0 -134.5 -44t-46.5 -121v-158q0 -77 47 -121.5
t134 -44.5q77 0 121 31.5t62 98.5q3 8 10 5l12 -3q7 -3 5 -10q-42 -147 -209 -147q-101 0 -155 50.5t-54 141.5v156z" />
    <glyph glyph-name="Ccircumflex" unicode="&#x108;" horiz-adv-x="633" 
d="M332 895q8 0 16 -8l140 -115q5 -7 -5 -7h-13q-8 0 -14 5l-126 103l-128 -103q-6 -5 -13 -5h-14q-11 0 -4 7l140 115q8 8 16 8h5zM63 481q0 114 68.5 178.5t197.5 64.5q114 0 174.5 -43.5t86.5 -132.5q3 -9 -6 -10l-11 -4q-8 -3 -11 5q-25 82 -78 120t-155 38
q-116 0 -176 -57t-60 -158v-253q0 -101 61 -158.5t175 -57.5q104 0 157.5 40t78.5 124q3 8 10 5l12 -4q7 -2 5 -11q-25 -91 -85.5 -136t-177.5 -45q-128 0 -197 64.5t-69 179.5v251z" />
    <glyph glyph-name="ccircumflex" unicode="&#x109;" horiz-adv-x="513" 
d="M267 703q8 0 16 -7l137 -113q7 -7 -5 -7h-12q-9 0 -14 5l-124 101l-125 -101q-6 -5 -13 -5h-13q-13 0 -4 7l137 113q8 7 16 7h4zM55 334q0 90 53.5 140.5t156.5 50.5q89 0 136.5 -34.5t67.5 -103.5q2 -8 -4 -11l-11 -3q-7 -3 -10 4q-19 65 -60.5 94t-120.5 29
q-88 0 -134.5 -44t-46.5 -121v-158q0 -77 47 -121.5t134 -44.5q77 0 121 31.5t62 98.5q3 8 10 5l12 -3q7 -3 5 -10q-42 -147 -209 -147q-101 0 -155 50.5t-54 141.5v156z" />
    <glyph glyph-name="Cdotaccent" unicode="&#x10a;" horiz-adv-x="633" 
d="M332 841q10 0 13.5 -3.5t3.5 -13.5v-5q0 -10 -3.5 -13.5t-13.5 -3.5h-5q-10 0 -13.5 3.5t-3.5 13.5v5q0 10 3.5 13.5t13.5 3.5h5zM63 481q0 114 68.5 178.5t197.5 64.5q114 0 174.5 -43.5t86.5 -132.5q3 -9 -6 -10l-11 -4q-8 -3 -11 5q-25 82 -78 120t-155 38
q-116 0 -176 -57t-60 -158v-253q0 -101 61 -158.5t175 -57.5q104 0 157.5 40t78.5 124q3 8 10 5l12 -4q7 -2 5 -11q-25 -91 -85.5 -136t-177.5 -45q-128 0 -197 64.5t-69 179.5v251z" />
    <glyph glyph-name="cdotaccent" unicode="&#x10b;" horiz-adv-x="513" 
d="M267 661q17 0 17 -18v-4q0 -10 -3.5 -14t-13.5 -4h-4q-10 0 -14 3.5t-4 14.5v4q0 18 18 18h4zM55 334q0 90 53.5 140.5t156.5 50.5q89 0 136.5 -34.5t67.5 -103.5q2 -8 -4 -11l-11 -3q-7 -3 -10 4q-19 65 -60.5 94t-120.5 29q-88 0 -134.5 -44t-46.5 -121v-158
q0 -77 47 -121.5t134 -44.5q77 0 121 31.5t62 98.5q3 8 10 5l12 -3q7 -3 5 -10q-42 -147 -209 -147q-101 0 -155 50.5t-54 141.5v156z" />
    <glyph glyph-name="Ccaron" unicode="&#x10c;" horiz-adv-x="633" 
d="M483 896q11 0 3 -8l-138 -114q-9 -8 -17 -8h-4q-8 0 -16 8l-140 114q-8 8 4 8h13q8 0 13 -5l128 -103l127 103q5 5 14 5h13zM63 481q0 114 68.5 178.5t197.5 64.5q114 0 174.5 -43.5t86.5 -132.5q3 -9 -6 -10l-11 -4q-8 -3 -11 5q-25 82 -78 120t-155 38q-116 0 -176 -57
t-60 -158v-253q0 -101 61 -158.5t175 -57.5q104 0 157.5 40t78.5 124q3 8 10 5l12 -4q7 -2 5 -11q-25 -91 -85.5 -136t-177.5 -45q-128 0 -197 64.5t-69 179.5v251z" />
    <glyph glyph-name="ccaron" unicode="&#x10d;" horiz-adv-x="513" 
d="M405 693q11 0 4 -7l-127 -106q-8 -7 -16 -7h-3q-8 0 -16 7l-128 107q-6 6 3 6h13q7 0 12 -5l117 -95l116 95q6 5 13 5h12zM55 334q0 90 53.5 140.5t156.5 50.5q89 0 136.5 -34.5t67.5 -103.5q2 -8 -4 -11l-11 -3q-7 -3 -10 4q-19 65 -60.5 94t-120.5 29q-88 0 -134.5 -44
t-46.5 -121v-158q0 -77 47 -121.5t134 -44.5q77 0 121 31.5t62 98.5q3 8 10 5l12 -3q7 -3 5 -10q-42 -147 -209 -147q-101 0 -155 50.5t-54 141.5v156z" />
    <glyph glyph-name="Dcaron" unicode="&#x10e;" horiz-adv-x="642" 
d="M460 896q10 0 4 -8l-138 -114q-9 -8 -17 -8h-4q-8 0 -17 8l-139 114q-2 2 -2.5 3.5t1 3t4.5 1.5h14q7 0 13 -5l128 -103l126 103q6 5 15 5h12zM293 710q138 0 214 -70.5t76 -193.5v-182q0 -123 -76 -193.5t-214 -70.5h-200q-8 0 -8 8v694q0 8 8 8h200zM554 446
q0 112 -67.5 174.5t-193.5 62.5h-179v-656h179q125 0 193 62.5t68 174.5v182z" />
    <glyph glyph-name="dcaron" unicode="&#x10f;" horiz-adv-x="550" 
d="M56 333q0 192 189 192q100 0 189 -41v249q0 7 8 7h12q8 0 8 -7v-664q0 -24 -8 -34.5t-32 -20.5q-69 -28 -160 -28q-206 0 -206 198v149zM573 517q-3 -8 -10 -8h-7q-7 0 -6 7l48 216q2 8 9 8h11q10 0 7 -8zM434 457q-82 43 -186 43q-165 0 -165 -168v-147q0 -174 180 -174
q78 0 143 26q19 8 23.5 14t4.5 24v382z" />
    <glyph glyph-name="Dcroat" unicode="&#x110;" horiz-adv-x="650" 
d="M301 710q138 0 214 -70.5t76 -193.5v-182q0 -123 -76 -193.5t-214 -70.5h-200q-8 0 -8 8v336h-85q-8 0 -8 7v9q0 7 8 7h85v335q0 8 8 8h200zM562 446q0 112 -67.5 174.5t-193.5 62.5h-179v-316h205q6 0 6 -7v-9q0 -7 -6 -7h-205v-317h179q125 0 193 62.5t68 174.5v182z
" />
    <glyph glyph-name="dcroat" unicode="&#x111;" horiz-adv-x="534" 
d="M542 643q7 0 7 -7v-6q0 -7 -7 -7h-79v-554q0 -24 -8 -34.5t-32 -20.5q-67 -28 -160 -28q-205 0 -205 198v149q0 191 189 191q102 0 189 -40v139h-178q-7 0 -7 7v6q0 7 7 7h178v90q0 7 8 7h12q7 0 7 -7v-90h79zM436 457q-80 42 -186 42q-165 0 -165 -167v-147
q0 -174 180 -174q78 0 143 26q19 8 23.5 14t4.5 24v382z" />
    <glyph glyph-name="Emacron" unicode="&#x112;" horiz-adv-x="568" 
d="M418 833q7 0 7 -8v-7q0 -7 -7 -7h-239q-7 0 -7 7v7q0 8 7 8h239zM504 710q8 0 8 -8v-11q0 -8 -8 -8h-390v-309h347q8 0 8 -8v-12q0 -8 -8 -8h-347v-319h404q8 0 8 -8v-11q0 -8 -8 -8h-425q-8 0 -8 8v694q0 8 8 8h411z" />
    <glyph glyph-name="emacron" unicode="&#x113;" horiz-adv-x="525" 
d="M375 646q7 0 7 -7v-7q0 -7 -7 -7h-219q-7 0 -7 7v7q0 7 7 7h219zM53 318q0 97 54.5 152t158.5 55q103 0 158 -55.5t55 -150.5v-50q0 -17 -18 -17h-381v-74q0 -78 45.5 -123t133.5 -45q133 0 189 107q5 7 12 3l9 -5q7 -3 2 -10q-60 -119 -212 -119q-102 0 -154 51.5
t-52 142.5v138zM451 320q0 84 -47 132.5t-138 48.5t-138.5 -48.5t-47.5 -132.5v-45h371v45z" />
    <glyph glyph-name="Ebreve" unicode="&#x114;" horiz-adv-x="568" 
d="M448 879q-32 -114 -149 -114q-118 0 -149 114q-2 5 3 8l12 3q6 2 8 -4q26 -98 126 -98q99 0 125 98q3 6 8 5l12 -4q5 -3 4 -8zM504 710q8 0 8 -8v-11q0 -8 -8 -8h-390v-309h347q8 0 8 -8v-12q0 -8 -8 -8h-347v-319h404q8 0 8 -8v-11q0 -8 -8 -8h-425q-8 0 -8 8v694
q0 8 8 8h411z" />
    <glyph glyph-name="ebreve" unicode="&#x115;" horiz-adv-x="525" 
d="M415 697q-30 -113 -149 -113t-149 113q-1 7 4 8l11 4q7 3 8 -4q13 -51 43.5 -74.5t82.5 -23.5t82.5 23.5t43.5 74.5q1 7 7 4l12 -4q5 -1 4 -8zM53 318q0 97 54.5 152t158.5 55q103 0 158 -55.5t55 -150.5v-50q0 -17 -18 -17h-381v-74q0 -78 45.5 -123t133.5 -45
q133 0 189 107q5 7 12 3l9 -5q7 -3 2 -10q-60 -119 -212 -119q-102 0 -154 51.5t-52 142.5v138zM451 320q0 84 -47 132.5t-138 48.5t-138.5 -48.5t-47.5 -132.5v-45h371v45z" />
    <glyph glyph-name="Edotaccent" unicode="&#x116;" horiz-adv-x="568" 
d="M301 841q10 0 13.5 -3.5t3.5 -13.5v-5q0 -10 -3.5 -13.5t-13.5 -3.5h-4q-11 0 -14.5 3.5t-3.5 13.5v5q0 10 4 13.5t14 3.5h4zM504 710q8 0 8 -8v-11q0 -8 -8 -8h-390v-309h347q8 0 8 -8v-12q0 -8 -8 -8h-347v-319h404q8 0 8 -8v-11q0 -8 -8 -8h-425q-8 0 -8 8v694
q0 8 8 8h411z" />
    <glyph glyph-name="edotaccent" unicode="&#x117;" horiz-adv-x="525" 
d="M268 661q10 0 13.5 -3.5t3.5 -13.5v-4q0 -10 -3.5 -14t-13.5 -4h-4q-10 0 -14 3.5t-4 14.5v4q0 17 18 17h4zM53 318q0 97 54.5 152t158.5 55q103 0 158 -55.5t55 -150.5v-50q0 -17 -18 -17h-381v-74q0 -78 45.5 -123t133.5 -45q133 0 189 107q5 7 12 3l9 -5q7 -3 2 -10
q-60 -119 -212 -119q-102 0 -154 51.5t-52 142.5v138zM451 320q0 84 -47 132.5t-138 48.5t-138.5 -48.5t-47.5 -132.5v-45h371v45z" />
    <glyph glyph-name="Eogonek" unicode="&#x118;" horiz-adv-x="568" 
d="M504 710q8 0 8 -8v-11q0 -8 -8 -8h-390v-310h347q8 0 8 -8v-12q0 -8 -8 -8h-347v-318h404q8 0 8 -8v-11q0 -5 -2 -7q-70 -52 -103 -104.5t-19 -86.5q11 -33 49 -33q41 0 70 32q5 3 6 -2l4 -10q1 -5 -2 -8q-36 -36 -85 -36q-52 0 -68 44q-15 41 16 95.5t102 107.5h-401
q-8 0 -8 8v694q0 8 8 8h411z" />
    <glyph glyph-name="eogonek" unicode="&#x119;" horiz-adv-x="525" 
d="M53 318q0 97 54.5 152t158.5 55q103 0 158 -55.5t55 -150.5v-50q0 -17 -18 -17h-381v-74q0 -78 45.5 -123t133.5 -45q133 0 189 107q5 7 12 3l9 -5q7 -3 2 -10q-18 -37 -48 -66q-59 -57 -91.5 -126t-19.5 -103t51 -34q41 0 70 32q4 4 6 -1l4 -11q1 -4 -2 -8
q-38 -36 -86 -36q-52 0 -67 45q-13 36 10 94.5t73 116.5q-47 -22 -112 -22q-102 0 -154 51.5t-52 142.5v138zM451 320q0 84 -47 132.5t-138 48.5t-138.5 -48.5t-47.5 -132.5v-45h371v45z" />
    <glyph glyph-name="Ecaron" unicode="&#x11a;" horiz-adv-x="568" 
d="M452 896q10 0 4 -8l-139 -114q-8 -8 -17 -8h-4q-8 0 -16 8l-140 114q-8 8 4 8h13q8 0 13 -5l128 -103l127 103q5 5 14 5h13zM504 710q8 0 8 -8v-11q0 -8 -8 -8h-390v-309h347q8 0 8 -8v-12q0 -8 -8 -8h-347v-319h404q8 0 8 -8v-11q0 -8 -8 -8h-425q-8 0 -8 8v694q0 8 8 8
h411z" />
    <glyph glyph-name="ecaron" unicode="&#x11b;" horiz-adv-x="525" 
d="M406 694q11 0 4 -7l-127 -106q-9 -8 -16 -8h-3q-7 0 -16 8l-128 106q-5 7 3 7h13q7 0 12 -5l117 -95l116 95q6 5 13 5h12zM53 318q0 97 54.5 152t158.5 55q103 0 158 -55.5t55 -150.5v-50q0 -17 -18 -17h-381v-74q0 -78 45.5 -123t133.5 -45q133 0 189 107q5 7 12 3l9 -5
q7 -3 2 -10q-60 -119 -212 -119q-102 0 -154 51.5t-52 142.5v138zM451 320q0 84 -47 132.5t-138 48.5t-138.5 -48.5t-47.5 -132.5v-45h371v45z" />
    <glyph glyph-name="Gcircumflex" unicode="&#x11c;" horiz-adv-x="649" 
d="M331 905q8 0 17 -8l139 -115q5 -7 -4 -7h-13q-9 0 -14 5l-127 103l-128 -103q-6 -5 -13 -5h-13q-10 0 -5 7l140 115q9 8 17 8h4zM586 351q9 0 9 -9v-114q0 -113 -69 -177.5t-196 -64.5q-129 0 -198 65t-69 180v250q0 114 68.5 178.5t197.5 64.5q114 0 174.5 -43.5
t86.5 -132.5q3 -9 -6 -10l-11 -4q-8 -3 -11 5q-25 82 -78 120t-155 38q-117 0 -177 -57t-60 -158v-250q0 -103 61.5 -161t176.5 -58q113 0 174.5 57.5t61.5 158.5v94h-228q-8 0 -8 8v12q0 8 8 8h248z" />
    <glyph glyph-name="gcircumflex" unicode="&#x11d;" horiz-adv-x="532" 
d="M275 703q8 0 16 -7l136 -113q9 -7 -4 -7h-13q-8 0 -13 5l-124 101l-125 -101q-6 -5 -13 -5h-13q-12 0 -5 7l138 113q8 7 16 7h4zM56 326q0 199 207 199q92 0 159 -28q24 -10 31.5 -20t7.5 -35v-483q0 -216 -204 -216q-134 0 -190 117q-5 8 3 12l8 4q7 4 12 -3
q25 -50 63.5 -77t103.5 -27q177 0 177 189v72q-85 -41 -189 -41q-189 0 -189 191v146zM406 474q-65 26 -142 26q-181 0 -181 -175v-145q0 -166 164 -166q105 0 187 43v379q0 18 -4.5 24t-23.5 14z" />
    <glyph glyph-name="Gbreve" unicode="&#x11e;" horiz-adv-x="649" 
d="M478 889q-31 -114 -149 -114t-149 114q-1 5 4 8l11 3q7 3 8 -4q26 -98 126 -98t126 98q1 6 7 5l12 -4q5 -3 4 -8zM586 351q9 0 9 -9v-114q0 -113 -69 -177.5t-196 -64.5q-129 0 -198 65t-69 180v250q0 114 68.5 178.5t197.5 64.5q114 0 174.5 -43.5t86.5 -132.5
q3 -9 -6 -10l-11 -4q-8 -3 -11 5q-25 82 -78 120t-155 38q-117 0 -177 -57t-60 -158v-250q0 -103 61.5 -161t176.5 -58q113 0 174.5 57.5t61.5 158.5v94h-228q-8 0 -8 8v12q0 8 8 8h248z" />
    <glyph glyph-name="gbreve" unicode="&#x11f;" horiz-adv-x="532" 
d="M422 696q-17 -59 -52.5 -86t-96.5 -27q-119 0 -149 113q-2 6 3 9l12 3q6 2 8 -4q13 -51 43.5 -74.5t82.5 -23.5q99 0 125 98q3 7 8 4l12 -3q5 -3 4 -9zM56 326q0 199 207 199q92 0 159 -28q24 -10 31.5 -20t7.5 -35v-483q0 -216 -204 -216q-134 0 -190 117q-5 8 3 12l8 4
q7 4 12 -3q25 -50 63.5 -77t103.5 -27q177 0 177 189v72q-85 -41 -189 -41q-189 0 -189 191v146zM406 474q-65 26 -142 26q-181 0 -181 -175v-145q0 -166 164 -166q105 0 187 43v379q0 18 -4.5 24t-23.5 14z" />
    <glyph glyph-name="Gdotaccent" unicode="&#x120;" horiz-adv-x="649" 
d="M331 851q10 0 13.5 -3.5t3.5 -13.5v-5q0 -10 -3.5 -13.5t-13.5 -3.5h-4q-10 0 -14 3.5t-4 13.5v5q0 17 18 17h4zM586 351q9 0 9 -9v-114q0 -113 -69 -177.5t-196 -64.5q-129 0 -198 65t-69 180v250q0 114 68.5 178.5t197.5 64.5q114 0 174.5 -43.5t86.5 -132.5
q3 -9 -6 -10l-11 -4q-8 -3 -11 5q-25 82 -78 120t-155 38q-117 0 -177 -57t-60 -158v-250q0 -103 61.5 -161t176.5 -58q113 0 174.5 57.5t61.5 158.5v94h-228q-8 0 -8 8v12q0 8 8 8h248z" />
    <glyph glyph-name="gdotaccent" unicode="&#x121;" horiz-adv-x="532" 
d="M275 661q17 0 17 -18v-4q0 -10 -3.5 -14t-13.5 -4h-4q-11 0 -14.5 3.5t-3.5 14.5v4q0 18 18 18h4zM56 326q0 199 207 199q92 0 159 -28q24 -10 31.5 -20t7.5 -35v-483q0 -216 -204 -216q-134 0 -190 117q-5 8 3 12l8 4q7 4 12 -3q25 -50 63.5 -77t103.5 -27
q177 0 177 189v72q-85 -41 -189 -41q-189 0 -189 191v146zM406 474q-65 26 -142 26q-181 0 -181 -175v-145q0 -166 164 -166q105 0 187 43v379q0 18 -4.5 24t-23.5 14z" />
    <glyph glyph-name="Gcommaaccent" unicode="&#x122;" horiz-adv-x="649" 
d="M586 351q9 0 9 -9v-114q0 -113 -69 -177.5t-196 -64.5q-129 0 -198 65t-69 180v250q0 114 68.5 178.5t197.5 64.5q114 0 174.5 -43.5t86.5 -132.5q3 -9 -6 -10l-11 -4q-8 -3 -11 5q-25 82 -78 120t-155 38q-117 0 -177 -57t-60 -158v-250q0 -103 61.5 -161t176.5 -58
q113 0 174.5 57.5t61.5 158.5v94h-228q-8 0 -8 8v12q0 8 8 8h248zM317 -235q-3 -8 -10 -8h-8q-7 0 -6 7l43 146q1 8 10 8h11q11 0 8 -8z" />
    <glyph glyph-name="gcommaaccent" unicode="&#x123;" horiz-adv-x="532" 
d="M297 723q3 8 10 8h7q9 0 7 -7l-52 -140q-3 -8 -11 -8h-10q-12 0 -7 9zM56 326q0 199 207 199q92 0 159 -28q24 -10 31.5 -20t7.5 -35v-483q0 -216 -204 -216q-134 0 -190 117q-5 8 3 12l8 4q7 4 12 -3q25 -50 63.5 -77t103.5 -27q177 0 177 189v72q-85 -41 -189 -41
q-189 0 -189 191v146zM406 474q-65 26 -142 26q-181 0 -181 -175v-145q0 -166 164 -166q105 0 187 43v379q0 18 -4.5 24t-23.5 14z" />
    <glyph glyph-name="Hcircumflex" unicode="&#x124;" horiz-adv-x="677" 
d="M341 895q8 0 17 -8l139 -115q5 -7 -5 -7h-12q-9 0 -15 5l-126 103l-128 -103q-6 -5 -13 -5h-14q-9 0 -4 7l140 115q9 8 17 8h4zM585 710q8 0 8 -8v-694q0 -8 -8 -8h-14q-8 0 -8 8v338h-449v-338q0 -8 -8 -8h-13q-8 0 -8 8v694q0 8 8 8h13q8 0 8 -8v-328h449v328q0 8 8 8
h14z" />
    <glyph glyph-name="hcircumflex" unicode="&#x125;" horiz-adv-x="548" 
d="M89 914q8 0 16 -8l134 -111q6 -6 -4 -6h-13q-8 0 -13 4l-122 100l-123 -100q-5 -4 -12 -4h-13q-10 0 -4 6l134 111q8 8 16 8h4zM93 740q8 0 8 -7v-247q85 39 188 39q190 0 190 -191v-327q0 -7 -7 -7h-13q-7 0 -7 7v325q0 168 -166 168q-101 0 -185 -41v-452q0 -7 -8 -7
h-12q-7 0 -7 7v726q0 7 7 7h12z" />
    <glyph glyph-name="Hbar" unicode="&#x126;" horiz-adv-x="682" 
d="M667 578q7 0 7 -7v-6q0 -8 -7 -8h-72v-549q0 -8 -8 -8h-13q-8 0 -8 8v338h-449v-338q0 -8 -8 -8h-14q-8 0 -8 8v549h-71q-7 0 -7 8v6q0 7 7 7h71v124q0 8 8 8h14q8 0 8 -8v-124h449v124q0 8 8 8h13q8 0 8 -8v-124h72zM117 557v-183h449v183h-449z" />
    <glyph glyph-name="hbar" unicode="&#x127;" horiz-adv-x="547" 
d="M100 486q85 39 188 39q190 0 190 -191v-327q0 -7 -7 -7h-12q-8 0 -8 7v325q0 168 -165 168q-102 0 -186 -41v-452q0 -7 -7 -7h-13q-7 0 -7 7v621h-68q-7 0 -7 8v6q0 7 7 7h68v84q0 7 7 7h13q7 0 7 -7v-84h175q7 0 7 -7v-6q0 -8 -7 -8h-175v-142z" />
    <glyph glyph-name="Itilde" unicode="&#x128;" horiz-adv-x="199" 
d="M246 871q6 0 6 -6q0 -90 -72 -90q-24 0 -47 11.5t-37.5 26t-35.5 26t-42 11.5q-25 0 -39 -19t-14 -50q0 -6 -6 -6h-9q-6 0 -6 6q0 42 19 66t54 24q38 0 85 -38t77 -38q25 0 38.5 19.5t13.5 50.5q0 6 6 6h9zM85 702q0 8 8 8h13q8 0 8 -8v-694q0 -8 -8 -8h-13q-8 0 -8 8
v694z" />
    <glyph glyph-name="itilde" unicode="&#x129;" horiz-adv-x="173" 
d="M191 697q5 0 5 -6q0 -88 -54 -88q-30 0 -57 36t-52 36q-40 0 -40 -66q0 -6 -5 -6h-8q-5 0 -5 6q0 88 57 88q20 0 35 -11.5t23 -24.5t21.5 -24.5t29.5 -11.5q37 0 37 66q0 6 5 6h8zM93 511q7 0 7 -7v-497q0 -7 -7 -7h-13q-7 0 -7 7v497q0 7 7 7h13z" />
    <glyph glyph-name="Imacron" unicode="&#x12a;" horiz-adv-x="199" 
d="M218 833q8 0 8 -8v-7q0 -7 -8 -7h-238q-8 0 -8 7v7q0 8 8 8h238zM85 702q0 8 8 8h13q8 0 8 -8v-694q0 -8 -8 -8h-13q-8 0 -8 8v694z" />
    <glyph glyph-name="imacron" unicode="&#x12b;" horiz-adv-x="173" 
d="M161 654q4 0 4 -7v-7q0 -7 -4 -7h-148q-5 0 -5 7v7q0 7 5 7h148zM93 511q7 0 7 -7v-497q0 -7 -7 -7h-13q-7 0 -7 7v497q0 7 7 7h13z" />
    <glyph glyph-name="Ibreve" unicode="&#x12c;" horiz-adv-x="199" 
d="M248 879q-31 -114 -149 -114t-149 114q-1 5 4 8l11 3q7 3 8 -4q26 -98 126 -98t126 98q1 6 7 5l12 -4q6 -3 4 -8zM85 702q0 8 8 8h13q8 0 8 -8v-694q0 -8 -8 -8h-13q-8 0 -8 8v694z" />
    <glyph glyph-name="ibreve" unicode="&#x12d;" horiz-adv-x="173" 
d="M201 703q5 -2 5 -8q-20 -108 -120 -108t-119 108q0 7 4 8l10 3q8 0 8 -4q15 -92 97 -92q83 0 97 92q1 4 8 4zM93 511q7 0 7 -7v-497q0 -7 -7 -7h-13q-7 0 -7 7v497q0 7 7 7h13z" />
    <glyph glyph-name="Iogonek" unicode="&#x12e;" horiz-adv-x="199" 
d="M181 -204q2 -4 -2 -8q-38 -36 -85 -36q-53 0 -67 45q-28 74 64 204q-6 0 -6 7v694q0 8 8 8h13q8 0 8 -8v-694q0 -5 -2 -7q-86 -123 -60 -191q11 -34 49 -34q41 0 71 32q3 3 6 -1z" />
    <glyph glyph-name="iogonek" unicode="&#x12f;" horiz-adv-x="175" 
d="M85 646q-11 0 -14.5 3.5t-3.5 14.5v4q0 19 18 19h4q19 0 19 -19v-4q0 -18 -19 -18h-4zM149 -200q4 -4 0 -8q-24 -38 -66 -38q-26 0 -43.5 15.5t-19.5 41.5q-4 48 17.5 105t39.5 86q-3 2 -3 5v497q0 7 7 7h12q8 0 8 -7v-497q0 -5 -2 -5q-60 -107 -55 -184q1 -19 14 -30.5
t30 -11.5q31 0 49 31q3 3 7 0z" />
    <glyph glyph-name="Idotaccent" unicode="&#x130;" horiz-adv-x="199" 
d="M101 841q18 0 18 -17v-5q0 -17 -18 -17h-4q-10 0 -14 3.5t-4 13.5v5q0 17 18 17h4zM85 702q0 8 8 8h13q8 0 8 -8v-694q0 -8 -8 -8h-13q-8 0 -8 8v694z" />
    <glyph glyph-name="dotlessi" unicode="&#x131;" horiz-adv-x="175" 
d="M93 511q8 0 8 -7v-497q0 -7 -8 -7h-12q-7 0 -7 7v497q0 7 7 7h12z" />
    <glyph glyph-name="IJ" unicode="&#x132;" horiz-adv-x="767" 
d="M85 702q0 8 8 8h13q8 0 8 -8v-694q0 -8 -8 -8h-13q-8 0 -8 8v694zM679 710q8 0 8 -8v-489q0 -106 -60.5 -167t-171.5 -61q-195 0 -229 204q-3 8 4 10l12 5q9 3 11 -6q16 -91 64 -138t138 -47q97 0 149.5 53.5t52.5 146.5v489q0 8 8 8h14z" />
    <glyph glyph-name="ij" unicode="&#x133;" horiz-adv-x="420" 
d="M89 687q19 0 19 -19v-4q0 -18 -19 -18h-4q-11 0 -14.5 3.5t-3.5 14.5v4q0 19 18 19h4zM335 687q18 0 18 -19v-4q0 -10 -3.5 -14t-14.5 -4h-5q-10 0 -14 3.5t-4 14.5v4q0 19 18 19h5zM93 511q8 0 8 -7v-497q0 -7 -8 -7h-12q-7 0 -7 7v497q0 7 7 7h12zM339 511q7 0 7 -7
v-514q0 -111 -42.5 -165.5t-147.5 -54.5q-8 0 -8 8v11q0 7 8 7q92 0 127.5 47.5t35.5 146.5v514q0 7 8 7h12z" />
    <glyph glyph-name="Jcircumflex" unicode="&#x134;" horiz-adv-x="565" 
d="M472 895q8 0 17 -8l139 -115q7 -7 -4 -7h-13q-9 0 -14 5l-127 103l-128 -103q-5 -5 -13 -5h-13q-10 0 -5 7l141 115q8 8 16 8h4zM477 710q8 0 8 -8v-489q0 -106 -60.5 -167t-170.5 -61q-195 0 -230 204q-3 7 4 10l13 5q8 3 11 -6q16 -91 63.5 -138t138.5 -47
q97 0 149.5 53.5t52.5 146.5v489q0 8 8 8h13z" />
    <glyph glyph-name="jcircumflex" unicode="&#x135;" horiz-adv-x="174" 
d="M88 704q10 0 17 -8l109 -114q6 -6 -5 -6h-11q-10 0 -14 5l-98 102l-98 -102q-5 -5 -13 -5h-13q-10 0 -4 6l110 114q8 8 16 8h4zM93 511q8 0 8 -7v-514q0 -112 -42.5 -166t-148.5 -54q-7 0 -7 8v11q0 7 7 7q92 0 128 47.5t36 146.5v514q0 7 7 7h12z" />
    <glyph glyph-name="Kcommaaccent" unicode="&#x136;" horiz-adv-x="594" 
d="M572 9q7 -9 -4 -9h-12q-12 0 -16 7l-120 239q-27 54 -63 77t-100 23h-143v-338q0 -8 -8 -8h-13q-8 0 -8 8v694q0 8 8 8h13q8 0 8 -8v-328h142q19 0 28 -1l243 330q5 7 17 7h13q12 0 5 -9l-247 -333q86 -17 131 -109zM298 -235q-3 -8 -10 -8h-9q-7 0 -6 7l44 146q1 8 10 8
h11q10 0 7 -8z" />
    <glyph glyph-name="kcommaaccent" unicode="&#x137;" horiz-adv-x="494" 
d="M469 8q5 -8 -4 -8h-12q-9 0 -13 6l-87 175q-19 37 -44 53.5t-68 16.5h-140v-243q0 -8 -8 -8h-12q-7 0 -7 8v724q0 8 7 8h12q8 0 8 -8v-456h138h11l181 229q4 6 15 6h11q11 0 5 -9l-184 -231q65 -9 99 -78zM245 -219q-2 -8 -11 -8h-8q-7 0 -6 7l38 157q2 8 10 8h12
q10 0 7 -8z" />
    <glyph glyph-name="kgreenlandic" unicode="&#x138;" horiz-adv-x="450" 
d="M430 10q8 -10 -5 -10h-11q-11 0 -16 7l-191 269l-106 -112v-156q0 -8 -8 -8h-12q-7 0 -7 8v495q0 8 7 8h12q8 0 8 -8v-301l287 303q6 6 18 6h11q12 0 4 -9l-195 -205z" />
    <glyph glyph-name="Lacute" unicode="&#x139;" horiz-adv-x="516" 
d="M177 893q10 5 16 -1l6 -7q6 -7 -2 -11l-178 -108q-8 -4 -11 1l-6 6q-5 5 1 9zM106 710q8 0 8 -8v-675h380q8 0 8 -8v-11q0 -8 -8 -8h-401q-8 0 -8 8v694q0 8 8 8h13z" />
    <glyph glyph-name="lacute" unicode="&#x13a;" horiz-adv-x="182" 
d="M151 877q8 4 14 -2l6 -8q5 -8 -2 -10l-145 -80q-7 -4 -11 1l-5 6q-4 7 3 10zM105 7q0 -7 -8 -7h-12q-8 0 -8 7v726q0 7 8 7h12q8 0 8 -7v-726z" />
    <glyph glyph-name="Lcommaaccent" unicode="&#x13b;" horiz-adv-x="516" 
d="M106 710q8 0 8 -8v-675h380q8 0 8 -8v-11q0 -8 -8 -8h-401q-8 0 -8 8v694q0 8 8 8h13zM265 -235q-3 -8 -10 -8h-9q-7 0 -6 7l44 146q1 8 10 8h11q10 0 7 -8z" />
    <glyph glyph-name="lcommaaccent" unicode="&#x13c;" horiz-adv-x="182" 
d="M105 7q0 -7 -8 -7h-12q-8 0 -8 7v726q0 7 8 7h12q8 0 8 -7v-726zM68 -212q-3 -8 -11 -8h-6q-7 0 -6 7l38 166q2 8 10 8h10q10 0 7 -8z" />
    <glyph glyph-name="Lcaron" unicode="&#x13d;" horiz-adv-x="516" 
d="M106 710q8 0 8 -8v-675h380q8 0 8 -8v-11q0 -8 -8 -8h-401q-8 0 -8 8v694q0 8 8 8h13zM352 498q-3 -8 -10 -8h-8q-7 0 -6 7l44 205q1 8 10 8h11q10 0 7 -8z" />
    <glyph glyph-name="lcaron" unicode="&#x13e;" horiz-adv-x="189" 
d="M105 7q0 -7 -8 -7h-12q-8 0 -8 7v726q0 7 8 7h12q8 0 8 -7v-726zM227 547q-2 -8 -10 -8h-7q-7 0 -6 7l37 186q1 8 9 8h12q10 0 7 -8z" />
    <glyph glyph-name="Ldot" unicode="&#x13f;" horiz-adv-x="516" 
d="M106 710q8 0 8 -8v-675h380q8 0 8 -8v-11q0 -8 -8 -8h-401q-8 0 -8 8v694q0 8 8 8h13zM334 369q11 0 15 -4t4 -15v-5q0 -11 -4 -15.5t-15 -4.5h-5q-11 0 -15 4t-4 16v5q0 11 4 15t15 4h5z" />
    <glyph glyph-name="ldot" unicode="&#x140;" horiz-adv-x="280" 
d="M105 7q0 -7 -8 -7h-12q-8 0 -8 7v726q0 7 8 7h12q8 0 8 -7v-726zM234 395q11 0 15 -4t4 -15v-5q0 -11 -4 -15.5t-15 -4.5h-5q-11 0 -15.5 4t-4.5 16v5q0 11 4.5 15t15.5 4h5z" />
    <glyph glyph-name="Lslash" unicode="&#x141;" horiz-adv-x="540" 
d="M518 27q8 0 8 -8v-11q0 -8 -8 -8h-401q-8 0 -8 8v298l-98 -48q-6 -3 -8 3l-5 10q-4 7 2 9l109 54v368q0 8 8 8h13q8 0 8 -8v-355l253 125q7 2 11 -4l4 -9q3 -6 -3 -9l-265 -130v-293h380z" />
    <glyph glyph-name="lslash" unicode="&#x142;" horiz-adv-x="246" 
d="M235 436q3 -4 -3 -9l-99 -59v-361q0 -7 -7 -7h-12q-8 0 -8 7v345l-82 -49q-5 -3 -9 2l-5 8q-3 5 3 9l93 56v355q0 7 8 7h12q7 0 7 -7v-340l88 52q5 4 9 -2z" />
    <glyph glyph-name="Nacute" unicode="&#x143;" horiz-adv-x="686" 
d="M421 893q10 5 15 -1l6 -7q7 -7 -1 -11l-178 -108q-8 -4 -12 1l-5 6q-5 5 1 9zM594 710q8 0 8 -8v-694q0 -8 -8 -8h-13q-6 0 -10 6l-378 536q-14 21 -41.5 63t-39.5 59h-1q0 -20 1.5 -74t1.5 -83v-499q0 -8 -8 -8h-13q-8 0 -8 8v694q0 8 8 8h12q7 0 10 -5l367 -521
q15 -21 46.5 -68.5t46.5 -68.5h2q0 23 -2 82.5t-2 92.5v481q0 7 8 7h13z" />
    <glyph glyph-name="nacute" unicode="&#x144;" 
d="M348 713q9 5 15 -1l6 -7q6 -6 -2 -10l-178 -109q-7 -2 -11 1l-5 6q-6 6 1 10zM108 493q79 32 178 32q190 0 190 -191v-327q0 -7 -7 -7h-12q-8 0 -8 7v325q0 168 -165 168q-96 0 -162 -30q-24 -10 -24 -36v-427q0 -7 -7 -7h-13q-7 0 -7 7v432q0 22 7.5 33t29.5 21z" />
    <glyph glyph-name="Ncommaaccent" unicode="&#x145;" horiz-adv-x="686" 
d="M594 710q8 0 8 -8v-694q0 -8 -8 -8h-13q-6 0 -10 6l-378 536q-14 21 -41.5 63t-39.5 59h-1q0 -20 1.5 -74t1.5 -83v-499q0 -8 -8 -8h-13q-8 0 -8 8v694q0 8 8 8h12q7 0 10 -5l367 -521q15 -21 46.5 -68.5t46.5 -68.5h2q0 23 -2 82.5t-2 92.5v481q0 7 8 7h13zM315 -235
q-1 -8 -10 -8h-8q-7 0 -6 7l44 146q1 8 10 8h11q10 0 7 -8z" />
    <glyph glyph-name="ncommaaccent" unicode="&#x146;" 
d="M108 493q79 32 178 32q190 0 190 -191v-327q0 -7 -7 -7h-12q-8 0 -8 7v325q0 168 -165 168q-96 0 -162 -30q-24 -10 -24 -36v-427q0 -7 -7 -7h-13q-7 0 -7 7v432q0 22 7.5 33t29.5 21zM255 -208q-2 -8 -10 -8h-8q-7 0 -6 7l39 162q1 8 9 8h11q10 0 7 -8z" />
    <glyph glyph-name="Ncaron" unicode="&#x147;" horiz-adv-x="686" 
d="M497 896q10 0 4 -8l-139 -114q-8 -8 -17 -8h-4q-8 0 -16 8l-140 114q-8 8 4 8h13q8 0 13 -5l128 -103l127 103q5 5 14 5h13zM594 710q8 0 8 -8v-694q0 -8 -8 -8h-13q-6 0 -10 6l-378 536q-14 21 -41.5 63t-39.5 59h-1q0 -20 1.5 -74t1.5 -83v-499q0 -8 -8 -8h-13
q-8 0 -8 8v694q0 8 8 8h12q7 0 10 -5l367 -521q15 -21 46.5 -68.5t46.5 -68.5h2q0 23 -2 82.5t-2 92.5v481q0 7 8 7h13z" />
    <glyph glyph-name="ncaron" unicode="&#x148;" 
d="M411 694q10 0 3 -7l-127 -106q-9 -8 -15 -8h-4q-7 0 -15 8l-129 106q-5 7 3 7h14q6 0 12 -5l117 -95l116 95q5 5 13 5h12zM108 493q79 32 178 32q190 0 190 -191v-327q0 -7 -7 -7h-12q-8 0 -8 7v325q0 168 -165 168q-96 0 -162 -30q-24 -10 -24 -36v-427q0 -7 -7 -7h-13
q-7 0 -7 7v432q0 22 7.5 33t29.5 21z" />
    <glyph glyph-name="napostrophe" unicode="&#x149;" 
d="M71 546q-5 -7 -11 -7h-8q-7 0 -4 8l85 186q2 7 10 7h12q12 0 6 -8zM108 493q79 32 178 32q190 0 190 -191v-327q0 -7 -7 -7h-12q-8 0 -8 7v325q0 168 -165 168q-96 0 -162 -30q-24 -10 -24 -36v-427q0 -7 -7 -7h-13q-7 0 -7 7v432q0 22 7.5 33t29.5 21z" />
    <glyph glyph-name="Eng" unicode="&#x14a;" horiz-adv-x="686" 
d="M594 710q8 0 8 -8v-716q0 -102 -57.5 -159t-161.5 -57q-8 0 -8 8v11q0 7 8 7q90 0 140 50.5t50 140.5v16l-380 539q-14 21 -41.5 63t-39.5 59h-1q0 -18 1.5 -64t1.5 -72v-520q0 -8 -8 -8h-13q-8 0 -8 8v694q0 8 8 8h12q7 0 10 -5l367 -521q15 -21 46.5 -68.5t46.5 -68.5
h2q0 23 -2 82.5t-2 92.5v481q0 7 8 7h13z" />
    <glyph glyph-name="eng" unicode="&#x14b;" 
d="M108 493q79 32 178 32q190 0 190 -191v-349q0 -101 -56.5 -158t-160.5 -57q-7 0 -7 7v11q0 8 7 8q90 0 140 50t50 140v346q0 168 -165 168q-96 0 -162 -30q-24 -10 -24 -36v-427q0 -7 -7 -7h-13q-7 0 -7 7v432q0 22 7.5 33t29.5 21z" />
    <glyph glyph-name="Omacron" unicode="&#x14c;" horiz-adv-x="658" 
d="M449 843q7 0 7 -8v-7q0 -7 -7 -7h-239q-7 0 -7 7v7q0 8 7 8h239zM63 480q0 115 69 179.5t198 64.5q128 0 196.5 -64.5t68.5 -179.5v-250q0 -115 -68.5 -179.5t-196.5 -64.5q-129 0 -198 64.5t-69 179.5v250zM565 479q0 103 -61 160.5t-174 57.5q-115 0 -176.5 -57.5
t-61.5 -160.5v-248q0 -103 61.5 -160.5t176.5 -57.5q113 0 174 57.5t61 160.5v248z" />
    <glyph glyph-name="omacron" unicode="&#x14d;" horiz-adv-x="536" 
d="M377 645q6 0 6 -7v-7q0 -7 -6 -7h-219q-7 0 -7 7v7q0 7 7 7h219zM57 355q0 78 57.5 124t153.5 46t153.5 -46t57.5 -124v-199q0 -78 -57.5 -124t-153.5 -46t-153.5 46t-57.5 124v199zM452 356q0 66 -50.5 105t-133.5 39q-82 0 -133 -39t-51 -105v-201q0 -66 51 -105
t133 -39q83 0 133.5 39t50.5 105v201z" />
    <glyph glyph-name="Obreve" unicode="&#x14e;" horiz-adv-x="658" 
d="M479 889q-31 -114 -149 -114t-149 114q-2 5 4 8l11 3q7 3 8 -4q26 -98 126 -98q99 0 125 98q3 6 8 5l12 -4q5 -3 4 -8zM63 480q0 115 69 179.5t198 64.5q128 0 196.5 -64.5t68.5 -179.5v-250q0 -115 -68.5 -179.5t-196.5 -64.5q-129 0 -198 64.5t-69 179.5v250zM565 479
q0 103 -61 160.5t-174 57.5q-115 0 -176.5 -57.5t-61.5 -160.5v-248q0 -103 61.5 -160.5t176.5 -57.5q113 0 174 57.5t61 160.5v248z" />
    <glyph glyph-name="obreve" unicode="&#x14f;" horiz-adv-x="536" 
d="M417 696q-17 -59 -52.5 -86t-96.5 -27t-97 27t-52 86q-2 6 3 9l12 3q5 3 8 -4q13 -51 43.5 -74.5t82.5 -23.5q99 0 125 98q3 7 8 4l12 -3q5 -3 4 -9zM57 355q0 78 57.5 124t153.5 46t153.5 -46t57.5 -124v-199q0 -78 -57.5 -124t-153.5 -46t-153.5 46t-57.5 124v199z
M452 356q0 66 -50.5 105t-133.5 39q-82 0 -133 -39t-51 -105v-201q0 -66 51 -105t133 -39q83 0 133.5 39t50.5 105v201z" />
    <glyph glyph-name="Ohungarumlaut" unicode="&#x150;" horiz-adv-x="658" 
d="M306 900q6 7 13 6l11 -3q9 -3 3 -9l-115 -118q-6 -6 -11 -3l-7 2q-7 2 -2 9zM482 900q6 7 13 6l11 -3q10 -2 3 -9l-116 -118q-5 -6 -11 -4l-7 3q-8 2 -2 8zM63 480q0 115 69 179.5t198 64.5q128 0 196.5 -64.5t68.5 -179.5v-250q0 -115 -68.5 -179.5t-196.5 -64.5
q-129 0 -198 64.5t-69 179.5v250zM565 479q0 103 -61 160.5t-174 57.5q-115 0 -176.5 -57.5t-61.5 -160.5v-248q0 -103 61.5 -160.5t176.5 -57.5q113 0 174 57.5t61 160.5v248z" />
    <glyph glyph-name="ohungarumlaut" unicode="&#x151;" horiz-adv-x="536" 
d="M245 689q6 7 12 5l11 -2q8 -3 3 -8l-106 -109q-5 -5 -10 -3l-7 2q-7 3 -2 8zM409 688q6 6 12 4l11 -2q9 -2 3 -8l-111 -105q-4 -5 -10 -4l-7 3q-6 1 -2 7zM57 355q0 78 57.5 124t153.5 46t153.5 -46t57.5 -124v-199q0 -78 -57.5 -124t-153.5 -46t-153.5 46t-57.5 124v199
zM452 356q0 66 -50.5 105t-133.5 39q-82 0 -133 -39t-51 -105v-201q0 -66 51 -105t133 -39q83 0 133.5 39t50.5 105v201z" />
    <glyph glyph-name="OE" unicode="&#x152;" horiz-adv-x="833" 
d="M783 27q8 0 8 -8v-11q0 -8 -8 -8h-343q-53 -15 -110 -15q-129 0 -198 65t-69 180v250q0 115 69 180t198 65q57 0 109 -15h330q8 0 8 -8v-11q0 -8 -8 -8h-309v-310h266q8 0 8 -8v-12q0 -8 -8 -8h-266v-318h323zM92 231q0 -103 61.5 -161t176.5 -58q54 0 100 14v657
q-51 15 -100 15q-115 0 -176.5 -58t-61.5 -161v-248z" />
    <glyph glyph-name="oe" unicode="&#x153;" horiz-adv-x="807" 
d="M412 412q33 113 166 113q182 0 182 -204v-52q0 -17 -18 -17h-318v-76q0 -166 150 -166q63 0 94.5 25t61.5 80q4 8 11 4l9 -5q7 -4 3 -11q-31 -60 -68 -88.5t-111 -28.5q-132 0 -163 108q-16 -51 -61 -79.5t-108 -28.5q-82 0 -132.5 45.5t-50.5 123.5v201q0 78 50.5 123.5
t132.5 45.5q64 0 109.5 -30t60.5 -83zM733 322q0 179 -155 179q-82 0 -118 -46t-36 -133v-47h309v47zM396 357q0 65 -43 104t-111 39q-69 0 -112 -39t-43 -104v-202q0 -66 43 -105t112 -39q68 0 111 39t43 105v202z" />
    <glyph glyph-name="Racute" unicode="&#x154;" horiz-adv-x="638" 
d="M387 893q9 5 15 -1l6 -7q6 -8 -2 -11l-178 -108q-7 -4 -11 1l-5 6q-6 5 1 9zM382 710q94 0 146.5 -51.5t52.5 -144.5q0 -87 -50 -137t-136 -54q57 -21 93 -90l113 -224q5 -9 -5 -9h-12q-10 0 -16 7l-107 213q-27 54 -63 77t-99 23h-185v-312q0 -8 -8 -8h-13q-8 0 -8 8
v694q0 8 8 8h289zM550 514q0 81 -44.5 125t-126.5 44h-265v-335h265q81 0 126 43t45 123z" />
    <glyph glyph-name="racute" unicode="&#x155;" horiz-adv-x="334" 
d="M277 712q8 6 15 -1l6 -6q6 -8 -2 -11l-178 -109q-7 -3 -11 1l-5 6q-6 6 1 10zM284 525h31q7 0 7 -7v-10q0 -8 -7 -8h-31q-92 0 -162 -29q-24 -11 -24 -38v-426q0 -7 -7 -7h-13q-7 0 -7 7v432q0 22 7.5 33t29.5 21q79 32 176 32z" />
    <glyph glyph-name="Rcommaaccent" unicode="&#x156;" horiz-adv-x="638" 
d="M382 710q94 0 146.5 -51.5t52.5 -144.5q0 -87 -50 -137t-136 -54q57 -21 93 -90l113 -224q5 -9 -5 -9h-12q-10 0 -16 7l-107 213q-27 54 -63 77t-99 23h-185v-312q0 -8 -8 -8h-13q-8 0 -8 8v694q0 8 8 8h289zM550 514q0 81 -44.5 125t-126.5 44h-265v-335h265
q81 0 126 43t45 123zM311 -235q-3 -8 -10 -8h-9q-7 0 -6 7l44 146q1 8 10 8h11q10 0 7 -8z" />
    <glyph glyph-name="rcommaaccent" unicode="&#x157;" horiz-adv-x="334" 
d="M284 525h31q7 0 7 -7v-10q0 -8 -7 -8h-31q-92 0 -162 -29q-24 -11 -24 -38v-426q0 -7 -7 -7h-13q-7 0 -7 7v432q0 22 7.5 33t29.5 21q79 32 176 32zM63 -213q-3 -8 -10 -8h-8q-8 0 -7 8l37 161q1 9 10 9h12q9 0 6 -9z" />
    <glyph glyph-name="Rcaron" unicode="&#x158;" horiz-adv-x="638" 
d="M463 896q9 0 3 -8l-138 -114q-9 -8 -17 -8h-4q-8 0 -17 8l-139 114q-8 8 4 8h13q7 0 13 -5l128 -103l126 103q6 5 15 5h13zM382 710q94 0 146.5 -51.5t52.5 -144.5q0 -87 -50 -137t-136 -54q57 -21 93 -90l113 -224q5 -9 -5 -9h-12q-10 0 -16 7l-107 213q-27 54 -63 77
t-99 23h-185v-312q0 -8 -8 -8h-13q-8 0 -8 8v694q0 8 8 8h289zM550 514q0 81 -44.5 125t-126.5 44h-265v-335h265q81 0 126 43t45 123z" />
    <glyph glyph-name="rcaron" unicode="&#x159;" horiz-adv-x="334" 
d="M340 693q10 0 3 -7l-127 -106q-8 -7 -15 -7h-4q-7 0 -15 7l-129 107q-6 6 3 6h14q7 0 12 -5l117 -95l116 95q5 5 13 5h12zM284 525h31q7 0 7 -7v-10q0 -8 -7 -8h-31q-92 0 -162 -29q-24 -11 -24 -38v-426q0 -7 -7 -7h-13q-7 0 -7 7v432q0 22 7.5 33t29.5 21q79 32 176 32
z" />
    <glyph glyph-name="Sacute" unicode="&#x15a;" horiz-adv-x="620" 
d="M391 902q10 5 15 -1l6 -7q7 -7 -1 -11l-178 -108q-7 -4 -12 1l-5 6q-5 5 1 9zM59 530q0 90 65.5 142t180.5 52q98 0 160 -37t102 -119q4 -8 -4 -11l-12 -5q-7 -3 -11 3q-36 73 -91.5 106.5t-143.5 33.5q-101 0 -158.5 -43.5t-57.5 -120.5q0 -37 14 -64.5t33.5 -43.5
t54 -27.5t61.5 -16t71 -9.5q38 -4 61.5 -8t56.5 -12t53 -21t39.5 -31.5t28.5 -47t9 -65.5q0 -97 -66 -148t-194 -51q-102 0 -166 42.5t-102 134.5q-4 8 5 12l11 4q8 3 11 -4q36 -83 94.5 -122t146.5 -39q231 0 231 170q0 37 -13.5 64.5t-31.5 43t-52.5 26.5t-58.5 15t-68 9
q-46 5 -76 10t-68.5 18.5t-60.5 32t-38 51t-16 76.5z" />
    <glyph glyph-name="sacute" unicode="&#x15b;" horiz-adv-x="490" 
d="M323 713q11 5 16 -1l6 -7q6 -6 -2 -10l-178 -109q-7 -2 -11 1l-6 6q-5 6 1 10zM54 385q0 67 47.5 103.5t139.5 36.5q154 0 197 -109q3 -9 -3 -11l-9 -5q-7 -3 -11 4q-19 48 -58.5 72t-114.5 24q-161 0 -161 -115q0 -22 5.5 -39t12 -28.5t23 -20.5t26 -13.5t34.5 -8.5
t36 -5t42 -4q34 -3 58 -7.5t50 -14t42 -23.5t26 -37.5t10 -55.5q0 -142 -195 -142q-81 0 -133.5 29.5t-77.5 97.5q-3 8 5 11l10 3q6 3 9 -4q40 -112 187 -112q168 0 168 116q0 62 -41 84.5t-123 29.5q-27 3 -39 4t-36 4.5t-35 8t-29 12t-26.5 17.5t-18 23.5t-13.5 32.5
t-4 42z" />
    <glyph glyph-name="Scircumflex" unicode="&#x15c;" horiz-adv-x="620" 
d="M316 904q8 0 17 -8l139 -115q7 -7 -5 -7h-12q-9 0 -15 5l-126 103l-128 -103q-6 -5 -13 -5h-13q-12 0 -5 7l140 115q9 8 17 8h4zM59 530q0 90 65.5 142t180.5 52q98 0 160 -37t102 -119q4 -8 -4 -11l-12 -5q-7 -3 -11 3q-36 73 -91.5 106.5t-143.5 33.5
q-101 0 -158.5 -43.5t-57.5 -120.5q0 -37 14 -64.5t33.5 -43.5t54 -27.5t61.5 -16t71 -9.5q38 -4 61.5 -8t56.5 -12t53 -21t39.5 -31.5t28.5 -47t9 -65.5q0 -97 -66 -148t-194 -51q-102 0 -166 42.5t-102 134.5q-4 8 5 12l11 4q8 3 11 -4q36 -83 94.5 -122t146.5 -39
q231 0 231 170q0 37 -13.5 64.5t-31.5 43t-52.5 26.5t-58.5 15t-68 9q-46 5 -76 10t-68.5 18.5t-60.5 32t-38 51t-16 76.5z" />
    <glyph glyph-name="scircumflex" unicode="&#x15d;" horiz-adv-x="490" 
d="M248 704q8 0 16 -8l137 -112q5 -7 -5 -7h-12q-9 0 -14 5l-124 101l-125 -101q-6 -5 -13 -5h-13q-11 0 -4 7l137 112q8 8 16 8h4zM54 385q0 67 47.5 103.5t139.5 36.5q154 0 197 -109q3 -9 -3 -11l-9 -5q-7 -3 -11 4q-19 48 -58.5 72t-114.5 24q-161 0 -161 -115
q0 -22 5.5 -39t12 -28.5t23 -20.5t26 -13.5t34.5 -8.5t36 -5t42 -4q34 -3 58 -7.5t50 -14t42 -23.5t26 -37.5t10 -55.5q0 -142 -195 -142q-81 0 -133.5 29.5t-77.5 97.5q-3 8 5 11l10 3q6 3 9 -4q40 -112 187 -112q168 0 168 116q0 62 -41 84.5t-123 29.5q-27 3 -39 4
t-36 4.5t-35 8t-29 12t-26.5 17.5t-18 23.5t-13.5 32.5t-4 42z" />
    <glyph glyph-name="Scedilla" unicode="&#x15e;" horiz-adv-x="620" 
d="M323 370q38 -4 61.5 -8t56.5 -12t53 -21t39.5 -31.5t28.5 -47t9 -65.5q0 -95 -62 -145.5t-184 -53.5l-26 -75q18 4 35 4q41 0 64.5 -19t22.5 -53q-1 -44 -29.5 -68t-77.5 -24q-48 0 -86 24q-7 3 -7 13l-1 9q0 8 6 4q33 -29 86 -29q39 0 62 19t23 53q0 53 -74 53
q-27 0 -40 -6q-7 -2 -9 1t1 10l30 84q-99 1 -161.5 43.5t-100.5 133.5q-4 8 5 12l11 4q8 3 11 -4q36 -83 94 -122t147 -39q231 0 231 170q0 27 -7 48.5t-17 36.5t-29 27t-35 18.5t-43.5 12.5t-45 8.5t-48.5 6.5q-46 5 -76 10t-68 18.5t-60 32t-38 51t-16 76.5q0 90 65.5 142
t180.5 52q98 0 160 -37t102 -119q4 -8 -4 -11l-12 -5q-7 -3 -11 3q-37 73 -92 106.5t-143 33.5q-102 0 -159.5 -43.5t-57.5 -120.5q0 -37 14 -64.5t33.5 -43.5t54.5 -27.5t62 -16t71 -9.5z" />
    <glyph glyph-name="scedilla" unicode="&#x15f;" horiz-adv-x="490" 
d="M54 385q0 67 47.5 103.5t139.5 36.5q154 0 197 -109q3 -9 -3 -11l-9 -5q-7 -3 -11 4q-19 48 -58.5 72t-114.5 24q-161 0 -161 -115q0 -22 5.5 -39t12 -28.5t23 -20.5t26 -13.5t34.5 -8.5t36 -5t42 -4q34 -3 58 -7.5t50 -14t42 -23.5t26 -37.5t10 -55.5q0 -139 -191 -142
l-27 -74q12 3 35 3q39 0 62 -18t22 -50q-1 -43 -29 -65.5t-76 -22.5q-49 0 -84 22q-7 5 -7 12v9q0 7 5 4q34 -28 84 -28q39 0 61 18t22 51q0 52 -71 52q-25 0 -40 -7q-13 -3 -8 11l31 83q-150 6 -195 127q-3 8 5 11l10 3q6 3 9 -4q40 -112 187 -112q168 0 168 116
q0 62 -41 84.5t-123 29.5q-27 3 -39 4t-36 4.5t-35 8t-29 12t-26.5 17.5t-18 23.5t-13.5 32.5t-4 42z" />
    <glyph glyph-name="Scaron" unicode="&#x160;" horiz-adv-x="620" 
d="M467 905q10 0 4 -8l-139 -114q-8 -8 -17 -8h-4q-8 0 -16 8l-140 114q-8 8 4 8h13q8 0 13 -5l128 -103l127 103q5 5 14 5h13zM59 530q0 90 65.5 142t180.5 52q98 0 160 -37t102 -119q4 -8 -4 -11l-12 -5q-7 -3 -11 3q-36 73 -91.5 106.5t-143.5 33.5q-101 0 -158.5 -43.5
t-57.5 -120.5q0 -37 14 -64.5t33.5 -43.5t54 -27.5t61.5 -16t71 -9.5q38 -4 61.5 -8t56.5 -12t53 -21t39.5 -31.5t28.5 -47t9 -65.5q0 -97 -66 -148t-194 -51q-102 0 -166 42.5t-102 134.5q-4 8 5 12l11 4q8 3 11 -4q36 -83 94.5 -122t146.5 -39q231 0 231 170
q0 37 -13.5 64.5t-31.5 43t-52.5 26.5t-58.5 15t-68 9q-46 5 -76 10t-68.5 18.5t-60.5 32t-38 51t-16 76.5z" />
    <glyph glyph-name="scaron" unicode="&#x161;" horiz-adv-x="490" 
d="M384 690q11 0 4 -7l-125 -104q-8 -7 -16 -7h-3q-7 0 -15 7l-127 105q-6 6 3 6h13q7 0 12 -4l116 -94l114 94q5 4 13 4h11zM54 385q0 67 47.5 103.5t139.5 36.5q154 0 197 -109q3 -9 -3 -11l-9 -5q-7 -3 -11 4q-19 48 -58.5 72t-114.5 24q-161 0 -161 -115q0 -22 5.5 -39
t12 -28.5t23 -20.5t26 -13.5t34.5 -8.5t36 -5t42 -4q34 -3 58 -7.5t50 -14t42 -23.5t26 -37.5t10 -55.5q0 -142 -195 -142q-81 0 -133.5 29.5t-77.5 97.5q-3 8 5 11l10 3q6 3 9 -4q40 -112 187 -112q168 0 168 116q0 62 -41 84.5t-123 29.5q-27 3 -39 4t-36 4.5t-35 8
t-29 12t-26.5 17.5t-18 23.5t-13.5 32.5t-4 42z" />
    <glyph glyph-name="Tcaron" unicode="&#x164;" horiz-adv-x="525" 
d="M416 896q10 0 4 -8l-139 -114q-8 -8 -16 -8h-4q-9 0 -17 8l-139 114q-2 2 -2.5 3.5t1 3t4.5 1.5h14q7 0 13 -5l128 -103l126 103q6 5 14 5h13zM504 710q8 0 8 -8v-11q0 -8 -8 -8h-227v-675q0 -8 -8 -8h-13q-8 0 -8 8v675h-227q-8 0 -8 8v11q0 8 8 8h483z" />
    <glyph glyph-name="tcaron" unicode="&#x165;" horiz-adv-x="334" 
d="M292 563q-3 -8 -10 -8h-7q-7 0 -6 7l40 170q1 8 9 8h11q10 0 7 -8zM146 631q8 0 8 -7v-113h168q8 0 8 -7v-11q0 -7 -8 -7h-168v-308q0 -100 34.5 -133t132.5 -33q7 0 7 -7v-11q0 -8 -7 -8q-111 -1 -153 39t-42 152v309h-116q-7 0 -7 7v11q0 7 7 7h116v113q0 7 8 7h12z
" />
    <glyph glyph-name="Tbar" unicode="&#x166;" horiz-adv-x="549" 
d="M517 710q7 0 7 -8v-11q0 -8 -7 -8h-227v-340h158q7 0 7 -7v-8q0 -9 -7 -9h-158v-311q0 -8 -8 -8h-14q-8 0 -8 8v311h-158q-7 0 -7 9v8q0 7 7 7h158v340h-227q-7 0 -7 8v11q0 8 7 8h484z" />
    <glyph glyph-name="tbar" unicode="&#x167;" horiz-adv-x="345" 
d="M156 631q7 0 7 -7v-113h169q8 0 8 -7v-11q0 -7 -8 -7h-169v-213h139q7 0 7 -7v-8q0 -7 -7 -7h-139v-73q0 -100 34.5 -132.5t132.5 -32.5q8 0 8 -8v-11q0 -8 -8 -8q-110 -1 -152 39t-42 152v74h-105q-7 0 -7 7v8q0 7 7 7h105v213h-116q-7 0 -7 7v11q0 7 7 7h116v113
q0 7 8 7h12z" />
    <glyph glyph-name="Utilde" unicode="&#x168;" horiz-adv-x="678" 
d="M486 871q6 0 6 -6q0 -90 -73 -90q-30 0 -57 18.5t-52.5 37.5t-51.5 19q-25 0 -39 -19t-14 -50q0 -6 -6 -6h-10q-6 0 -6 6q0 42 19.5 66t54.5 24q38 0 84.5 -38t76.5 -38q26 0 39.5 19.5t13.5 50.5q0 6 6 6h9zM108 240q0 -107 58.5 -167.5t172.5 -60.5t172 60.5t58 167.5
v462q0 8 8 8h14q8 0 8 -8v-462q0 -119 -66 -187t-194 -68q-129 0 -194.5 67.5t-65.5 187.5v462q0 8 8 8h13q8 0 8 -8v-462z" />
    <glyph glyph-name="utilde" unicode="&#x169;" 
d="M419 691q6 0 6 -6q0 -90 -73 -90q-30 0 -57 18.5t-52.5 37.5t-51.5 19q-25 0 -39.5 -19t-14.5 -50q0 -6 -5 -6h-10q-6 0 -6 6q0 42 19 66t55 24q38 0 84.5 -37.5t76.5 -37.5q26 0 39.5 19t13.5 50q0 6 6 6h9zM467 511q7 0 7 -7v-431q0 -23 -7.5 -34t-29.5 -21
q-79 -32 -178 -32q-190 0 -190 191v327q0 7 7 7h13q7 0 7 -7v-325q0 -168 166 -168q91 0 161 29q24 11 24 38v426q0 7 8 7h12z" />
    <glyph glyph-name="Umacron" unicode="&#x16a;" horiz-adv-x="678" 
d="M458 833q7 0 7 -8v-7q0 -7 -7 -7h-239q-7 0 -7 7v7q0 8 7 8h239zM108 240q0 -107 58.5 -167.5t172.5 -60.5t172 60.5t58 167.5v462q0 8 8 8h14q8 0 8 -8v-462q0 -119 -66 -187t-194 -68q-129 0 -194.5 67.5t-65.5 187.5v462q0 8 8 8h13q8 0 8 -8v-462z" />
    <glyph glyph-name="umacron" unicode="&#x16b;" 
d="M391 651q7 0 7 -8v-7q0 -8 -7 -8h-239q-7 0 -7 8v7q0 8 7 8h239zM467 511q7 0 7 -7v-431q0 -23 -7.5 -34t-29.5 -21q-79 -32 -178 -32q-190 0 -190 191v327q0 7 7 7h13q7 0 7 -7v-325q0 -168 166 -168q91 0 161 29q24 11 24 38v426q0 7 8 7h12z" />
    <glyph glyph-name="Ubreve" unicode="&#x16c;" horiz-adv-x="678" 
d="M488 879q-31 -114 -149 -114t-149 114q-2 5 4 8l11 3q7 3 8 -4q26 -98 126 -98q99 0 125 98q3 6 8 5l12 -4q5 -3 4 -8zM108 240q0 -107 58.5 -167.5t172.5 -60.5t172 60.5t58 167.5v462q0 8 8 8h14q8 0 8 -8v-462q0 -119 -66 -187t-194 -68q-129 0 -194.5 67.5
t-65.5 187.5v462q0 8 8 8h13q8 0 8 -8v-462z" />
    <glyph glyph-name="ubreve" unicode="&#x16d;" 
d="M421 696q-17 -59 -52.5 -86t-96.5 -27t-97 27t-52 86q-2 6 3 9l12 3q5 3 8 -4q13 -51 43.5 -74.5t82.5 -23.5q99 0 125 98q3 7 8 4l12 -3q5 -3 4 -9zM467 511q7 0 7 -7v-431q0 -23 -7.5 -34t-29.5 -21q-79 -32 -178 -32q-190 0 -190 191v327q0 7 7 7h13q7 0 7 -7v-325
q0 -168 166 -168q91 0 161 29q24 11 24 38v426q0 7 8 7h12z" />
    <glyph glyph-name="Uring" unicode="&#x16e;" horiz-adv-x="678" 
d="M243 835q0 43 26.5 67.5t70.5 24.5q43 0 68 -24.5t25 -67.5t-25 -67.5t-68 -24.5q-44 0 -70.5 24.5t-26.5 67.5zM415 835q0 34 -20 54t-55 20q-37 0 -58 -20t-21 -54t21 -54t58 -20q35 0 55 20t20 54zM108 240q0 -107 58.5 -167.5t172.5 -60.5t172 60.5t58 167.5v462
q0 8 8 8h14q8 0 8 -8v-462q0 -119 -66 -187t-194 -68q-129 0 -194.5 67.5t-65.5 187.5v462q0 8 8 8h13q8 0 8 -8v-462z" />
    <glyph glyph-name="uring" unicode="&#x16f;" 
d="M183 645q0 43 26 68t70 25q43 0 68 -25t25 -68q0 -42 -25 -67t-68 -25q-44 0 -70 25t-26 67zM354 645q0 35 -20 55t-55 20q-37 0 -57.5 -20t-20.5 -55q0 -34 21 -54t57 -20q34 0 54.5 20t20.5 54zM467 511q7 0 7 -7v-431q0 -23 -7.5 -34t-29.5 -21q-79 -32 -178 -32
q-190 0 -190 191v327q0 7 7 7h13q7 0 7 -7v-325q0 -168 166 -168q91 0 161 29q24 11 24 38v426q0 7 8 7h12z" />
    <glyph glyph-name="Uhungarumlaut" unicode="&#x170;" horiz-adv-x="678" 
d="M315 890q6 7 13 6l11 -3q9 -3 3 -9l-115 -118q-6 -6 -11 -3l-7 2q-7 2 -2 9zM491 890q6 7 13 6l11 -3q10 -2 3 -9l-116 -118q-4 -6 -11 -4l-7 3q-8 2 -2 8zM108 240q0 -107 58.5 -167.5t172.5 -60.5t172 60.5t58 167.5v462q0 8 8 8h14q8 0 8 -8v-462q0 -119 -66 -187
t-194 -68q-129 0 -194.5 67.5t-65.5 187.5v462q0 8 8 8h13q8 0 8 -8v-462z" />
    <glyph glyph-name="uhungarumlaut" unicode="&#x171;" 
d="M247 705q7 7 13 5l12 -2q8 -2 3 -9l-115 -118q-4 -6 -11 -4l-7 3q-9 2 -3 8zM425 703q7 7 13 5l12 -2q9 -3 3 -9l-120 -115q-6 -6 -11 -3l-7 2q-7 3 -2 8zM467 511q7 0 7 -7v-431q0 -23 -7.5 -34t-29.5 -21q-79 -32 -178 -32q-190 0 -190 191v327q0 7 7 7h13q7 0 7 -7
v-325q0 -168 166 -168q91 0 161 29q24 11 24 38v426q0 7 8 7h12z" />
    <glyph glyph-name="Uogonek" unicode="&#x172;" horiz-adv-x="678" 
d="M591 710q8 0 8 -8v-462q0 -146 -94 -210q-66 -51 -108 -118.5t-28 -101.5q11 -34 49 -34q41 0 71 32q3 4 6 -1l3 -11q2 -4 -2 -8q-38 -36 -85 -36q-53 0 -67 45q-14 37 16.5 94t86.5 111q-43 -17 -108 -17q-129 0 -194.5 67.5t-65.5 187.5v462q0 8 8 8h13q8 0 8 -8v-462
q0 -107 58.5 -167.5t172.5 -60.5t172 60.5t58 167.5v462q0 8 8 8h14z" />
    <glyph glyph-name="uogonek" unicode="&#x173;" 
d="M467 511q7 0 7 -7v-431q0 -32 -18 -45q-61 -48 -93.5 -115t-18.5 -103q11 -34 49 -34q41 0 71 32q3 3 6 -1l3 -11q2 -4 -2 -8q-38 -36 -85 -36q-53 0 -67 45q-14 39 11 100.5t80 111.5q-65 -23 -151 -23q-190 0 -190 191v327q0 7 7 7h13q7 0 7 -7v-325q0 -168 166 -168
q91 0 161 29q24 11 24 38v426q0 7 8 7h12z" />
    <glyph glyph-name="Wcircumflex" unicode="&#x174;" horiz-adv-x="864" 
d="M436 895q8 0 16 -8l140 -115q5 -7 -5 -7h-13q-8 0 -14 5l-127 103l-127 -103q-6 -5 -13 -5h-14q-11 0 -4 7l140 115q8 8 16 8h5zM834 710q8 0 5 -8l-190 -694q-2 -8 -12 -8h-12q-9 0 -12 8l-158 554q-4 14 -22 86h-1l-24 -86l-158 -554q-1 -8 -11 -8h-13q-10 0 -11 8
l-190 694q-3 8 5 8h15q10 0 11 -7l156 -573q2 -9 9.5 -41t11.5 -46h1q3 15 11.5 46t10.5 40l159 556q2 7 11 7h14q9 0 11 -7l159 -558q19 -73 22 -84h1q5 20 19 83l156 577q3 7 12 7h14z" />
    <glyph glyph-name="wcircumflex" unicode="&#x175;" horiz-adv-x="728" 
d="M367 703q8 0 16 -7l136 -113q9 -7 -4 -7h-12q-9 0 -14 5l-124 101l-125 -101q-6 -5 -13 -5h-13q-12 0 -5 7l138 113q8 7 16 7h4zM697 511q9 0 6 -9l-160 -499q-1 -8 -9 -8h-11q-8 0 -11 8l-127 384q-4 14 -11 37.5t-10 31.5h-2q-3 -8 -10 -31.5t-11 -37.5l-126 -384
q-3 -8 -11 -8h-10q-8 0 -10 8l-159 499q-3 9 6 9h11q11 0 12 -8l120 -381q4 -13 12.5 -44t12.5 -44h2q3 10 12 41.5t15 48.5l120 362q2 7 12 7h8q9 0 11 -7l119 -358q6 -17 15.5 -49.5t13.5 -44.5h2q6 18 26 93l120 376q1 8 12 8h10z" />
    <glyph glyph-name="Ycircumflex" unicode="&#x176;" horiz-adv-x="613" 
d="M310 895q8 0 16 -8l140 -115q5 -7 -5 -7h-13q-8 0 -14 5l-126 103l-128 -103q-6 -5 -13 -5h-14q-11 0 -4 7l140 115q8 8 16 8h5zM593 710q9 0 5 -8l-277 -408v-286q0 -8 -8 -8h-13q-8 0 -8 8v287l-275 407q-6 8 5 8h16q10 0 15 -7l254 -378l255 378q4 7 14 7h17z" />
    <glyph glyph-name="ycircumflex" unicode="&#x177;" horiz-adv-x="548" 
d="M274 703q8 0 16 -7l136 -113q3 -2 2 -4.5t-6 -2.5h-13q-8 0 -14 5l-123 101l-125 -101q-6 -5 -13 -5h-13q-12 0 -5 7l137 113q9 7 16 7h5zM467 511q7 0 7 -7v-545q0 -216 -206 -216q-136 0 -192 117q-5 7 3 12l9 4q6 4 12 -3q49 -104 168 -104q179 0 179 189v69
q-100 -38 -188 -38q-190 0 -190 192v323q0 7 7 7h13q7 0 7 -7v-322q0 -168 166 -168q88 0 185 39v451q0 7 8 7h12z" />
    <glyph glyph-name="Ydieresis" unicode="&#x178;" horiz-adv-x="613" 
d="M216 845q10 0 13 -3.5t3 -12.5v-6q0 -10 -3 -13.5t-13 -3.5h-6q-10 0 -13.5 3.5t-3.5 13.5v6q0 16 17 16h6zM404 845q18 0 18 -16v-6q0 -17 -18 -17h-5q-10 0 -13.5 3.5t-3.5 13.5v6q0 9 3.5 12.5t13.5 3.5h5zM593 710q9 0 5 -8l-277 -408v-286q0 -8 -8 -8h-13q-8 0 -8 8
v287l-275 407q-6 8 5 8h16q10 0 15 -7l254 -378l255 378q4 7 14 7h17z" />
    <glyph glyph-name="Zacute" unicode="&#x179;" horiz-adv-x="548" 
d="M355 893q9 5 15 -1l6 -7q7 -7 -1 -11l-179 -108q-7 -4 -11 1l-5 6q-6 5 1 9zM500 710q8 0 8 -8v-10q0 -7 -3 -11l-437 -653h445q8 0 8 -8v-12q0 -8 -8 -8h-474q-8 0 -8 8v11q0 7 5 13l435 651h-428q-7 0 -7 8v11q0 8 7 8h457z" />
    <glyph glyph-name="zacute" unicode="&#x17a;" horiz-adv-x="442" 
d="M299 712q8 6 15 -1l6 -6q6 -7 -2 -11l-178 -109q-8 -3 -11 1l-5 6q-6 6 1 10zM405 25q6 0 6 -7v-11q0 -7 -6 -7h-367q-7 0 -7 7v11q0 5 4 10l338 458h-331q-7 0 -7 8v10q0 7 7 7h358q7 0 7 -7v-10q0 -7 -4 -12l-337 -457h339z" />
    <glyph glyph-name="Zdotaccent" unicode="&#x17b;" horiz-adv-x="548" 
d="M279 841q10 0 14 -3.5t4 -13.5v-5q0 -10 -4 -13.5t-14 -3.5h-4q-10 0 -13.5 3.5t-3.5 13.5v5q0 10 3.5 13.5t13.5 3.5h4zM500 710q8 0 8 -8v-10q0 -7 -3 -11l-437 -653h445q8 0 8 -8v-12q0 -8 -8 -8h-474q-8 0 -8 8v11q0 7 5 13l435 651h-428q-7 0 -7 8v11q0 8 7 8h457z
" />
    <glyph glyph-name="zdotaccent" unicode="&#x17c;" horiz-adv-x="442" 
d="M223 661q18 0 18 -18v-4q0 -11 -3.5 -14.5t-14.5 -3.5h-4q-10 0 -13.5 3.5t-3.5 14.5v4q0 18 17 18h4zM405 25q6 0 6 -7v-11q0 -7 -6 -7h-367q-7 0 -7 7v11q0 5 4 10l338 458h-331q-7 0 -7 8v10q0 7 7 7h358q7 0 7 -7v-10q0 -7 -4 -12l-337 -457h339z" />
    <glyph glyph-name="Zcaron" unicode="&#x17d;" horiz-adv-x="548" 
d="M431 896q11 0 3 -8l-138 -114q-9 -8 -17 -8h-4q-8 0 -17 8l-139 114q-8 8 4 8h13q7 0 13 -5l128 -103l127 103q5 5 14 5h13zM500 710q8 0 8 -8v-10q0 -7 -3 -11l-437 -653h445q8 0 8 -8v-12q0 -8 -8 -8h-474q-8 0 -8 8v11q0 7 5 13l435 651h-428q-7 0 -7 8v11q0 8 7 8
h457z" />
    <glyph glyph-name="zcaron" unicode="&#x17e;" horiz-adv-x="442" 
d="M360 689q10 0 3 -7l-125 -104q-8 -7 -15 -7h-4q-7 0 -15 7l-126 105q-6 6 3 6h13q7 0 12 -5l115 -93l114 93q5 5 13 5h12zM405 25q6 0 6 -7v-11q0 -7 -6 -7h-367q-7 0 -7 7v11q0 5 4 10l338 458h-331q-7 0 -7 8v10q0 7 7 7h358q7 0 7 -7v-10q0 -7 -4 -12l-337 -457h339z
" />
    <glyph glyph-name="longs" unicode="&#x17f;" horiz-adv-x="232" 
d="M111 549q0 110 42.5 150.5t151.5 40.5q8 0 8 -8v-11q0 -7 -8 -7q-97 0 -131.5 -33.5t-34.5 -132.5v-541q0 -7 -8 -7h-12q-8 0 -8 7v479h-96q-7 0 -7 7v11q0 7 7 7h96v38z" />
    <glyph glyph-name="florin" unicode="&#x192;" horiz-adv-x="432" 
d="M214 546q10 93 58 143.5t145 50.5q8 0 8 -8v-11q0 -7 -8 -7q-85 0 -125 -43.5t-49 -126.5l-19 -173h164q7 0 7 -7v-12q0 -7 -7 -7h-168l-39 -370q-22 -195 -204 -195q-8 0 -8 8v11q0 7 8 7q85 0 125.5 44.5t49.5 127.5l40 367h-154q-8 0 -8 7v12q0 7 8 7h157z" />
    <glyph glyph-name="Aringacute" unicode="&#x1fa;" horiz-adv-x="627" 
d="M390 952q9 5 14 -1l5 -7q5 -5 -1 -8l-170 -74q-6 -3 -10 1l-4 5q-3 3 4 9zM220 766q0 38 26.5 63t66.5 25t65.5 -25t25.5 -63q0 -29 -18.5 -50t-49.5 -25l278 -683q3 -8 -7 -8h-11q-11 0 -14 7l-101 250h-336l-101 -250q-3 -7 -15 -7h-10q-9 0 -6 8l278 683
q-32 4 -51.5 25t-19.5 50zM385 767q0 30 -20 49t-52 19t-52.5 -19t-20.5 -49q0 -27 20.5 -44.5t52.5 -17.5q31 0 51.5 17.5t20.5 44.5zM363 554q-9 20 -25.5 65t-23.5 61h-2q-6 -16 -22.5 -60.5t-24.5 -64.5l-111 -273h317z" />
    <glyph glyph-name="aringacute" unicode="&#x1fb;" horiz-adv-x="507" 
d="M323 882q10 3 14 -1l6 -5q5 -5 -1 -8l-167 -80q-7 -2 -11 0l-5 5q-5 4 1 7zM159 671q0 43 26.5 67.5t70.5 24.5q43 0 68 -24.5t25 -67.5t-25 -67.5t-68 -24.5q-44 0 -70.5 24.5t-26.5 67.5zM331 671q0 34 -20 54t-55 20q-37 0 -58 -20t-21 -54t21 -54t58 -20
q34 0 54.5 20t20.5 54zM59 419q54 106 194 106q56 0 95 -15t59 -43t28 -60t8 -74v-264q0 -26 -7.5 -37t-28.5 -20q-60 -26 -154 -26q-122 0 -166.5 36.5t-44.5 114.5q0 81 49 114.5t166 33.5q45 0 159 -12v61q0 37 -6.5 64.5t-23.5 52t-51 37t-83 12.5q-119 0 -169 -92
q-4 -6 -10 -4l-10 4q-9 3 -4 11zM416 249q-82 13 -161 13q-102 0 -143.5 -28.5t-41.5 -96.5q0 -66 38 -96.5t144 -30.5q86 0 138 23q17 7 21.5 14t4.5 26v176z" />
    <glyph glyph-name="AEacute" unicode="&#x1fc;" horiz-adv-x="808" 
d="M663 893q9 5 15 -1l6 -7q7 -7 -1 -11l-179 -108q-7 -4 -11 1l-5 6q-5 5 1 9zM759 27q8 0 8 -8v-11q0 -8 -8 -8h-327q-8 0 -8 8v187h-282l-113 -188q-4 -7 -14 -7h-12q-10 0 -7 8l421 694q5 8 11 8h316q8 0 8 -8v-11q0 -8 -8 -8h-291v-310h249q8 0 8 -8v-12q0 -8 -8 -8
h-249v-318h306zM424 663l-266 -442h266v442z" />
    <glyph glyph-name="aeacute" unicode="&#x1fd;" horiz-adv-x="779" 
d="M468 721q8 6 15 -1l6 -7q6 -6 -2 -10l-178 -109q-7 -2 -11 1l-6 6q-5 6 2 10zM60 420q55 105 171 105q129 0 153 -111q33 111 166 111q182 0 182 -204v-52q0 -17 -18 -17h-318v-76q0 -166 150 -166q63 0 94.5 25t60.5 80q5 7 12 4l9 -5q7 -4 2 -11q-30 -59 -67 -88
t-111 -29q-113 0 -152 78q-39 -78 -163 -78q-107 0 -147.5 35.5t-40.5 112.5q0 82 43.5 116t148.5 34q46 0 133 -13v66q0 79 -27.5 121t-110.5 42q-97 0 -145 -91q-5 -6 -10 -4l-11 4q-8 3 -4 11zM705 322q0 179 -155 179q-82 0 -118 -46t-36 -133v-47h309v47zM368 247
q-72 13 -136 13q-89 0 -125 -28.5t-36 -97.5q0 -64 34 -94t124 -30q123 0 149 83q-10 33 -10 79v75z" />
    <glyph glyph-name="Oslashacute" unicode="&#x1fe;" horiz-adv-x="658" 
d="M414 903q10 5 16 -1l6 -7q6 -7 -2 -11l-178 -108q-8 -4 -11 1l-6 6q-5 5 1 9zM596 749q5 0 3 -4l-62 -97q58 -63 58 -168v-250q0 -115 -68.5 -179.5t-196.5 -64.5q-116 0 -183 52l-50 -78q-2 -4 -9 -4h-16q-5 0 -2 4l59 93q-66 63 -66 177v250q0 115 69 179.5t198 64.5
q121 0 189 -60l52 81q3 4 8 4h17zM504 639q-63 58 -174 58q-115 0 -176.5 -57.5t-61.5 -160.5v-248q0 -95 55 -150zM163 63q63 -50 167 -50q113 0 174 57.5t61 160.5v248q0 89 -45 141z" />
    <glyph glyph-name="oslashacute" unicode="&#x1ff;" horiz-adv-x="536" 
d="M345 712q8 6 15 -1l6 -6q7 -7 -1 -11l-179 -109q-8 -3 -11 1l-5 6q-5 6 1 10zM465 552q2 0 1 -4l-44 -69q57 -45 57 -124v-199q0 -78 -57.5 -124t-153.5 -46q-82 0 -136 34l-33 -51q-3 -4 -8 -4h-14q-4 0 -2 4l39 63q-57 45 -57 124v199q0 78 57.5 124t153.5 46
q84 0 137 -34l38 58q2 3 7 3h15zM391 468q-50 32 -123 32q-82 0 -133 -39t-51 -105v-201q0 -61 47 -99zM145 43q49 -32 123 -32q83 0 133.5 39t50.5 105v201q0 60 -46 98z" />
    <glyph glyph-name="Scommaaccent" unicode="&#x218;" horiz-adv-x="620" 
d="M59 530q0 90 65.5 142t180.5 52q98 0 160 -37t102 -119q4 -8 -4 -11l-12 -5q-7 -3 -11 3q-36 73 -91.5 106.5t-143.5 33.5q-101 0 -158.5 -43.5t-57.5 -120.5q0 -37 14 -64.5t33.5 -43.5t54 -27.5t61.5 -16t71 -9.5q38 -4 61.5 -8t56.5 -12t53 -21t39.5 -31.5t28.5 -47
t9 -65.5q0 -97 -66 -148t-194 -51q-102 0 -166 42.5t-102 134.5q-4 8 5 12l11 4q8 3 11 -4q36 -83 94.5 -122t146.5 -39q231 0 231 170q0 37 -13.5 64.5t-31.5 43t-52.5 26.5t-58.5 15t-68 9q-46 5 -76 10t-68.5 18.5t-60.5 32t-38 51t-16 76.5zM302 -243q-3 -8 -10 -8h-8
q-8 0 -6 7l43 146q1 8 10 8h11q9 0 8 -8z" />
    <glyph glyph-name="scommaaccent" unicode="&#x219;" horiz-adv-x="490" 
d="M54 385q0 67 47.5 103.5t139.5 36.5q154 0 197 -109q3 -9 -3 -11l-9 -5q-7 -3 -11 4q-19 48 -58.5 72t-114.5 24q-161 0 -161 -115q0 -22 5.5 -39t12 -28.5t23 -20.5t26 -13.5t34.5 -8.5t36 -5t42 -4q34 -3 58 -7.5t50 -14t42 -23.5t26 -37.5t10 -55.5q0 -142 -195 -142
q-81 0 -133.5 29.5t-77.5 97.5q-3 8 5 11l10 3q6 3 9 -4q40 -112 187 -112q168 0 168 116q0 62 -41 84.5t-123 29.5q-27 3 -39 4t-36 4.5t-35 8t-29 12t-26.5 17.5t-18 23.5t-13.5 32.5t-4 42zM238 -212q-2 -8 -10 -8h-8q-7 0 -6 7l39 150q1 9 9 9h11q10 0 7 -9z" />
    <glyph glyph-name="uni021A" unicode="&#x21a;" horiz-adv-x="525" 
d="M504 710q8 0 8 -8v-11q0 -8 -8 -8h-227v-675q0 -8 -8 -8h-13q-8 0 -8 8v675h-227q-8 0 -8 8v11q0 8 8 8h483zM239 -235q-3 -8 -10 -8h-8q-8 0 -6 7l43 146q1 8 10 8h11q9 0 8 -8z" />
    <glyph glyph-name="uni021B" unicode="&#x21b;" horiz-adv-x="334" 
d="M146 631q8 0 8 -7v-113h168q8 0 8 -7v-11q0 -7 -8 -7h-168v-308q0 -100 34.5 -133t132.5 -33q7 0 7 -7v-11q0 -8 -7 -8q-111 -1 -153 39t-42 152v309h-116q-7 0 -7 7v11q0 7 7 7h116v113q0 7 8 7h12zM187 -235q-1 -8 -9 -8h-9q-7 0 -6 7l44 146q1 8 10 8h11q10 0 7 -8z
" />
    <glyph glyph-name="dotlessj" unicode="&#x237;" horiz-adv-x="175" 
d="M93 511q8 0 8 -7v-514q0 -112 -42.5 -166t-148.5 -54q-7 0 -7 8v11q0 7 7 7q92 0 128 47.5t36 146.5v514q0 7 7 7h12z" />
    <glyph glyph-name="circumflex" unicode="&#x2c6;" horiz-adv-x="364" 
d="M184 717q8 0 17 -8l139 -116q6 -6 -5 -6h-12q-9 0 -15 5l-126 103l-128 -103q-6 -5 -13 -5h-13q-11 0 -5 6l140 116q10 8 17 8h4z" />
    <glyph glyph-name="caron" unicode="&#x2c7;" horiz-adv-x="332" 
d="M320 716q11 0 4 -7l-139 -115q-9 -8 -16 -8h-5q-7 0 -16 8l-140 116q-8 6 2 6h15q7 0 14 -4l127 -104l127 104q7 4 14 4h13z" />
    <glyph glyph-name="breve" unicode="&#x2d8;" horiz-adv-x="287" 
d="M287 705q-30 -113 -149 -113t-149 113q-1 7 4 8l11 4q7 3 8 -4q13 -51 43.5 -74.5t82.5 -23.5t82.5 23.5t43.5 74.5q1 7 7 4l12 -4q7 -2 4 -8z" />
    <glyph glyph-name="dotaccent" unicode="&#x2d9;" horiz-adv-x="216" 
d="M110 669q18 0 18 -17v-4q0 -18 -18 -18h-4q-10 0 -14 3.5t-4 14.5v4q0 17 18 17h4z" />
    <glyph glyph-name="ring" unicode="&#x2da;" horiz-adv-x="240" 
d="M26 634q0 43 26 67.5t70 24.5q43 0 68 -24.5t25 -67.5t-25 -67.5t-68 -24.5q-44 0 -70 24.5t-26 67.5zM197 634q0 34 -20 54t-55 20q-36 0 -57 -20t-21 -54t21 -54t57 -20q34 0 54.5 20t20.5 54z" />
    <glyph glyph-name="ogonek" unicode="&#x2db;" horiz-adv-x="252" 
d="M185 0q-61 -48 -90.5 -102t-15.5 -88q11 -34 49 -34q41 0 71 32q3 4 6 -1l3 -11q2 -4 -2 -8q-38 -36 -85 -36q-53 0 -67 45q-15 42 13 98t93 105h25z" />
    <glyph glyph-name="tilde" unicode="&#x2dc;" horiz-adv-x="305" 
d="M301 700q6 0 6 -6q0 -90 -73 -90q-24 0 -46.5 11.5t-37.5 26t-35.5 26t-41.5 11.5q-25 0 -39.5 -19t-14.5 -50q0 -6 -5 -6h-10q-6 0 -6 6q0 42 19 66t55 24q38 0 84.5 -37.5t76.5 -37.5q26 0 39.5 19t13.5 50q0 6 6 6h9z" />
    <glyph glyph-name="hungarumlaut" unicode="&#x2dd;" horiz-adv-x="395" 
d="M167 714q7 7 13 5l12 -2q9 -3 3 -9l-115 -118q-5 -6 -11 -4l-8 3q-7 1 -2 8zM345 712q6 7 13 5l12 -2q11 -3 3 -9l-120 -115q-5 -5 -11 -4l-7 3q-8 3 -3 8z" />
    <glyph glyph-name="uni0326" unicode="&#x326;" horiz-adv-x="0" 
d="M95 -235q-3 -8 -10 -8h-8q-8 0 -7 7l44 146q1 8 10 8h11q9 0 8 -8z" />
    <glyph glyph-name="pi" unicode="&#x3c0;" horiz-adv-x="596" 
d="M573 511q7 0 7 -7v-11q0 -7 -7 -7h-78v-343q0 -77 31 -127q5 -8 -3 -12l-10 -5q-7 -4 -11 4q-34 52 -34 141v342h-292v-479q0 -7 -7 -7h-13q-7 0 -7 7v479q-65 -1 -122 -36q-9 -4 -11 2l-5 10q-4 7 3 11q62 38 150 38h409z" />
    <glyph glyph-name="uni0401" unicode="&#x401;" horiz-adv-x="568" 
d="M208 835q10 0 13 -3.5t3 -12.5v-7q0 -10 -3 -13t-13 -3h-6q-9 0 -12.5 3t-3.5 13v7q0 16 16 16h6zM397 835q17 0 17 -16v-7q0 -16 -17 -16h-5q-11 0 -14.5 3t-3.5 13v7q0 16 18 16h5zM504 710q8 0 8 -8v-11q0 -8 -8 -8h-390v-309h347q8 0 8 -8v-12q0 -8 -8 -8h-347v-319
h404q8 0 8 -8v-11q0 -8 -8 -8h-425q-8 0 -8 8v694q0 8 8 8h411z" />
    <glyph glyph-name="uni0410" unicode="&#x410;" horiz-adv-x="627" 
d="M614 8q3 -8 -6 -8h-12q-11 0 -14 7l-97 241h-344l-97 -241q-3 -7 -15 -7h-10q-9 0 -6 8l283 699q3 8 11 8h12q9 0 12 -7zM320 658q-5 13 -7 27h-1q-3 -19 -6 -27l-156 -385h326z" />
    <glyph glyph-name="uni0411" unicode="&#x411;" horiz-adv-x="623" 
d="M526 710q8 0 8 -8v-11q0 -8 -8 -8h-412v-292h274q93 0 145.5 -51.5t52.5 -144.5q0 -92 -52.5 -143.5t-145.5 -51.5h-295q-8 0 -8 8v694q0 8 8 8h433zM556 195q0 81 -45 124.5t-126 43.5h-271v-336h271q81 0 126 43.5t45 124.5z" />
    <glyph glyph-name="uni0412" unicode="&#x412;" horiz-adv-x="638" 
d="M378 710q88 0 136 -45.5t48 -131.5q0 -133 -108 -167v-1q64 -13 98.5 -58.5t34.5 -119.5q0 -90 -51 -138.5t-143 -48.5h-300q-8 0 -8 8v694q0 8 8 8h285zM533 530q0 75 -40.5 114t-116.5 39h-262v-307h262q76 0 116.5 39.5t40.5 114.5zM556 189q0 78 -42.5 119t-121.5 41
h-278v-322h278q78 0 121 42t43 120z" />
    <glyph glyph-name="uni0413" unicode="&#x413;" horiz-adv-x="506" 
d="M481 710q8 0 8 -8v-11q0 -8 -8 -8h-367v-675q0 -8 -8 -8h-13q-8 0 -8 8v694q0 8 8 8h388z" />
    <glyph glyph-name="uni0414" unicode="&#x414;" horiz-adv-x="690" 
d="M580 710q8 0 8 -8v-675h72q8 0 8 -8v-164q0 -8 -8 -8h-13q-8 0 -8 8v145h-598v-145q0 -8 -8 -8h-13q-8 0 -8 8v164q0 8 8 8h46q24 17 39 37t34.5 68t29.5 141t10 228v201q0 8 8 8h393zM207 683v-182q0 -164 -17.5 -270.5t-37 -142.5t-47.5 -61h454v656h-352z" />
    <glyph glyph-name="uni0415" unicode="&#x415;" horiz-adv-x="568" 
d="M504 710q8 0 8 -8v-11q0 -8 -8 -8h-390v-309h347q8 0 8 -8v-12q0 -8 -8 -8h-347v-319h404q8 0 8 -8v-11q0 -8 -8 -8h-425q-8 0 -8 8v694q0 8 8 8h411z" />
    <glyph glyph-name="uni0416" unicode="&#x416;" horiz-adv-x="898" 
d="M860 710q10 0 5 -9l-229 -338q72 -21 113 -104l126 -250q5 -9 -5 -9h-12q-11 0 -15 7l-121 239q-26 53 -62.5 76.5t-99.5 23.5h-97v-338q0 -8 -7 -8h-14q-8 0 -8 8v338h-96q-64 0 -100 -23t-63 -77l-120 -239q-4 -7 -16 -7h-12q-10 0 -5 9l127 250q40 82 112 104
l-228 338q-7 9 4 9h14q12 0 17 -7l224 -332q19 3 46 3h96v328q0 8 8 8h14q7 0 7 -8v-328h97q25 0 46 -3l224 332q5 7 17 7h13z" />
    <glyph glyph-name="uni0417" unicode="&#x417;" horiz-adv-x="608" 
d="M536 528q0 -57 -24.5 -101t-74.5 -60q60 -17 90.5 -63.5t30.5 -113.5q0 -97 -61.5 -150.5t-185.5 -53.5q-119 0 -181 44.5t-87 135.5q-2 9 5 11l12 4q7 3 10 -5q25 -84 79.5 -123.5t161.5 -39.5q109 0 163 46.5t54 131.5q0 73 -41 116.5t-116 43.5h-198q-8 0 -8 8v11
q0 8 8 8h196q70 0 105 43t35 106q0 82 -50.5 126t-147.5 44q-104 0 -157 -37t-78 -120q-3 -8 -10 -5l-12 3q-8 3 -5 11q25 89 86 132t177 43q110 0 167 -51t57 -145z" />
    <glyph glyph-name="uni0418" unicode="&#x418;" horiz-adv-x="689" 
d="M596 710q8 0 8 -8v-694q0 -8 -8 -8h-14q-7 0 -7 8v475q0 100 4 183h-2q-50 -75 -112 -164l-349 -496q-5 -6 -10 -6h-13q-8 0 -8 8v694q0 8 8 8h13q8 0 8 -8v-459q0 -97 -3 -199h1q56 85 122 179l340 482q2 5 9 5h13z" />
    <glyph glyph-name="uni0419" unicode="&#x419;" horiz-adv-x="689" 
d="M503 882q-32 -110 -155 -110q-64 0 -101.5 26.5t-53.5 83.5q-3 5 4 7l11 4q6 1 9 -4q14 -49 45.5 -72t85.5 -23q104 0 131 95q3 5 8 4l12 -4q7 -2 4 -7zM596 710q8 0 8 -8v-694q0 -8 -8 -8h-14q-7 0 -7 8v475q0 100 4 183h-2q-50 -75 -112 -164l-349 -496q-5 -6 -10 -6
h-13q-8 0 -8 8v694q0 8 8 8h13q8 0 8 -8v-459q0 -97 -3 -199h1q56 85 122 179l340 482q2 5 9 5h13z" />
    <glyph glyph-name="uni041A" unicode="&#x41a;" horiz-adv-x="594" 
d="M572 9q7 -9 -4 -9h-12q-12 0 -16 7l-120 239q-27 54 -63 77t-100 23h-143v-338q0 -8 -8 -8h-13q-8 0 -8 8v694q0 8 8 8h13q8 0 8 -8v-328h142q19 0 28 -1l243 330q5 7 17 7h13q12 0 5 -9l-247 -333q86 -17 131 -109z" />
    <glyph glyph-name="uni041B" unicode="&#x41b;" horiz-adv-x="640" 
d="M548 710q8 0 8 -8v-694q0 -8 -8 -8h-14q-8 0 -8 8v675h-349v-217q0 -86 -4.5 -153t-10 -112.5t-19.5 -81t-22.5 -53.5t-30 -35.5t-31.5 -23.5t-37 -19q-7 -4 -12 3l-5 11q-5 8 3 11q24 12 35 18.5t29.5 23t27 34.5t20 51t16 76.5t8.5 106t4 143.5v236q0 8 8 8h392z" />
    <glyph glyph-name="uni041C" unicode="&#x41c;" horiz-adv-x="792" 
d="M699 710q8 0 8 -8v-694q0 -8 -8 -8h-13q-8 0 -8 8l1 492q0 87 4 160h-2q-28 -55 -73 -134l-195 -347q-4 -7 -11 -7h-10q-7 0 -12 7l-198 352q-40 70 -70 130h-2q3 -83 3 -161v-492q0 -8 -8 -8h-12q-8 0 -8 8v694q0 8 8 8h11q8 0 12 -8l281 -494l278 493q4 9 13 9h11z" />
    <glyph glyph-name="uni041D" unicode="&#x41d;" horiz-adv-x="677" 
d="M585 710q8 0 8 -8v-694q0 -8 -8 -8h-14q-8 0 -8 8v338h-449v-338q0 -8 -8 -8h-13q-8 0 -8 8v694q0 8 8 8h13q8 0 8 -8v-328h449v328q0 8 8 8h14z" />
    <glyph glyph-name="uni041E" unicode="&#x41e;" horiz-adv-x="658" 
d="M63 480q0 115 69 179.5t198 64.5q128 0 196.5 -64.5t68.5 -179.5v-250q0 -115 -68.5 -179.5t-196.5 -64.5q-129 0 -198 64.5t-69 179.5v250zM565 479q0 103 -61 160.5t-174 57.5q-115 0 -176.5 -57.5t-61.5 -160.5v-248q0 -103 61.5 -160.5t176.5 -57.5q113 0 174 57.5
t61 160.5v248z" />
    <glyph glyph-name="uni041F" unicode="&#x41f;" horiz-adv-x="671" 
d="M578 710q8 0 8 -8v-694q0 -8 -8 -8h-14q-8 0 -8 8v675h-442v-675q0 -8 -8 -8h-13q-8 0 -8 8v694q0 8 8 8h485z" />
    <glyph glyph-name="uni0420" unicode="&#x420;" horiz-adv-x="615" 
d="M363 710q101 0 159.5 -57t58.5 -158q0 -99 -58.5 -155.5t-159.5 -56.5h-249v-275q0 -8 -8 -8h-13q-8 0 -8 8v694q0 8 8 8h270zM360 310q89 0 139.5 49t50.5 136q0 89 -50.5 138.5t-139.5 49.5h-246v-373h246z" />
    <glyph glyph-name="uni0421" unicode="&#x421;" horiz-adv-x="633" 
d="M63 481q0 114 68.5 178.5t197.5 64.5q114 0 174.5 -43.5t86.5 -132.5q3 -9 -6 -10l-11 -4q-8 -3 -11 5q-25 82 -78 120t-155 38q-116 0 -176 -57t-60 -158v-253q0 -101 61 -158.5t175 -57.5q104 0 157.5 40t78.5 124q3 8 10 5l12 -4q7 -2 5 -11q-25 -91 -85.5 -136
t-177.5 -45q-128 0 -197 64.5t-69 179.5v251z" />
    <glyph glyph-name="uni0422" unicode="&#x422;" horiz-adv-x="525" 
d="M504 710q8 0 8 -8v-11q0 -8 -8 -8h-227v-675q0 -8 -8 -8h-13q-8 0 -8 8v675h-227q-8 0 -8 8v11q0 8 8 8h483z" />
    <glyph glyph-name="uni0423" unicode="&#x423;" horiz-adv-x="576" 
d="M561 710q8 0 4 -8l-356 -695q-4 -7 -14 -7h-14q-10 0 -5 8l99 191l-268 503q-4 8 5 8h14q10 0 14 -7l251 -472l242 472q3 7 14 7h14z" />
    <glyph glyph-name="uni0424" unicode="&#x424;" horiz-adv-x="821" 
d="M417 735q8 0 8 -8v-77h72q131 0 200.5 -67t69.5 -187v-77q0 -120 -69.5 -187t-200.5 -67h-72v-77q0 -8 -8 -8h-13q-8 0 -8 8v77h-72q-131 0 -200.5 67t-69.5 187v77q0 120 69.5 187t200.5 67h72v77q0 8 8 8h13zM324 623q-117 0 -179 -59.5t-62 -166.5v-79
q0 -107 62 -166.5t179 -59.5h72v531h-72zM738 397q0 107 -62 166.5t-179 59.5h-72v-531h72q117 0 179 59.5t62 166.5v79z" />
    <glyph glyph-name="uni0425" unicode="&#x425;" horiz-adv-x="600" 
d="M583 11q7 -11 -3 -11h-17q-10 0 -15 7l-249 331l-248 -331q-5 -7 -14 -7h-17q-10 0 -3 11l264 349l-257 342q-6 8 4 8h17q9 0 15 -7l240 -319l240 319q6 7 15 7h16q11 0 5 -8l-257 -342z" />
    <glyph glyph-name="uni0426" unicode="&#x426;" horiz-adv-x="685" 
d="M654 27q8 0 8 -8v-164q0 -8 -8 -8h-13q-7 0 -7 8v145h-541q-8 0 -8 8v694q0 8 8 8h13q8 0 8 -8v-675h439v675q0 8 8 8h14q8 0 8 -8v-675h71z" />
    <glyph glyph-name="uni0427" unicode="&#x427;" horiz-adv-x="618" 
d="M526 710q8 0 8 -8v-694q0 -8 -8 -8h-14q-8 0 -8 8v291q-90 -24 -214 -24q-133 0 -190 61.5t-57 183.5v182q0 8 8 8h13q8 0 8 -8v-182q0 -111 49.5 -164.5t169.5 -53.5q119 0 213 25v375q0 8 8 8h14z" />
    <glyph glyph-name="uni0428" unicode="&#x428;" horiz-adv-x="899" 
d="M807 710q7 0 7 -8v-694q0 -8 -7 -8h-714q-8 0 -8 8v694q0 8 8 8h13q8 0 8 -8v-675h321v675q0 8 8 8h13q8 0 8 -8v-675h321v675q0 8 8 8h14z" />
    <glyph glyph-name="uni0429" unicode="&#x429;" horiz-adv-x="917" 
d="M888 27q8 0 8 -8v-164q0 -8 -8 -8h-13q-8 0 -8 8v145h-774q-8 0 -8 8v694q0 8 8 8h13q8 0 8 -8v-675h321v675q0 8 8 8h13q8 0 8 -8v-675h321v675q0 8 8 8h14q7 0 7 -8v-675h74z" />
    <glyph glyph-name="uni042A" unicode="&#x42a;" horiz-adv-x="717" 
d="M465 427q101 0 159.5 -56.5t58.5 -155.5q0 -101 -58.5 -158t-159.5 -57h-270q-8 0 -8 8v675h-167q-8 0 -8 8v11q0 8 8 8h189q8 0 8 -8v-275h248zM463 27q88 0 139 49.5t51 138.5q0 87 -51 136t-139 49h-246v-373h246z" />
    <glyph glyph-name="uni042B" unicode="&#x42b;" horiz-adv-x="828" 
d="M93 0q-8 0 -8 8v694q0 8 8 8h13q8 0 8 -8v-275h249q101 0 159.5 -56.5t58.5 -155.5q0 -101 -58.5 -158t-159.5 -57h-270zM714 702q0 8 7 8h14q8 0 8 -8v-694q0 -8 -8 -8h-14q-7 0 -7 8v694zM114 400v-373h246q89 0 139.5 49.5t50.5 138.5q0 87 -50.5 136t-139.5 49h-246z
" />
    <glyph glyph-name="uni042C" unicode="&#x42c;" horiz-adv-x="615" 
d="M93 0q-8 0 -8 8v694q0 8 8 8h13q8 0 8 -8v-275h249q101 0 159.5 -56.5t58.5 -155.5q0 -101 -58.5 -158t-159.5 -57h-270zM114 400v-373h246q89 0 139.5 49.5t50.5 138.5q0 87 -50.5 136t-139.5 49h-246z" />
    <glyph glyph-name="uni042D" unicode="&#x42d;" horiz-adv-x="637" 
d="M47 549q26 89 86.5 132t174.5 43q130 0 198 -64t68 -179v-252q0 -114 -69 -178.5t-197 -64.5q-117 0 -177 44.5t-86 135.5q-2 9 5 11l12 4q7 3 11 -5q24 -84 77.5 -123.5t157.5 -39.5q114 0 175 57t61 158v117h-346q-8 0 -8 8v12q0 8 8 8h346v109q0 102 -60 158.5
t-176 56.5q-102 0 -155 -37.5t-78 -119.5q-3 -8 -11 -5l-11 3q-9 3 -6 11z" />
    <glyph glyph-name="uni042E" unicode="&#x42e;" horiz-adv-x="907" 
d="M317 481q0 115 68 179t196 64q127 0 195 -64t68 -179v-252q0 -115 -68 -179t-195 -64q-128 0 -196 64t-68 179v117h-203v-338q0 -8 -8 -8h-13q-8 0 -8 8v694q0 8 8 8h13q8 0 8 -8v-328h203v107zM814 481q0 102 -60 159t-173 57t-173.5 -57t-60.5 -159v-252
q0 -102 60.5 -159t173.5 -57t173 57t60 159v252z" />
    <glyph glyph-name="uni042F" unicode="&#x42f;" horiz-adv-x="637" 
d="M56 514q0 93 52.5 144.5t146.5 51.5h289q8 0 8 -8v-694q0 -8 -8 -8h-13q-8 0 -8 8v312h-188q-64 0 -100 -23t-61 -77l-102 -213q-4 -7 -15 -7h-12q-10 0 -5 9l107 224q33 70 85 90q-84 6 -130 55.5t-46 135.5zM257 683q-81 0 -126 -44t-45 -125q0 -80 45 -123t126 -43
h266v335h-266z" />
    <glyph glyph-name="uni0430" unicode="&#x430;" horiz-adv-x="507" 
d="M59 419q54 106 194 106q56 0 95 -15t59 -43t28 -60t8 -74v-264q0 -26 -7.5 -37t-28.5 -20q-60 -26 -154 -26q-122 0 -166.5 36.5t-44.5 114.5q0 81 49 114.5t166 33.5q45 0 159 -12v61q0 37 -6.5 64.5t-23.5 52t-51 37t-83 12.5q-119 0 -169 -92q-4 -6 -10 -4l-10 4
q-9 3 -4 11zM416 249q-82 13 -161 13q-102 0 -143.5 -28.5t-41.5 -96.5q0 -66 38 -96.5t144 -30.5q86 0 138 23q17 7 21.5 14t4.5 26v176z" />
    <glyph glyph-name="uni0431" unicode="&#x431;" horiz-adv-x="551" 
d="M376 733q58 0 83 15q7 4 11 -4l4 -11q2 -6 -5 -10q-29 -16 -93 -16h-38q-140 0 -191.5 -59.5t-51.5 -212.5v-26q61 95 190 95q103 0 157.5 -50t54.5 -139v-140q0 -89 -55 -139t-160 -50q-104 0 -158.5 50t-54.5 139v256q0 169 58 235.5t211 66.5h38zM469 315
q0 78 -47.5 121t-139.5 43q-56 0 -100 -23.5t-61 -45t-25 -39.5v-196q0 -78 48 -121t138 -43q92 0 139.5 43t47.5 121v140z" />
    <glyph glyph-name="uni0432" unicode="&#x432;" horiz-adv-x="531" 
d="M465 384q0 -87 -70 -117q88 -28 88 -130q0 -65 -37 -101t-102 -36h-262q-8 0 -8 8v495q0 8 8 8h249q64 0 99 -33t35 -94zM333 277q48 0 76.5 27t28.5 78q0 105 -111 105h-226v-210h232zM341 24q54 0 84 30t30 85t-30.5 85t-86.5 30h-237v-230h240z" />
    <glyph glyph-name="uni0433" unicode="&#x433;" horiz-adv-x="423" 
d="M398 511q8 0 8 -7v-11q0 -7 -8 -7h-297v-479q0 -7 -8 -7h-12q-7 0 -7 7v497q0 7 7 7h317z" />
    <glyph glyph-name="uni0434" unicode="&#x434;" horiz-adv-x="574" 
d="M545 25q8 0 8 -7v-150q0 -7 -8 -7h-12q-7 0 -7 7v132h-488v-132q0 -7 -7 -7h-12q-7 0 -7 7v150q0 7 7 7h38q24 21 38 44.5t26.5 92.5t12.5 178v164q0 7 8 7h332q8 0 8 -7v-479h63zM161 339q0 -143 -18 -211.5t-52 -102.5h363v461h-293v-147z" />
    <glyph glyph-name="uni0435" unicode="&#x435;" horiz-adv-x="525" 
d="M53 318q0 97 54.5 152t158.5 55q103 0 158 -55.5t55 -150.5v-50q0 -17 -18 -17h-381v-74q0 -78 45.5 -123t133.5 -45q133 0 189 107q5 7 12 3l9 -5q7 -3 2 -10q-60 -119 -212 -119q-102 0 -154 51.5t-52 142.5v138zM451 320q0 84 -47 132.5t-138 48.5t-138.5 -48.5
t-47.5 -132.5v-45h371v45z" />
    <glyph glyph-name="uni0436" unicode="&#x436;" horiz-adv-x="740" 
d="M376 511q8 0 8 -8v-227h101q17 0 24 -1l165 230q5 6 16 6h11q11 0 5 -9l-169 -233q52 -13 84 -76l92 -185q5 -8 -4 -8h-13q-10 0 -12 6l-87 175q-18 37 -43.5 53.5t-68.5 16.5h-101v-243q0 -8 -8 -8h-12q-8 0 -8 8v243h-101q-43 0 -68.5 -16.5t-43.5 -53.5l-87 -175
q-2 -6 -12 -6h-13q-9 0 -4 8l92 185q31 63 84 76l-169 233q-6 9 5 9h11q11 0 16 -6l165 -230q7 1 24 1h101v227q0 8 8 8h12z" />
    <glyph glyph-name="uni0437" unicode="&#x437;" horiz-adv-x="511" 
d="M45 393q2 6 6.5 17t20 32.5t37 38.5t61 30.5t87.5 13.5q96 0 145.5 -39.5t49.5 -101.5q0 -89 -81 -118v-2q92 -24 92 -130q0 -67 -50.5 -107.5t-151.5 -40.5q-50 0 -91.5 15t-63.5 31.5t-40 42.5t-20.5 33t-7.5 19q-4 8 5 11l11 3q8 3 10 -5l1 -2q28 -78 107 -108
q39 -15 89 -15q86 0 129.5 34t43.5 91q0 59 -31.5 87t-100.5 28h-118q-8 0 -8 8v8q0 8 8 8h117q60 0 91.5 28.5t31.5 78.5q0 52 -42 85t-125 33q-40 0 -73.5 -11t-52 -24t-33.5 -33t-18.5 -27.5t-7.5 -17.5l-1 -2q-3 -9 -11 -6l-10 3q-8 3 -5 11z" />
    <glyph glyph-name="uni0438" unicode="&#x438;" horiz-adv-x="562" 
d="M93 511q8 0 8 -7v-371q0 -47 -3 -92h2q14 21 48 67l313 399q3 4 8 4h12q7 0 7 -7v-497q0 -7 -7 -7h-12q-8 0 -8 7v362q0 53 3 101h-1q-10 -14 -53 -72l-308 -393q-4 -5 -9 -5h-12q-7 0 -7 7v497q0 7 7 7h12z" />
    <glyph glyph-name="uni0439" unicode="&#x439;" horiz-adv-x="562" 
d="M431 705q-30 -113 -149 -113t-149 113q-3 6 4 8l11 4q7 3 8 -4q13 -51 43.5 -74.5t82.5 -23.5t81.5 23.5t43.5 74.5q3 7 8 4l12 -4q5 -1 4 -8zM93 511q8 0 8 -7v-371q0 -47 -3 -92h2q14 21 48 67l313 399q3 4 8 4h12q7 0 7 -7v-497q0 -7 -7 -7h-12q-8 0 -8 7v362
q0 53 3 101h-1q-10 -14 -53 -72l-308 -393q-4 -5 -9 -5h-12q-7 0 -7 7v497q0 7 7 7h12z" />
    <glyph glyph-name="uni043A" unicode="&#x43a;" horiz-adv-x="512" 
d="M487 8q5 -8 -4 -8h-13q-10 0 -12 6l-87 175q-18 37 -43.5 53.5t-68.5 16.5h-158v-243q0 -8 -8 -8h-12q-7 0 -7 8v495q0 8 7 8h12q8 0 8 -8v-227h156h10l181 229q5 6 16 6h11q11 0 5 -9l-184 -231q64 -9 99 -78z" />
    <glyph glyph-name="uni043B" unicode="&#x43b;" horiz-adv-x="533" 
d="M451 511q8 0 8 -7v-497q0 -7 -8 -7h-12q-7 0 -7 7v478h-287v-159q0 -94 -9.5 -158t-29 -99.5t-39 -52.5t-49.5 -30q-6 -3 -9 3l-6 13q-3 5 3 8q21 10 32.5 17.5t29 29.5t26.5 52.5t16.5 86.5t7.5 131v177q0 7 7 7h326z" />
    <glyph glyph-name="uni043C" unicode="&#x43c;" horiz-adv-x="635" 
d="M553 511q8 0 8 -9v-494q0 -8 -8 -8h-9q-9 0 -9 8v348q0 36 4 108h-2q-25 -48 -48 -89l-154 -275q-5 -7 -12 -7h-7q-8 0 -11 7l-154 269q-37 66 -53 96h-1q3 -60 3 -118v-339q0 -8 -7 -8h-11q-8 0 -8 8v494q0 9 8 9h9q9 0 12 -8l217 -380l213 380q4 8 10 8h10z" />
    <glyph glyph-name="uni043D" unicode="&#x43d;" horiz-adv-x="557" 
d="M476 511q7 0 7 -7v-497q0 -7 -7 -7h-12q-8 0 -8 7v244h-355v-244q0 -7 -8 -7h-12q-7 0 -7 7v497q0 7 7 7h12q8 0 8 -7v-228h355v228q0 7 8 7h12z" />
    <glyph glyph-name="uni043E" unicode="&#x43e;" horiz-adv-x="536" 
d="M57 355q0 78 57.5 124t153.5 46t153.5 -46t57.5 -124v-199q0 -78 -57.5 -124t-153.5 -46t-153.5 46t-57.5 124v199zM452 356q0 66 -50.5 105t-133.5 39q-82 0 -133 -39t-51 -105v-201q0 -66 51 -105t133 -39q83 0 133.5 39t50.5 105v201z" />
    <glyph glyph-name="uni043F" unicode="&#x43f;" horiz-adv-x="552" 
d="M471 511q8 0 8 -7v-497q0 -7 -8 -7h-12q-8 0 -8 7v479h-350v-479q0 -7 -8 -7h-12q-7 0 -7 7v497q0 7 7 7h390z" />
    <glyph glyph-name="uni0440" unicode="&#x440;" horiz-adv-x="532" 
d="M111 497q67 28 161 28q204 0 204 -198v-149q0 -192 -190 -192q-99 0 -188 48v-247q0 -7 -7 -7h-13q-7 0 -7 7v655q0 24 8 34.5t32 20.5zM449 326q0 174 -180 174q-81 0 -143 -26q-19 -8 -23.5 -14t-4.5 -24v-374q87 -51 187 -51q164 0 164 167v148z" />
    <glyph glyph-name="uni0441" unicode="&#x441;" horiz-adv-x="513" 
d="M55 334q0 90 53.5 140.5t156.5 50.5q89 0 136.5 -34.5t67.5 -103.5q2 -8 -4 -11l-11 -3q-7 -3 -10 4q-19 65 -60.5 94t-120.5 29q-88 0 -134.5 -44t-46.5 -121v-158q0 -77 47 -121.5t134 -44.5q77 0 121 31.5t62 98.5q3 8 10 5l12 -3q7 -3 5 -10q-42 -147 -209 -147
q-101 0 -155 50.5t-54 141.5v156z" />
    <glyph glyph-name="uni0442" unicode="&#x442;" horiz-adv-x="436" 
d="M414 511q8 0 8 -7v-11q0 -7 -8 -7h-181v-479q0 -7 -8 -7h-12q-8 0 -8 7v479h-183q-7 0 -7 7v11q0 7 7 7h392z" />
    <glyph glyph-name="uni0443" unicode="&#x443;" horiz-adv-x="548" 
d="M467 511q7 0 7 -7v-545q0 -216 -206 -216q-136 0 -192 117q-5 7 3 12l9 4q6 4 12 -3q49 -104 168 -104q179 0 179 189v69q-100 -38 -188 -38q-190 0 -190 192v323q0 7 7 7h13q7 0 7 -7v-322q0 -168 166 -168q88 0 185 39v451q0 7 8 7h12z" />
    <glyph glyph-name="uni0444" unicode="&#x444;" horiz-adv-x="738" 
d="M383 519q47 5 89 6q211 0 211 -197v-145q0 -197 -211 -197q-42 1 -89 6v-205q0 -7 -8 -7h-12q-7 0 -7 7v205q-46 -5 -92 -6q-210 0 -210 197v136q0 60 19 103t51.5 64t66.5 30t73 9q46 -1 92 -6v213q0 8 7 8h12q8 0 8 -8v-213zM82 184q0 -172 183 -172q38 0 91 5v477
q-53 5 -91 5q-31 0 -59 -7t-58 -25t-48 -56t-18 -93v-134zM655 327q0 172 -183 172q-38 0 -90 -5v-477q52 -5 90 -5q183 0 183 172v143z" />
    <glyph glyph-name="uni0445" unicode="&#x445;" horiz-adv-x="471" 
d="M437 511q10 0 4 -7l-188 -242l200 -255q4 -7 -5 -7h-16q-6 0 -11 6l-185 237l-186 -237q-5 -6 -13 -6h-14q-8 0 -4 7l200 256l-191 241q-5 7 6 7h14q9 0 12 -6l176 -223l174 223q5 6 12 6h15z" />
    <glyph glyph-name="uni0446" unicode="&#x446;" horiz-adv-x="563" 
d="M534 25q8 0 8 -7v-150q0 -7 -8 -7h-11q-8 0 -8 7v132h-434q-7 0 -7 7v497q0 7 7 7h12q8 0 8 -7v-479h343v479q0 7 7 7h12q8 0 8 -7v-479h63z" />
    <glyph glyph-name="uni0447" unicode="&#x447;" horiz-adv-x="502" 
d="M39 504q0 7 7 7h12q8 0 8 -7v-133q0 -79 40.5 -113.5t132.5 -34.5q63 0 162 27v254q0 7 8 7h12q8 0 8 -7v-497q0 -7 -8 -7h-12q-8 0 -8 7v217q-74 -27 -164 -27q-103 0 -150.5 41.5t-47.5 131.5v134z" />
    <glyph glyph-name="uni0448" unicode="&#x448;" horiz-adv-x="756" 
d="M675 511q8 0 8 -7v-497q0 -7 -8 -7h-594q-7 0 -7 7v497q0 7 7 7h12q8 0 8 -7v-479h263v479q0 7 8 7h12q8 0 8 -7v-479h263v479q0 7 8 7h12z" />
    <glyph glyph-name="uni0449" unicode="&#x449;" horiz-adv-x="774" 
d="M744 25q8 0 8 -7v-150q0 -7 -8 -7h-12q-7 0 -7 7v132h-644q-7 0 -7 7v497q0 7 7 7h12q8 0 8 -7v-479h263v479q0 7 8 7h12q8 0 8 -7v-479h263v479q0 7 8 7h12q8 0 8 -7v-479h61z" />
    <glyph glyph-name="uni044A" unicode="&#x44a;" horiz-adv-x="609" 
d="M404 336q82 0 127 -43t45 -123q0 -82 -45 -126t-127 -44h-227q-7 0 -7 7v479h-149q-7 0 -7 7v11q0 7 7 7h169q7 0 7 -7v-168h207zM401 25q71 0 109 37t38 108q0 69 -38 105t-109 36h-204v-286h204z" />
    <glyph glyph-name="uni044B" unicode="&#x44b;" horiz-adv-x="688" 
d="M308 336q81 0 126 -43t45 -123q0 -82 -45 -126t-126 -44h-227q-7 0 -7 7v497q0 7 7 7h12q8 0 8 -7v-168h207zM607 511q8 0 8 -7v-497q0 -7 -8 -7h-12q-8 0 -8 7v497q0 7 8 7h12zM305 25q71 0 108.5 37t37.5 108q0 69 -37.5 105t-108.5 36h-204v-286h204z" />
    <glyph glyph-name="uni044C" unicode="&#x44c;" horiz-adv-x="513" 
d="M308 336q81 0 126 -43t45 -123q0 -82 -45 -126t-126 -44h-227q-7 0 -7 7v497q0 7 7 7h12q8 0 8 -7v-168h207zM305 25q71 0 108.5 37t37.5 108q0 69 -37.5 105t-108.5 36h-204v-286h204z" />
    <glyph glyph-name="uni044D" unicode="&#x44d;" horiz-adv-x="511" 
d="M42 387q20 69 67.5 103.5t137.5 34.5q102 0 155.5 -50.5t53.5 -140.5v-156q0 -90 -53.5 -141t-154.5 -51q-167 0 -209 147q-2 7 4 10l12 4q8 1 10 -6q19 -67 63 -98.5t120 -31.5q87 0 134 44.5t47 121.5v72h-247q-8 0 -8 8v10q0 8 8 8h247v60q0 77 -46 121t-135 44
q-79 0 -120 -29t-60 -94q-3 -7 -10 -4l-11 3q-7 3 -5 11z" />
    <glyph glyph-name="uni044E" unicode="&#x44e;" horiz-adv-x="738" 
d="M265 358q0 77 56.5 122t150.5 45q95 0 151 -45t56 -123v-203q0 -78 -56 -123t-151 -45t-151 45t-56 123v92h-164v-239q0 -7 -8 -7h-12q-7 0 -7 7v497q0 7 7 7h12q8 0 8 -7v-232h164v86zM652 358q0 65 -49 103.5t-131 38.5q-81 0 -130.5 -38.5t-49.5 -103.5v-205
q0 -65 49.5 -103.5t130.5 -38.5q82 0 131 38.5t49 103.5v205z" />
    <glyph glyph-name="uni044F" unicode="&#x44f;" horiz-adv-x="523" 
d="M442 511q8 0 8 -8v-496q0 -7 -7 -7h-13q-7 0 -7 7v192h-212l-134 -192q-5 -7 -14 -7h-12q-11 0 -6 9l136 193q-63 7 -98.5 47t-35.5 105q0 74 43 115.5t116 41.5h236zM208 486q-62 0 -97.5 -35t-35.5 -97q0 -61 35.5 -95.5t97.5 -34.5h215v262h-215z" />
    <glyph glyph-name="uni0451" unicode="&#x451;" horiz-adv-x="525" 
d="M174 670q10 0 13.5 -3.5t3.5 -12.5v-7q0 -10 -3.5 -13t-13.5 -3h-6q-9 0 -12.5 3t-3.5 13v7q0 16 16 16h6zM363 670q17 0 17 -16v-7q0 -16 -17 -16h-5q-11 0 -14.5 3t-3.5 13v7q0 16 18 16h5zM53 318q0 97 54.5 152t158.5 55q103 0 158 -55.5t55 -150.5v-50
q0 -17 -18 -17h-381v-74q0 -78 45.5 -123t133.5 -45q133 0 189 107q5 7 12 3l9 -5q7 -3 2 -10q-60 -119 -212 -119q-102 0 -154 51.5t-52 142.5v138zM451 320q0 84 -47 132.5t-138 48.5t-138.5 -48.5t-47.5 -132.5v-45h371v45z" />
    <glyph glyph-name="Wgrave" unicode="&#x1e80;" horiz-adv-x="864" 
d="M339 884q5 6 15 1l177 -106q6 -4 2 -9l-6 -6q-4 -4 -11 -1l-182 103q-8 4 -1 11zM834 710q8 0 5 -8l-190 -694q-2 -8 -12 -8h-12q-9 0 -12 8l-158 554q-4 14 -22 86h-1l-24 -86l-158 -554q-1 -8 -11 -8h-13q-10 0 -11 8l-190 694q-3 8 5 8h15q10 0 11 -7l156 -573
q2 -9 9.5 -41t11.5 -46h1q3 15 11.5 46t10.5 40l159 556q2 7 11 7h14q9 0 11 -7l159 -558q19 -73 22 -84h1q5 20 19 83l156 577q3 7 12 7h14z" />
    <glyph glyph-name="wgrave" unicode="&#x1e81;" horiz-adv-x="728" 
d="M272 711q6 7 15 1l174 -110q6 -4 1 -10l-5 -6q-3 -4 -11 -1l-179 109q-8 4 -1 11zM697 511q9 0 6 -9l-160 -499q-1 -8 -9 -8h-11q-8 0 -11 8l-127 384q-4 14 -11 37.5t-10 31.5h-2q-3 -8 -10 -31.5t-11 -37.5l-126 -384q-3 -8 -11 -8h-10q-8 0 -10 8l-159 499q-3 9 6 9
h11q11 0 12 -8l120 -381q4 -13 12.5 -44t12.5 -44h2q3 10 12 41.5t15 48.5l120 362q2 7 12 7h8q9 0 11 -7l119 -358q6 -17 15.5 -49.5t13.5 -44.5h2q6 18 26 93l120 376q1 8 12 8h10z" />
    <glyph glyph-name="Wacute" unicode="&#x1e82;" horiz-adv-x="864" 
d="M511 893q9 5 15 -1l6 -7q7 -7 -1 -11l-179 -108q-7 -4 -11 1l-5 6q-5 5 1 9zM834 710q8 0 5 -8l-190 -694q-2 -8 -12 -8h-12q-9 0 -12 8l-158 554q-4 14 -22 86h-1l-24 -86l-158 -554q-1 -8 -11 -8h-13q-10 0 -11 8l-190 694q-3 8 5 8h15q10 0 11 -7l156 -573
q2 -9 9.5 -41t11.5 -46h1q3 15 11.5 46t10.5 40l159 556q2 7 11 7h14q9 0 11 -7l159 -558q19 -73 22 -84h1q5 20 19 83l156 577q3 7 12 7h14z" />
    <glyph glyph-name="wacute" unicode="&#x1e83;" horiz-adv-x="728" 
d="M442 712q9 6 15 -1l6 -6q7 -7 -1 -11l-178 -109q-8 -3 -12 1l-5 6q-5 6 1 10zM697 511q9 0 6 -9l-160 -499q-1 -8 -9 -8h-11q-8 0 -11 8l-127 384q-4 14 -11 37.5t-10 31.5h-2q-3 -8 -10 -31.5t-11 -37.5l-126 -384q-3 -8 -11 -8h-10q-8 0 -10 8l-159 499q-3 9 6 9h11
q11 0 12 -8l120 -381q4 -13 12.5 -44t12.5 -44h2q3 10 12 41.5t15 48.5l120 362q2 7 12 7h8q9 0 11 -7l119 -358q6 -17 15.5 -49.5t13.5 -44.5h2q6 18 26 93l120 376q1 8 12 8h10z" />
    <glyph glyph-name="Wdieresis" unicode="&#x1e84;" horiz-adv-x="864" 
d="M342 845q10 0 13 -3.5t3 -12.5v-6q0 -10 -3 -13.5t-13 -3.5h-6q-10 0 -13.5 3.5t-3.5 13.5v6q0 16 17 16h6zM530 845q18 0 18 -16v-6q0 -17 -18 -17h-5q-10 0 -13.5 3.5t-3.5 13.5v6q0 9 3.5 12.5t13.5 3.5h5zM834 710q8 0 5 -8l-190 -694q-2 -8 -12 -8h-12q-9 0 -12 8
l-158 554q-4 14 -22 86h-1l-24 -86l-158 -554q-1 -8 -11 -8h-13q-10 0 -11 8l-190 694q-3 8 5 8h15q10 0 11 -7l156 -573q2 -9 9.5 -41t11.5 -46h1q3 15 11.5 46t10.5 40l159 556q2 7 11 7h14q9 0 11 -7l159 -558q19 -73 22 -84h1q5 20 19 83l156 577q3 7 12 7h14z" />
    <glyph glyph-name="wdieresis" unicode="&#x1e85;" horiz-adv-x="728" 
d="M273 669q10 0 13 -3.5t3 -12.5v-7q0 -10 -3 -13t-13 -3h-6q-9 0 -12.5 3t-3.5 13v7q0 16 16 16h6zM462 669q17 0 17 -16v-7q0 -16 -17 -16h-5q-11 0 -14.5 3t-3.5 13v7q0 16 18 16h5zM697 511q9 0 6 -9l-160 -499q-1 -8 -9 -8h-11q-8 0 -11 8l-127 384q-4 14 -11 37.5
t-10 31.5h-2q-3 -8 -10 -31.5t-11 -37.5l-126 -384q-3 -8 -11 -8h-10q-8 0 -10 8l-159 499q-3 9 6 9h11q11 0 12 -8l120 -381q4 -13 12.5 -44t12.5 -44h2q3 10 12 41.5t15 48.5l120 362q2 7 12 7h8q9 0 11 -7l119 -358q6 -17 15.5 -49.5t13.5 -44.5h2q6 18 26 93l120 376
q1 8 12 8h10z" />
    <glyph glyph-name="Ygrave" unicode="&#x1ef2;" horiz-adv-x="613" 
d="M213 884q5 6 15 1l177 -106q6 -4 2 -9l-6 -6q-4 -4 -11 -1l-182 103q-8 4 -1 11zM593 710q9 0 5 -8l-277 -408v-286q0 -8 -8 -8h-13q-8 0 -8 8v287l-275 407q-6 8 5 8h16q10 0 15 -7l254 -378l255 378q4 7 14 7h17z" />
    <glyph glyph-name="ygrave" unicode="&#x1ef3;" horiz-adv-x="548" 
d="M179 711q6 7 15 1l174 -110q6 -4 1 -10l-5 -6q-4 -4 -12 -1l-178 109q-8 4 -1 11zM467 511q7 0 7 -7v-545q0 -216 -206 -216q-136 0 -192 117q-5 7 3 12l9 4q6 4 12 -3q49 -104 168 -104q179 0 179 189v69q-100 -38 -188 -38q-190 0 -190 192v323q0 7 7 7h13q7 0 7 -7
v-322q0 -168 166 -168q88 0 185 39v451q0 7 8 7h12z" />
    <glyph glyph-name="endash" unicode="&#x2013;" horiz-adv-x="582" 
d="M509 281q8 0 8 -8v-11q0 -8 -8 -8h-436q-8 0 -8 8v11q0 8 8 8h436z" />
    <glyph glyph-name="emdash" unicode="&#x2014;" horiz-adv-x="782" 
d="M709 281q8 0 8 -8v-11q0 -8 -8 -8h-636q-8 0 -8 8v11q0 8 8 8h636z" />
    <glyph glyph-name="quoteleft" unicode="&#x2018;" horiz-adv-x="176" 
d="M112 703q1 7 9 7h5q7 0 6 -7l-41 -150q-2 -11 -13 -11h-11q-12 0 -9 11z" />
    <glyph glyph-name="quoteright" unicode="&#x2019;" horiz-adv-x="173" 
d="M79 550q-1 -8 -9 -8h-5q-7 0 -6 7l41 150q2 11 13 11h11q12 0 9 -11z" />
    <glyph glyph-name="quotesinglbase" unicode="&#x201a;" horiz-adv-x="141" 
d="M78 -102q0 -7 -7 -7h-6q-8 0 -8 7v205q0 7 8 7h13q8 0 8 -7z" />
    <glyph glyph-name="quotedblleft" unicode="&#x201c;" horiz-adv-x="271" 
d="M112 703q1 7 9 7h5q7 0 6 -7l-41 -150q-2 -11 -13 -11h-11q-12 0 -9 11zM206 703q3 7 10 7h5q8 0 5 -7l-40 -150q-2 -11 -13 -11h-11q-14 0 -9 11z" />
    <glyph glyph-name="quotedblright" unicode="&#x201d;" horiz-adv-x="268" 
d="M79 550q-1 -8 -9 -8h-5q-7 0 -6 7l41 150q2 11 13 11h11q12 0 9 -11zM174 550q-3 -8 -9 -8h-6q-6 0 -5 7l41 150q2 11 13 11h11q12 0 8 -11z" />
    <glyph glyph-name="quotedblbase" unicode="&#x201e;" horiz-adv-x="244" 
d="M40 -114q-3 -7 -10 -7h-5q-7 0 -6 6l41 151q2 10 13 10h11q13 0 9 -10zM134 -114q-3 -7 -9 -7h-5q-7 0 -6 6l41 151q2 10 13 10h11q12 0 9 -10z" />
    <glyph glyph-name="dagger" unicode="&#x2020;" horiz-adv-x="538" 
d="M496 458q8 0 8 -8v-12q0 -8 -8 -8h-212v-522q0 -8 -7 -8h-13q-8 0 -8 8v522h-213q-8 0 -8 8v12q0 8 8 8h213v244q0 8 8 8h13q7 0 7 -8v-244h212z" />
    <glyph glyph-name="daggerdbl" unicode="&#x2021;" horiz-adv-x="594" 
d="M304 710q8 0 8 -8v-244h211q8 0 8 -8v-12q0 -8 -8 -8h-211v-252h211q8 0 8 -8v-12q0 -8 -8 -8h-211v-242q0 -8 -8 -8h-13q-7 0 -7 8v242h-214q-8 0 -8 8v12q0 8 8 8h214v252h-214q-8 0 -8 8v12q0 8 8 8h214v244q0 8 7 8h13z" />
    <glyph glyph-name="bullet" unicode="&#x2022;" horiz-adv-x="253" 
d="M127 227q-16 0 -26 10t-10 26t10 26t26 10q15 0 25 -10t10 -26t-10 -26t-25 -10z" />
    <glyph glyph-name="ellipsis" unicode="&#x2026;" horiz-adv-x="528" 
d="M78 40q11 0 15.5 -4.5t4.5 -15.5v-5q0 -11 -4.5 -15t-15.5 -4h-5q-11 0 -15 3.5t-4 15.5v5q0 11 4 15.5t15 4.5h5zM266 40q11 0 15 -4.5t4 -15.5v-5q0 -11 -4 -15t-15 -4h-5q-12 0 -16 3.5t-4 15.5v5q0 11 4.5 15.5t15.5 4.5h5zM453 40q11 0 15.5 -4.5t4.5 -15.5v-5
q0 -11 -4.5 -15t-15.5 -4h-4q-12 0 -16 3.5t-4 15.5v5q0 11 4.5 15.5t15.5 4.5h4z" />
    <glyph glyph-name="perthousand" unicode="&#x2030;" horiz-adv-x="1175" 
d="M40 579q0 68 39.5 107t112.5 39t112.5 -39t39.5 -107v-75q0 -68 -39.5 -106.5t-112.5 -38.5t-112.5 38.5t-39.5 106.5v75zM670 710q12 0 4 -9l-510 -694q-6 -7 -17 -7h-10q-12 0 -5 9l511 694q5 7 15 7h12zM319 578q0 58 -33 90.5t-94 32.5q-62 0 -94.5 -32.5
t-32.5 -90.5v-73q0 -58 32.5 -90t94.5 -32q61 0 94 32t33 90v73zM462 205q0 68 39.5 107t112.5 39t112.5 -39t39.5 -107v-75q0 -68 -39.5 -106.5t-112.5 -38.5t-112.5 38.5t-39.5 106.5v75zM834 205q0 68 39.5 107t112.5 39t112.5 -39t39.5 -107v-75q0 -68 -39.5 -106.5
t-112.5 -38.5t-112.5 38.5t-39.5 106.5v75zM741 204q0 58 -33 90.5t-94 32.5t-94 -32.5t-33 -90.5v-73q0 -58 33 -90t94 -32q62 0 94.5 32t32.5 90v73zM1113 204q0 58 -33 90.5t-94 32.5t-94 -32.5t-33 -90.5v-73q0 -58 33 -90t94 -32q62 0 94.5 32t32.5 90v73z" />
    <glyph glyph-name="guilsinglleft" unicode="&#x2039;" horiz-adv-x="322" 
d="M268 69q6 -5 0 -11l-8 -8q-5 -5 -11 0l-208 208q-5 4 0 9l210 210q4 6 10 0l8 -8q5 -5 0 -11l-195 -195z" />
    <glyph glyph-name="guilsinglright" unicode="&#x203a;" horiz-adv-x="322" 
d="M52 458q-6 7 0 11l8 8q6 6 10 0l209 -210q6 -5 0 -9l-207 -208q-6 -5 -11 0l-9 8q-4 6 0 11l195 194z" />
    <glyph glyph-name="fraction" unicode="&#x2044;" horiz-adv-x="130" 
d="M304 702q6 8 15 8h12q10 0 4 -9l-510 -693q-6 -8 -17 -8h-10q-12 0 -4 9z" />
    <glyph glyph-name="zerosuperior" unicode="&#x2070;" horiz-adv-x="372" 
d="M44 687q0 61 37.5 96t104.5 35t104.5 -35t37.5 -96v-150q0 -61 -37.5 -96.5t-104.5 -35.5q-68 0 -105 35.5t-37 96.5v150zM303 687q0 49 -31 78.5t-86 29.5t-86 -29t-31 -79v-150q0 -51 30.5 -79.5t86.5 -28.5q55 0 86 29t31 79v150z" />
    <glyph glyph-name="foursuperior" unicode="&#x2074;" horiz-adv-x="347" 
d="M317 553q7 0 7 -7v-7q0 -8 -7 -8h-58v-111q0 -7 -7 -7h-10q-7 0 -7 7v111h-207q-7 0 -7 7v6q0 8 3 11l204 249q4 6 13 6h10q5 0 6.5 -1.5t1.5 -6.5v-249h58zM235 779l-184 -226h184v226z" />
    <glyph glyph-name="fivesuperior" unicode="&#x2075;" horiz-adv-x="345" 
d="M290 810q7 0 7 -6v-10q0 -7 -7 -7h-201l-14 -139h96q140 0 140 -118q0 -55 -34 -90t-101 -35q-115 0 -145 110q-3 8 5 11l7 2q9 2 11 -5q26 -94 122 -94q55 0 83 28t28 72q0 96 -117 96h-112q-10 0 -8 10l16 166q1 9 11 9h213z" />
    <glyph glyph-name="sixsuperior" unicode="&#x2076;" horiz-adv-x="370" 
d="M68 612q67 30 134 30q133 0 133 -116q0 -121 -149 -121q-143 0 -143 153v107q0 73 37.5 113t109.5 40q97 0 132 -75q3 -6 -3 -9l-10 -5q-6 -3 -9 3q-28 63 -110 63q-60 0 -91 -33.5t-31 -96.5v-53zM68 558q0 -130 118 -130q124 0 124 98q0 93 -110 93q-75 0 -132 -31v-30
z" />
    <glyph glyph-name="sevensuperior" unicode="&#x2077;" horiz-adv-x="304" 
d="M283 810q7 0 7 -6v-6q0 -5 -2 -9l-158 -370q-2 -6 -9 -6h-11q-9 0 -5 8l157 366h-232q-7 0 -7 6v10q0 7 7 7h253z" />
    <glyph glyph-name="eightsuperior" unicode="&#x2078;" horiz-adv-x="370" 
d="M48 710q0 51 37 79.5t100 28.5t99 -27.5t36 -73.5q0 -43 -24 -68t-56 -36q47 -11 69.5 -33t22.5 -62q0 -113 -147 -113q-70 0 -109 27t-39 78q0 76 88 105q-77 25 -77 95zM295 715q0 37 -29 59.5t-81 22.5t-82 -22.5t-30 -64.5q0 -40 28 -59.5t103 -29.5q91 25 91 94z
M307 518q0 41 -30.5 58.5t-112.5 28.5q-101 -20 -101 -94q0 -41 32 -62.5t90 -21.5q122 0 122 91z" />
    <glyph glyph-name="ninesuperior" unicode="&#x2079;" horiz-adv-x="370" 
d="M302 611q-69 -29 -134 -29q-133 0 -133 116q0 120 149 120q143 0 143 -153v-106q0 -74 -37 -114t-110 -40q-97 0 -132 76q-3 5 3 8l10 5q6 4 9 -2q28 -64 110 -64q61 0 91.5 33.5t30.5 96.5v53zM302 665q0 130 -118 130q-124 0 -124 -97q0 -93 110 -93q75 0 132 31v29z
" />
    <glyph glyph-name="zeroinferior" unicode="&#x2080;" horiz-adv-x="372" 
d="M44 153q0 61 37.5 97t104.5 36t104.5 -36t37.5 -97v-149q0 -61 -37.5 -96t-104.5 -35t-104.5 35t-37.5 96v149zM303 153q0 50 -31 79.5t-86 29.5q-56 0 -86.5 -29.5t-30.5 -79.5v-149q0 -50 30.5 -79t86.5 -29q55 0 86 29t31 79v149z" />
    <glyph glyph-name="oneinferior" unicode="&#x2081;" horiz-adv-x="278" 
d="M207 278q8 0 8 -8v-381q0 -8 -8 -8h-9q-8 0 -8 8v358l-154 -86q-7 -3 -11 3l-3 7q-4 7 2 10l167 94q4 3 11 3h5z" />
    <glyph glyph-name="twoinferior" unicode="&#x2082;" horiz-adv-x="348" 
d="M40 171q14 47 34 71q38 44 104 44q63 0 97 -32t34 -83q0 -26 -8.5 -45t-27 -31.5t-34 -19.5t-41.5 -16q-8 -3 -12 -4l-62 -23q-62 -24 -62 -90v-38h236q9 0 9 -7v-9q0 -7 -9 -7h-249q-11 0 -11 10v46q0 85 77 114l62 24q5 2 22 8t23 8.5t19 9t18 12t12.5 14t10 19.5
t2.5 24q0 42 -27 67t-79 25q-16 0 -30.5 -3t-24.5 -9t-19 -13t-15 -15t-10.5 -16t-7 -15t-4 -12.5t-2.5 -9.5l-1 -4q-2 -7 -10 -6l-9 2q-8 2 -5 10z" />
    <glyph glyph-name="threeinferior" unicode="&#x2083;" horiz-adv-x="359" 
d="M38 173q16 59 52 86t98 27q57 0 89 -31t32 -81q0 -65 -52 -89q63 -28 63 -101q0 -51 -34 -81t-99 -30q-64 0 -99 27.5t-52 83.5q-2 8 4 11l10 3q8 1 10 -7q15 -51 43.5 -73t83.5 -22q53 0 81 24.5t28 65.5q0 36 -21.5 61t-56.5 25h-78q-7 0 -7 7v8q0 7 8 7h76q34 0 51 23
t17 56q0 41 -25.5 65.5t-71.5 24.5q-52 0 -82 -23.5t-44 -73.5q-3 -10 -12 -7l-7 3q-7 3 -5 11z" />
    <glyph glyph-name="fourinferior" unicode="&#x2084;" horiz-adv-x="346" 
d="M316 21q7 0 7 -7v-7q0 -8 -7 -8h-57v-111q0 -7 -7 -7h-10q-7 0 -7 7v111h-207q-7 0 -7 7v6q0 8 3 11l204 249q5 6 13 6h10q8 0 8 -8v-249h57zM235 246l-184 -225h184v225z" />
    <glyph glyph-name="fiveinferior" unicode="&#x2085;" horiz-adv-x="345" 
d="M290 278q7 0 7 -7v-10q0 -6 -7 -6h-201l-14 -139h96q140 0 140 -119q0 -54 -34 -89t-101 -35q-115 0 -145 109q-3 9 5 12l7 2q9 2 11 -5q26 -95 122 -95q55 0 83 28.5t28 72.5q0 96 -117 96h-112q-10 0 -8 10l16 165q1 10 11 10h213z" />
    <glyph glyph-name="sixinferior" unicode="&#x2086;" horiz-adv-x="370" 
d="M68 80q72 29 134 29q133 0 133 -115q0 -121 -149 -121q-143 0 -143 153v106q0 74 37 114t110 40q97 0 132 -76q3 -5 -3 -8l-10 -5q-6 -3 -9 2q-28 64 -110 64q-60 0 -91 -33.5t-31 -96.5v-53zM68 26q0 -130 118 -130q124 0 124 97q0 93 -110 93q-75 0 -132 -31v-29z" />
    <glyph glyph-name="seveninferior" unicode="&#x2087;" horiz-adv-x="304" 
d="M283 278q7 0 7 -6v-6q0 -5 -2 -9l-158 -371q-2 -5 -9 -5h-11q-9 0 -5 8l156 366h-231q-7 0 -7 6v10q0 7 7 7h253z" />
    <glyph glyph-name="eightinferior" unicode="&#x2088;" horiz-adv-x="370" 
d="M48 178q0 51 37 79.5t100 28.5t99 -27.5t36 -74.5q0 -42 -24.5 -67t-55.5 -36q48 -12 70 -33.5t22 -61.5q0 -113 -147 -113q-70 0 -109 26.5t-39 77.5q0 77 88 106q-77 23 -77 95zM295 183q0 37 -29 59t-81 22t-82 -22.5t-30 -63.5q0 -40 28.5 -59.5t102.5 -29.5
q12 3 24 8t29 15t27.5 28.5t10.5 42.5zM307 -15q0 41 -30.5 59t-112.5 28q-101 -20 -101 -93q0 -41 32 -63t90 -22q122 0 122 91z" />
    <glyph glyph-name="nineinferior" unicode="&#x2089;" horiz-adv-x="370" 
d="M302 79q-63 -30 -134 -30q-133 0 -133 116q0 121 149 121q143 0 143 -153v-107q0 -73 -37.5 -113t-109.5 -40q-96 0 -132 75q-3 6 3 9l10 5q6 2 9 -3q28 -63 110 -63q122 0 122 130v53zM302 133q0 130 -118 130q-124 0 -124 -98q0 -93 110 -93q64 0 132 31v30z" />
    <glyph glyph-name="Euro" unicode="&#x20ac;" horiz-adv-x="721" 
d="M151 484q0 114 68.5 177.5t197.5 63.5q183 0 241 -123q6 -10 -4 -13l-10 -5q-9 -3 -13 5q-27 54 -77 81.5t-137 27.5q-115 0 -175.5 -56.5t-60.5 -156.5v-48h357q8 0 5 -7l-3 -10q-1 -7 -10 -7h-349v-126h313q8 0 5 -7l-3 -10q-3 -7 -10 -7h-305v-38q1 -99 62 -156
t174 -57q168 0 220 120q4 8 12 4l11 -5q8 -4 3 -13q-29 -66 -87 -99.5t-159 -33.5q-127 0 -196 63.5t-70 177.5v37h-111q-8 0 -7 7l3 10q3 7 10 7h105v126h-76q-9 0 -6 7l3 10q1 7 9 7h70v47z" />
    <glyph glyph-name="uni20BD" unicode="&#x20bd;" horiz-adv-x="633" 
d="M130 182h382q9 0 9 -9v-7q0 -8 -9 -8h-382v-150q0 -8 -8 -8h-14q-7 0 -7 8v150h-56q-8 0 -8 8v7q0 9 8 9h56v520q0 8 7 8h271q101 0 159 -54t58 -151q0 -95 -58 -148.5t-159 -53.5h-249v-121zM130 330h246q88 0 138.5 46t50.5 129q0 84 -50.5 131t-138.5 47h-246v-353z
" />
    <glyph glyph-name="uni2113" unicode="&#x2113;" horiz-adv-x="417" 
d="M130 575q0 81 35.5 119t92.5 38t91.5 -37t34.5 -113q0 -89 -61 -167.5t-166 -160.5v-95q0 -72 24 -105.5t86 -33.5q25 0 49.5 9.5t32.5 15.5t12 10q5 3 8 0l10 -11q5 -5 -1 -9q-5 -5 -15 -12.5t-38.5 -18t-58.5 -10.5q-74 0 -105 39t-31 121v80q-3 -2 -37 -26.5
t-49 -36.5q-6 -4 -9 2l-7 11q-3 6 1 9q78 55 101 73v309zM358 582q0 64 -27.5 94.5t-72.5 30.5t-73 -32t-28 -100v-287q201 158 201 294z" />
    <glyph glyph-name="uni2116" unicode="&#x2116;" horiz-adv-x="1034" 
d="M976 504q0 -69 -39 -107t-113 -38q-73 0 -112.5 38.5t-39.5 106.5v75q0 68 39.5 107t112.5 39q74 0 113 -38.5t39 -107.5v-75zM582 710q7 0 7 -8v-694q0 -8 -7 -8h-13q-6 0 -11 6l-378 536q-11 17 -39 60.5t-41 61.5h-2q0 -20 1.5 -74t1.5 -83v-499q0 -8 -8 -8h-13
q-8 0 -8 8v694q0 8 8 8h13q7 0 10 -5l367 -521q15 -21 46.5 -68.5t46.5 -68.5h1q0 23 -1.5 82.5t-1.5 92.5v481q0 7 8 7h13zM697 505q0 -58 33 -90t94 -32q62 0 95 32t33 90v73q0 58 -33 90.5t-95 32.5q-61 0 -94 -32.5t-33 -90.5v-73zM970 282q7 0 7 -8v-10q0 -8 -7 -8
h-291q-8 0 -8 8v10q0 8 8 8h291z" />
    <glyph glyph-name="uni2117" unicode="&#x2117;" horiz-adv-x="816" 
d="M49 351q0 150 104.5 254.5t255.5 104.5q150 0 254 -104.5t104 -254.5q0 -151 -104 -255t-254 -104t-255 105t-105 254zM72 351q0 -142 97 -239t240 -97q141 0 237.5 97t96.5 239t-96.5 239t-237.5 97q-143 0 -240 -97t-97 -239zM436 545q65 0 103.5 -37t38.5 -102
t-38.5 -101.5t-103.5 -36.5h-128v-115q0 -6 -7 -6h-10q-6 0 -6 6v384q0 5 1.5 6.5t6.5 1.5h143zM435 289q55 0 87.5 31t32.5 86t-32.5 86.5t-87.5 31.5h-127v-235h127z" />
    <glyph glyph-name="trademark" unicode="&#x2122;" horiz-adv-x="628" 
d="M262 695q7 0 7 -7v-6q0 -7 -7 -7h-94v-225q0 -7 -8 -7h-5q-7 0 -7 7v225h-96q-6 0 -6 7v6q0 7 6 7h210zM545 695q7 0 7 -6v-239q0 -7 -7 -7h-6q-7 0 -7 7v153v52q-16 -26 -24 -38l-73 -110q-4 -5 -9 -5h-3q-6 0 -8 4l-72 109q-4 6 -13 19t-13 20v-51v-153q0 -7 -6 -7h-7
q-7 0 -7 7v238q0 7 8 7h4q5 0 8 -5l108 -164l107 163q3 6 8 6h5z" />
    <glyph glyph-name="Omega" unicode="&#x2126;" horiz-adv-x="735" 
d="M58 379q0 152 86.5 248.5t222.5 96.5t223 -96.5t87 -247.5q0 -118 -53.5 -208t-144.5 -144h202q7 0 7 -8v-12q0 -8 -7 -8h-245q-7 0 -7 8v9q0 7 5 9q99 52 156.5 141t57.5 210q0 140 -78 229.5t-203 89.5q-124 0 -202 -89.5t-78 -229.5q0 -233 213 -351q6 -4 6 -9v-9
q0 -8 -7 -8h-245q-8 0 -8 8v12q0 8 8 8h202q-95 57 -146.5 147t-51.5 204z" />
    <glyph glyph-name="estimated" unicode="&#x212e;" horiz-adv-x="827" 
d="M789 341q0 -14 -15 -14h-554v-222q91 -70 199 -70q93 0 172 51t118 136q5 11 21 11h23q8 0 10 -2.5t0 -9.5q-40 -104 -133.5 -170t-210.5 -66q-153 0 -261.5 108.5t-108.5 261.5t108.5 261.5t261.5 108.5t261.5 -108.5t108.5 -261.5v-14zM618 609q-86 71 -199 71
q-112 0 -199 -70v-234h398v233z" />
    <glyph glyph-name="uni2153" unicode="&#x2153;" horiz-adv-x="863" 
d="M218 718q8 0 8 -8v-381q0 -8 -8 -8h-9q-8 0 -8 8v358l-154 -86q-7 -4 -10 3l-4 7q-4 7 3 11l166 93q6 3 11 3h5zM674 710q12 0 4 -9l-509 -693q-7 -8 -18 -8h-10q-10 0 -4 9l510 693q6 8 15 8h12zM540 292q16 59 51.5 86t97.5 27q57 0 89 -30.5t32 -81.5q0 -65 -52 -89
q64 -29 64 -101q0 -51 -34.5 -81t-99.5 -30q-63 0 -98.5 27.5t-51.5 83.5q-2 8 3 11l10 3q8 1 10 -7q15 -51 43.5 -73t83.5 -22q53 0 81 24.5t28 65.5q0 36 -21.5 61t-55.5 25h-78q-8 0 -8 7v8q0 7 8 7h76q34 0 51 23t17 56q0 41 -25.5 65.5t-71.5 24.5q-52 0 -82 -23.5
t-44 -73.5q-3 -10 -11 -7l-8 3q-6 3 -4 11z" />
    <glyph glyph-name="uni2154" unicode="&#x2154;" horiz-adv-x="861" 
d="M52 612l1 4q1 5 2.5 10t5 13l7 16t10 17t13.5 16.5t17.5 15t22 12.5t27 8t32.5 3q63 0 97 -32t34 -84q0 -26 -8.5 -45t-26.5 -31t-34 -19t-42 -16q-8 -3 -12 -4l-62 -23q-62 -24 -62 -91v-37h236q8 0 8 -8v-8q0 -7 -8 -7h-249q-11 0 -11 10v45q0 86 77 115l61 24
q5 2 22.5 8t23 8.5t19 9t18.5 12t12.5 14t10 19.5t2.5 24q0 41 -27 66.5t-79 25.5q-16 0 -30.5 -3t-24.5 -9t-19 -13t-15 -15t-10.5 -16t-7 -15t-4 -12.5t-2.5 -9.5l-1 -4q-2 -7 -10 -6l-9 2q-8 2 -5 10zM705 710q11 0 5 -9l-510 -693q-6 -8 -17 -8h-10q-11 0 -4 9l510 693
q6 8 15 8h11zM539 292q16 59 51.5 86t97.5 27q57 0 89.5 -30.5t32.5 -81.5q0 -64 -53 -89q64 -29 64 -101q0 -51 -34.5 -81t-99.5 -30q-63 0 -98.5 27.5t-51.5 83.5q-2 8 4 11l9 3q8 1 10 -7q15 -51 43.5 -73t83.5 -22q53 0 81 24.5t28 65.5q0 36 -21.5 61t-55.5 25h-78
q-8 0 -8 7v8q0 7 8 7h76q34 0 51.5 23t17.5 56q0 40 -26 65t-71 25q-52 0 -82 -23.5t-44 -73.5q-4 -10 -12 -7l-8 3q-6 3 -4 11z" />
    <glyph glyph-name="oneeighth" unicode="&#x215b;" horiz-adv-x="846" 
d="M219 719q8 0 8 -8v-381q0 -8 -8 -8h-9q-8 0 -8 8v358l-154 -86q-8 -3 -11 2l-3 8q-4 7 3 10l166 94q9 3 11 3h5zM659 710q11 0 5 -9l-510 -693q-6 -8 -18 -8h-10q-10 0 -4 9l510 693q6 8 15 8h12zM522 297q0 51 37 79.5t100 28.5t99 -27.5t36 -74.5q0 -75 -80 -103
q48 -12 70 -33.5t22 -61.5q0 -113 -147 -113q-70 0 -109 26.5t-39 77.5q0 77 88 106q-77 23 -77 95zM769 302q0 37 -29 59t-81 22t-82 -22.5t-30 -63.5q0 -40 28.5 -59.5t102.5 -29.5q12 3 24 8t29 15t27.5 28.5t10.5 42.5zM781 104q0 41 -30.5 59t-112.5 28
q-101 -20 -101 -93q0 -41 32 -63t90 -22q122 0 122 91z" />
    <glyph glyph-name="threeeighths" unicode="&#x215c;" horiz-adv-x="880" 
d="M46 614q16 59 51.5 86t97.5 27q57 0 89.5 -30.5t32.5 -81.5q0 -65 -53 -90q64 -27 64 -100q0 -51 -34 -81t-99 -30q-64 0 -99.5 27.5t-51.5 83.5q-2 8 4 11l9 2q7 2 11 -6q15 -51 43 -73t84 -22q53 0 80.5 24.5t27.5 65.5q0 36 -21 61t-56 25h-78q-8 0 -8 7v8q0 7 8 7h76
q34 0 51.5 23t17.5 56q0 41 -25.5 65.5t-71.5 24.5q-52 0 -82 -23.5t-44 -73.5q-4 -10 -12 -7l-8 3q-6 3 -4 11zM698 710q11 0 5 -9l-510 -693q-6 -8 -17 -8h-10q-12 0 -4 9l510 693q6 8 15 8h11zM557 297q0 51 37 79.5t100 28.5t99 -27.5t36 -74.5q0 -75 -80 -103
q48 -12 70.5 -34t22.5 -61q0 -113 -148 -113q-70 0 -109 26.5t-39 77.5q0 77 88 106q-77 23 -77 95zM804 302q0 37 -29 59t-81 22t-82 -22.5t-30 -63.5q0 -40 28.5 -59.5t102.5 -29.5q12 3 24.5 8t29 15t27 28.5t10.5 42.5zM816 104q0 41 -30.5 59t-112.5 28
q-101 -20 -101 -93q0 -41 32.5 -63t90.5 -22q121 0 121 91z" />
    <glyph glyph-name="fiveeighths" unicode="&#x215d;" horiz-adv-x="856" 
d="M297 718q6 0 6 -6v-10q0 -6 -6 -6h-202l-14 -140h96q140 0 140 -118q0 -54 -33.5 -89t-100.5 -35q-116 0 -146 109q-3 9 5 12l8 2q7 2 10 -6q26 -94 122 -94q55 0 83 28.5t28 72.5q0 96 -117 96h-111q-11 0 -9 9l16 166q1 9 11 9h214zM675 710q11 0 5 -9l-510 -693
q-6 -8 -17 -8h-11q-10 0 -4 9l510 693q6 8 15 8h12zM533 297q0 51 37 79.5t100 28.5t99 -27.5t36 -74.5q0 -75 -80 -103q48 -12 70.5 -34t22.5 -61q0 -113 -148 -113q-70 0 -109 26.5t-39 77.5q0 77 88 106q-77 23 -77 95zM780 302q0 37 -29 59t-81 22t-82 -22.5t-30 -63.5
q0 -40 28.5 -59.5t102.5 -29.5q12 3 24.5 8t29 15t27 28.5t10.5 42.5zM792 104q0 41 -30.5 59t-112.5 28q-101 -20 -101 -93q0 -41 32.5 -63t90.5 -22q121 0 121 91z" />
    <glyph glyph-name="seveneighths" unicode="&#x215e;" horiz-adv-x="833" 
d="M293 719q7 0 7 -6v-6q0 -6 -2 -10l-158 -370q-2 -5 -9 -5h-11q-9 0 -5 8l156 366h-231q-7 0 -7 5v11q0 7 7 7h253zM623 710q11 0 4 -9l-509 -693q-7 -8 -18 -8h-10q-12 0 -4 9l510 693q6 8 15 8h12zM509 297q0 51 37 79.5t100 28.5t98.5 -27.5t35.5 -74.5q0 -42 -24 -67
t-55 -36q48 -12 70 -33.5t22 -61.5q0 -113 -147 -113q-70 0 -109 26.5t-39 77.5q0 77 88 106q-77 23 -77 95zM756 302q0 37 -29 59t-81 22t-82 -22.5t-30 -63.5q0 -40 28 -59.5t102 -29.5q18 4 35 11t37 29.5t20 53.5zM768 104q0 41 -30.5 59t-112.5 28q-102 -20 -102 -93
q0 -41 32.5 -63t90.5 -22q122 0 122 91z" />
    <glyph glyph-name="arrowleft" unicode="&#x2190;" horiz-adv-x="745" 
d="M692 346q8 0 8 -7v-10q0 -7 -8 -7h-623l229 -230q5 -5 0 -11l-7 -7q-5 -5 -11 1l-252 251q-8 8 0 16l252 251q6 6 11 1l7 -7q5 -6 0 -11l-229 -230h623z" />
    <glyph glyph-name="arrowup" unicode="&#x2191;" horiz-adv-x="745" 
d="M631 415q7 -5 1 -11l-7 -7q-6 -5 -11 0l-229 229v-623q0 -7 -7 -7h-11q-7 0 -7 7v623l-230 -229q-5 -5 -10 0l-8 7q-5 5 1 11l251 252q8 8 16 0z" />
    <glyph glyph-name="arrowright" unicode="&#x2192;" horiz-adv-x="745" 
d="M717 342q8 -8 0 -16l-252 -251q-6 -6 -11 -1l-7 7q-5 6 0 11l229 230h-623q-8 0 -8 7v10q0 7 8 7h623l-229 230q-5 5 0 11l7 7q5 5 11 -1z" />
    <glyph glyph-name="arrowdown" unicode="&#x2193;" horiz-adv-x="745" 
d="M378 671q7 0 7 -7v-623l229 229q5 5 11 0l7 -8q6 -4 -1 -11l-251 -251q-8 -8 -16 0l-251 251q-6 7 -1 11l8 8q5 5 10 0l230 -229v623q0 7 7 7h11z" />
    <glyph glyph-name="uni2196" unicode="&#x2196;" horiz-adv-x="745" 
d="M590 574q11 0 11 -10v-356q0 -8 -7 -8h-11q-7 0 -7 8v324l-441 -441q-5 -5 -11 0l-7 7q-7 5 0 10l442 442h-325q-7 0 -7 8v9q0 7 7 7h356z" />
    <glyph glyph-name="uni2197" unicode="&#x2197;" horiz-adv-x="745" 
d="M511 574q7 0 7 -7v-9q0 -8 -7 -8h-325l442 -442q7 -5 0 -10l-7 -7q-5 -5 -11 0l-441 441v-324q0 -8 -7 -8h-11q-7 0 -7 8v356q0 10 11 10h356z" />
    <glyph glyph-name="uni2198" unicode="&#x2198;" horiz-adv-x="745" 
d="M126 571q6 4 10 0l442 -442v324q0 8 7 8h10q7 0 7 -8v-355q0 -7 -2 -9t-9 -2h-355q-8 0 -8 7v10q0 8 8 8h324l-441 441q-5 5 0 11z" />
    <glyph glyph-name="uni2199" unicode="&#x2199;" horiz-adv-x="745" 
d="M609 571q4 4 10 0l7 -7q6 -6 0 -11l-441 -441h324q8 0 8 -8v-10q0 -7 -8 -7h-355q-7 0 -9 2t-2 9v355q0 8 7 8h10q7 0 7 -8v-324z" />
    <glyph glyph-name="partialdiff" unicode="&#x2202;" horiz-adv-x="549" 
d="M134 733q0 7 8 7q182 0 260.5 -83t78.5 -256v-229q0 -88 -54.5 -137.5t-158.5 -49.5t-158.5 49.5t-54.5 137.5v146q0 88 54 137.5t156 49.5q147 0 190 -98q-2 158 -73 233t-240 75q-8 0 -8 8v10zM454 318q0 77 -48 119.5t-138 42.5t-138 -42.5t-48 -119.5v-146
q0 -77 48 -119.5t138 -42.5t138 42.5t48 119.5v146z" />
    <glyph glyph-name="Delta" unicode="&#x2206;" horiz-adv-x="601" 
d="M307 710q9 0 12 -7l249 -669q4 -8 4 -16v-10q0 -8 -8 -8h-527q-8 0 -8 8v10q0 8 4 16l249 669q3 7 12 7h13zM372 483q-12 32 -35.5 98.5t-35.5 97.5h-1q-12 -30 -35 -96.5t-36 -99.5l-169 -457h481z" />
    <glyph glyph-name="product" unicode="&#x220f;" horiz-adv-x="649" 
d="M608 710q8 0 8 -8v-11q0 -8 -8 -8h-69v-775q0 -8 -8 -8h-14q-8 0 -8 8v775h-366v-775q0 -8 -8 -8h-14q-7 0 -7 8v775h-73q-8 0 -8 8v11q0 8 8 8h567z" />
    <glyph glyph-name="summation" unicode="&#x2211;" horiz-adv-x="558" 
d="M292 319q5 -8 0 -18l-221 -374h431q8 0 8 -8v-11q0 -8 -8 -8h-460q-8 0 -8 8v11q0 3 3 8l226 383l-223 371q-3 4 -3 10v10q0 9 8 9h454q7 0 7 -9v-10q0 -8 -7 -8h-427z" />
    <glyph glyph-name="minus" unicode="&#x2212;" horiz-adv-x="605" 
d="M531 339q8 0 8 -8v-11q0 -8 -8 -8h-456q-8 0 -8 8v11q0 8 8 8h456z" />
    <glyph glyph-name="uni2215" unicode="&#x2215;" horiz-adv-x="553" 
d="M514 702q5 8 17 8h11q12 0 5 -9l-509 -693q-6 -8 -18 -8h-11q-11 0 -4 10z" />
    <glyph glyph-name="uni2219" unicode="&#x2219;" horiz-adv-x="175" 
d="M90 233q11 0 15 -4.5t4 -15.5v-5q0 -11 -4 -15t-15 -4h-5q-12 0 -16 3.5t-4 15.5v5q0 11 4.5 15.5t15.5 4.5h5z" />
    <glyph glyph-name="radical" unicode="&#x221a;" horiz-adv-x="663" 
d="M649 750q9 0 6 -8l-255 -842q-2 -6 -11 -6h-13q-8 0 -10 6l-177 513h-149q-8 0 -8 8v10q0 9 8 9h158q14 0 15 -8l131 -382q8 -23 20.5 -64t18.5 -58h2q4 13 15 55.5t18 66.5l207 694q2 6 13 6h11z" />
    <glyph glyph-name="infinity" unicode="&#x221e;" horiz-adv-x="723" 
d="M362 312q8 19 20 36.5t31 38t47 33t60 12.5q64 0 105 -42t41 -107q0 -61 -41.5 -102.5t-101.5 -41.5q-62 0 -101.5 36.5t-59.5 80.5q-9 -18 -20.5 -35t-31 -37t-48.5 -32.5t-62 -12.5q-60 0 -101 41.5t-41 102.5q0 65 41 107t105 42q101 0 158 -120zM347 284l-3 6
q-2 6 -4.5 11l-7 14t-9.5 16.5t-12.5 17.5t-15 17.5t-18 15t-21.5 13t-24.5 8.5t-27.5 3q-53 0 -86.5 -34.5t-33.5 -88.5q0 -50 33.5 -84t82.5 -34q97 0 147 119zM640 283q0 54 -33.5 88.5t-86.5 34.5q-96 0 -143 -119q-1 -2 -1 -3q50 -119 148 -119q49 0 82.5 34t33.5 84z
" />
    <glyph glyph-name="integral" unicode="&#x222b;" horiz-adv-x="353" 
d="M162 567q0 88 40.5 130.5t136.5 42.5q7 0 7 -8v-11q0 -7 -7 -7q-81 0 -115 -36t-34 -111v-614q0 -88 -40.5 -130.5t-135.5 -42.5q-7 0 -7 8v11q0 7 7 7q81 0 114.5 36t33.5 111v614z" />
    <glyph glyph-name="approxequal" unicode="&#x2248;" horiz-adv-x="565" 
d="M71 410q56 49 115 49q40 1 98.5 -22.5t93.5 -23.5q51 0 99 43q5 6 11 0l8 -8q6 -6 0 -11q-55 -50 -115 -50q-41 -1 -99 22.5t-93 23.5q-51 0 -99 -43q-6 -6 -11 0l-8 8q-6 6 0 12zM72 226q53 50 114 50q40 0 98.5 -23t93.5 -23q53 0 99 43q5 5 11 0l8 -8q6 -5 0 -11
q-55 -50 -115 -50q-41 -1 -99 22.5t-93 23.5q-50 0 -98 -43q-6 -5 -11 0l-8 8q-6 6 0 11z" />
    <glyph glyph-name="notequal" unicode="&#x2260;" horiz-adv-x="628" 
d="M279 241h263q8 0 8 -7v-12q0 -7 -8 -7h-276l-73 -143q-2 -3 -8 -3h-14q-2 0 -1 4l72 142h-156q-8 0 -8 7v12q0 7 8 7h170l87 171h-257q-8 0 -8 8v11q0 8 8 8h271l72 141q1 3 7 3h14q3 0 2 -4l-72 -140h162q8 0 8 -8v-11q0 -8 -8 -8h-175z" />
    <glyph glyph-name="lessequal" unicode="&#x2264;" horiz-adv-x="588" 
d="M494 598q0 -10 -9 -14l-362 -162v-1l362 -163q9 -4 9 -14v-11q0 -11 -10 -6l-390 179q-7 4 -7 11v8q0 7 7 11l390 178q10 4 10 -6v-10zM485 124q9 0 9 -8v-11q0 -8 -9 -8h-390q-8 0 -8 9v9q0 9 8 9h390z" />
    <glyph glyph-name="greaterequal" unicode="&#x2265;" horiz-adv-x="588" 
d="M95 608q0 10 9 6l391 -178q7 -4 7 -11v-8q0 -7 -7 -11l-391 -179q-9 -5 -9 6v11q0 11 8 14l362 163v1l-362 162q-8 3 -8 14v10zM493 124q9 0 9 -9v-9q0 -9 -9 -9h-389q-9 0 -9 8v11q0 8 9 8h389z" />
    <glyph glyph-name="lozenge" unicode="&#x25ca;" horiz-adv-x="507" 
d="M258 710q7 0 11 -6l201 -341q5 -8 0 -16l-202 -341q-4 -6 -11 -6h-7q-7 0 -11 6l-202 341q-5 8 0 16l201 340q4 7 11 7h9zM253 678l-189 -323l188 -322h2l189 322l-188 323h-2z" />
    <glyph glyph-name="zero.denom" horiz-adv-x="372" 
d="M44 272q0 61 37.5 97t104.5 36t104.5 -36t37.5 -97v-149q0 -61 -37.5 -96t-104.5 -35t-104.5 35t-37.5 96v149zM303 272q0 50 -31 79.5t-86 29.5q-56 0 -86.5 -29.5t-30.5 -79.5v-149q0 -50 30.5 -79t86.5 -29q55 0 86 29t31 79v149z" />
    <glyph glyph-name="one.denom" horiz-adv-x="278" 
d="M207 397q8 0 8 -8v-381q0 -8 -8 -8h-9q-8 0 -8 8v358l-154 -86q-7 -3 -11 3l-3 7q-4 7 2 10l167 94q4 3 11 3h5z" />
    <glyph glyph-name="two.denom" horiz-adv-x="348" 
d="M41 290q14 47 34 71q38 44 104 44q63 0 97 -32t34 -83q0 -26 -8.5 -45t-27 -31.5t-34 -19.5t-41.5 -16q-8 -3 -12 -4l-62 -23q-62 -24 -62 -90v-38h236q8 0 8 -7v-9q0 -7 -8 -7h-249q-11 0 -11 10v46q0 85 77 114l61 24q5 2 22.5 8t23 8.5t19 9t18.5 12t12.5 14t10 19.5
t2.5 24q0 42 -27 67t-79 25q-16 0 -30.5 -3t-24.5 -9t-19 -13t-15 -15t-10.5 -16t-7 -15t-4 -12.5t-2.5 -9.5l-1 -4q-2 -7 -10 -6l-9 2q-8 2 -5 10z" />
    <glyph glyph-name="three.denom" horiz-adv-x="359" 
d="M38 292q16 59 52 86t98 27q57 0 89 -31t32 -81q0 -65 -52 -89q63 -28 63 -101q0 -51 -34 -81t-99 -30q-64 0 -99 27.5t-52 83.5q-2 8 4 11l10 3q8 1 10 -7q15 -51 43.5 -73t83.5 -22q53 0 81 24.5t28 65.5q0 36 -21.5 61t-56.5 25h-78q-7 0 -7 7v8q0 7 8 7h76q34 0 51 23
t17 56q0 41 -25.5 65.5t-71.5 24.5q-52 0 -82 -23.5t-44 -73.5q-3 -10 -12 -7l-7 3q-7 3 -5 11z" />
    <glyph glyph-name="four.denom" horiz-adv-x="347" 
d="M317 140q7 0 7 -7v-7q0 -8 -7 -8h-58v-111q0 -7 -7 -7h-10q-7 0 -7 7v111h-207q-7 0 -7 7v6q0 8 3 11l204 249q5 6 13 6h10q8 0 8 -8v-249h58zM235 365l-184 -225h184v225z" />
    <glyph glyph-name="five.denom" horiz-adv-x="345" 
d="M290 397q7 0 7 -7v-10q0 -6 -7 -6h-201l-14 -139h96q140 0 140 -119q0 -54 -34 -89t-101 -35q-115 0 -145 109q-3 9 5 12l7 2q9 2 11 -5q26 -95 122 -95q55 0 83 28.5t28 72.5q0 96 -117 96h-112q-10 0 -8 10l16 165q1 10 11 10h213z" />
    <glyph glyph-name="six.denom" horiz-adv-x="369" 
d="M68 199q72 29 134 29q133 0 133 -115q0 -121 -149 -121q-143 0 -143 153v106q0 74 37 114t110 40q97 0 132 -76q3 -5 -3 -8l-10 -5q-6 -3 -9 2q-28 64 -110 64q-60 0 -91 -33.5t-31 -96.5v-53zM68 145q0 -130 118 -130q124 0 124 97q0 93 -110 93q-75 0 -132 -31v-29z
" />
    <glyph glyph-name="seven.denom" horiz-adv-x="303" 
d="M281 397q7 0 7 -6v-6q0 -5 -1 -9l-158 -371q-3 -5 -10 -5h-11q-9 0 -5 8l157 366h-232q-7 0 -7 6v10q0 7 7 7h253z" />
    <glyph glyph-name="eight.denom" horiz-adv-x="370" 
d="M48 297q0 51 37 79.5t100 28.5t99 -27.5t36 -74.5q0 -75 -80 -103q48 -12 70 -33.5t22 -61.5q0 -113 -147 -113q-70 0 -109 26.5t-39 77.5q0 77 88 106q-77 23 -77 95zM295 302q0 37 -29 59t-81 22t-82 -22.5t-30 -63.5q0 -40 28.5 -59.5t102.5 -29.5q12 3 24 8t29 15
t27.5 28.5t10.5 42.5zM307 104q0 41 -30.5 59t-112.5 28q-101 -20 -101 -93q0 -41 32 -63t90 -22q122 0 122 91z" />
    <glyph glyph-name="nine.denom" horiz-adv-x="370" 
d="M302 198q-63 -30 -134 -30q-133 0 -133 116q0 121 149 121q143 0 143 -153v-107q0 -73 -37.5 -113t-109.5 -40q-96 0 -132 75q-3 6 3 9l10 5q6 3 9 -3q28 -63 110 -63q122 0 122 130v53zM302 252q0 130 -118 130q-124 0 -124 -98q0 -93 110 -93q64 0 132 31v30z" />
    <glyph glyph-name="zero.num" horiz-adv-x="372" 
d="M44 595q0 61 37.5 96.5t104.5 35.5t104.5 -35.5t37.5 -96.5v-150q0 -61 -37.5 -96t-104.5 -35q-68 0 -105 35t-37 96v150zM303 595q0 50 -31 79t-86 29q-56 0 -86.5 -29t-30.5 -79v-150q0 -50 30.5 -79t86.5 -29q55 0 86 29t31 79v150z" />
    <glyph glyph-name="one.num" horiz-adv-x="278" 
d="M207 719q8 0 8 -8v-381q0 -8 -8 -8h-9q-8 0 -8 8v358l-154 -86q-8 -3 -11 2l-3 8q-4 7 2 10l167 94q9 3 11 3h5z" />
    <glyph glyph-name="two.num" horiz-adv-x="348" 
d="M40 612l1 4q1 5 2.5 10t5 13l7 16t10 17t13.5 16.5t17.5 15t22 12.5t27 8t32.5 3q63 0 97 -32t34 -84q0 -26 -8.5 -45t-26.5 -31t-34 -19t-42 -16q-8 -3 -12 -4l-62 -23q-62 -24 -62 -91v-37h236q9 0 9 -8v-8q0 -7 -9 -7h-249q-11 0 -11 10v45q0 86 77 115l62 24
q5 2 22 8t23 8.5t19 9t18 12t12.5 14t10 19.5t2.5 24q0 41 -27 66.5t-79 25.5q-16 0 -30.5 -3t-24.5 -9t-19 -13t-15 -15t-10.5 -16t-7 -15t-4 -12.5t-2.5 -9.5l-1 -4q-2 -7 -10 -6l-9 2q-8 2 -5 10z" />
    <glyph glyph-name="three.num" horiz-adv-x="359" 
d="M39 614q17 59 52.5 86t97.5 27q57 0 89 -31t32 -81q0 -66 -52 -90q63 -27 63 -100q0 -51 -33.5 -81t-99.5 -30q-64 0 -99.5 27.5t-51.5 83.5q-2 8 4 10l10 3q8 3 10 -6q15 -51 43.5 -73.5t83.5 -22.5q52 0 80.5 25t28.5 66q0 36 -21.5 61t-56.5 25h-78q-7 0 -7 7v8
q0 7 8 7h76q34 0 51 23t17 56q0 41 -25.5 65.5t-71.5 24.5q-52 0 -82 -23.5t-44 -73.5q-2 -10 -12 -7l-7 3q-7 3 -5 11z" />
    <glyph glyph-name="four.num" horiz-adv-x="348" 
d="M318 461q8 0 8 -6v-8q0 -7 -8 -7h-59v-111q0 -7 -7 -7h-10q-7 0 -7 7v111h-207q-7 0 -7 7v6q0 8 3 11l204 249q5 6 13 6h10q8 0 8 -9v-249h59zM235 687l-184 -226h184v226z" />
    <glyph glyph-name="five.num" horiz-adv-x="345" 
d="M290 719q7 0 7 -7v-10q0 -6 -7 -6h-201l-14 -140h96q140 0 140 -118q0 -54 -34 -89t-101 -35q-115 0 -145 109q-3 9 5 12l7 2q8 2 11 -6q26 -94 122 -94q55 0 83 28.5t28 72.5q0 96 -117 96h-112q-10 0 -8 10l16 165q1 10 11 10h213z" />
    <glyph glyph-name="six.num" horiz-adv-x="370" 
d="M68 521q72 29 134 29q133 0 133 -116q0 -120 -149 -120q-143 0 -143 153v106q0 74 37 114t110 40q97 0 132 -76q3 -5 -3 -8l-10 -5q-6 -4 -9 2q-29 64 -110 64q-60 0 -91 -34t-31 -96v-53zM68 466q0 -129 118 -129q124 0 124 97q0 93 -110 93q-75 0 -132 -31v-30z" />
    <glyph glyph-name="seven.num" horiz-adv-x="303" 
d="M282 719q7 0 7 -6v-6q0 -6 -2 -10l-157 -370q-2 -5 -10 -5h-11q-9 0 -5 8l157 366h-232q-7 0 -7 5v11q0 7 7 7h253z" />
    <glyph glyph-name="eight.num" horiz-adv-x="370" 
d="M48 619q0 51 37 79.5t100 28.5t99 -27.5t36 -74.5q0 -75 -80 -103q48 -12 70 -34t22 -62q0 -112 -147 -112q-70 0 -109 26.5t-39 77.5q0 74 88 106q-77 23 -77 95zM295 624q0 37 -29 59t-81 22q-53 0 -82.5 -22.5t-29.5 -64.5q0 -39 28.5 -58.5t102.5 -29.5q12 3 24 8
t29 15t27.5 28.5t10.5 42.5zM307 426q0 41 -30.5 59t-112.5 28q-101 -20 -101 -93q0 -41 32 -63t90 -22q122 0 122 91z" />
    <glyph glyph-name="nine.num" horiz-adv-x="370" 
d="M302 520q-63 -30 -134 -30q-133 0 -133 116q0 121 149 121q143 0 143 -153v-107q0 -74 -37 -113.5t-110 -39.5q-97 0 -132 75q-3 6 3 9l10 5q6 3 9 -3q28 -63 110 -63q122 0 122 130v53zM302 574q0 130 -118 130q-124 0 -124 -98q0 -93 110 -93q75 0 132 31v30z" />
    <glyph glyph-name="CR" horiz-adv-x="322" 
 />
    <glyph glyph-name="acute.case" horiz-adv-x="257" 
d="M208 893q10 5 15 -1l6 -7q7 -7 -1 -11l-179 -108q-7 -4 -11 1l-5 6q-5 5 1 9z" />
    <glyph glyph-name="breve.case" horiz-adv-x="287" 
d="M287 879q-31 -114 -149 -114t-149 114q-1 5 4 8l11 3q7 3 8 -4q26 -98 126 -98t126 98q1 6 7 5l12 -4q6 -3 4 -8z" />
    <glyph glyph-name="caron.case" horiz-adv-x="332" 
d="M320 896q10 0 4 -8l-139 -114q-8 -8 -16 -8h-5q-8 0 -16 8l-139 114q-3 2 -3 5t6 3h13q8 0 14 -5l127 -103l127 103q6 5 14 5h13z" />
    <glyph glyph-name="cedilla.case" horiz-adv-x="251" 
d="M111 -87q15 5 36 5q41 0 64 -19t22 -53q-1 -44 -29.5 -68t-77.5 -24q-48 0 -86 24q-7 4 -7 13v9q0 8 5 3q35 -29 86 -29q40 0 62.5 19.5t22.5 53.5q0 53 -73 53q-24 0 -41 -6q-6 -2 -8 1t0 10l35 95h20z" />
    <glyph glyph-name="circumflex.case" horiz-adv-x="364" 
d="M184 895q8 0 17 -8l139 -115q5 -7 -5 -7h-12q-9 0 -15 5l-126 103l-128 -103q-6 -5 -13 -5h-13q-10 0 -5 7l140 115q9 8 17 8h4z" />
    <glyph glyph-name="dieresis.case" horiz-adv-x="439" 
d="M124 845q10 0 13.5 -3.5t3.5 -12.5v-6q0 -10 -3.5 -13.5t-13.5 -3.5h-6q-16 0 -16 17v6q0 16 16 16h6zM313 845q17 0 17 -16v-6q0 -17 -17 -17h-5q-10 0 -13.5 3.5t-3.5 13.5v6q0 9 3.5 12.5t13.5 3.5h5z" />
    <glyph glyph-name="dotaccent.case" horiz-adv-x="216" 
d="M110 841q18 0 18 -17v-5q0 -17 -18 -17h-4q-10 0 -14 3.5t-4 13.5v5q0 17 18 17h4z" />
    <glyph glyph-name="grave.case" horiz-adv-x="257" 
d="M33 884q6 6 15 1l178 -106q5 -4 1 -9l-6 -6q-3 -5 -11 -1l-182 103q-8 4 -1 11z" />
    <glyph glyph-name="hungarumlaut.case" horiz-adv-x="395" 
d="M167 890q7 7 13 6l12 -3q8 -2 3 -9l-115 -118q-6 -6 -11 -3l-8 2q-7 3 -2 9zM343 890q7 7 13 6l12 -3q9 -3 3 -9l-116 -118q-5 -6 -11 -4l-8 3q-8 2 -2 8z" />
    <glyph glyph-name="macron.case" horiz-adv-x="352" 
d="M293 833q7 0 7 -8v-7q0 -7 -7 -7h-239q-7 0 -7 7v7q0 8 7 8h239z" />
    <glyph glyph-name="ogonek.case" horiz-adv-x="252" 
d="M185 0q-61 -48 -90.5 -102t-15.5 -88q11 -34 49 -34q41 0 71 32q3 4 6 -1l3 -11q2 -4 -2 -8q-38 -36 -85 -36q-53 0 -67 45q-15 42 13 98t93 105h25z" />
    <glyph glyph-name="ring.case" horiz-adv-x="240" 
d="M26 846q0 43 26 67.5t70 24.5q43 0 68 -24.5t25 -67.5t-25 -67.5t-68 -24.5q-44 0 -70 24.5t-26 67.5zM197 846q0 34 -20 54t-55 20q-36 0 -57 -20t-21 -54t21 -54t57 -20q34 0 54.5 20t20.5 54z" />
    <glyph glyph-name="tilde.case" horiz-adv-x="305" 
d="M301 871q6 0 6 -6q0 -90 -73 -90q-30 0 -57 18.5t-52.5 37.5t-51.5 19q-25 0 -39.5 -19t-14.5 -50q0 -6 -5 -6h-10q-6 0 -6 6q0 42 19 66t55 24q38 0 84.5 -38t76.5 -38q26 0 39.5 19.5t13.5 50.5q0 6 6 6h9z" />
    <glyph glyph-name="uni0326.alt" horiz-adv-x="0" 
d="M132 736q4 8 10 8h8q8 0 6 -7l-52 -146q-2 -8 -10 -8h-11q-11 0 -8 9z" />
    <glyph glyph-name="_375" horiz-adv-x="664" 
d="M335 710q9 0 12 -7l249 -669q4 -8 4 -16v-10q0 -8 -8 -8h-527q-8 0 -8 8v10q0 8 4 16l249 669q3 7 12 7h13zM366 573q-7 19 -19 55t-18 51h-1q-6 -15 -18.5 -51.5t-19.5 -55.5l-202 -546h481z" />
    <glyph glyph-name="_376" horiz-adv-x="744" 
d="M63 379q0 139 85 235t224 96t224 -96t85 -235q0 -118 -53.5 -208t-144.5 -144h203q8 0 8 -8v-11q0 -8 -8 -8h-245q-8 0 -8 9v8q0 5 5 9q100 52 157 141t57 211q0 127 -75.5 216.5t-204.5 89.5t-204.5 -89.5t-75.5 -216.5q0 -234 213 -352q6 -4 6 -9v-8q0 -9 -8 -9h-245
q-8 0 -8 8v11q0 8 8 8h204q-95 56 -147 146.5t-52 205.5z" />
    </font>
</defs>
</svg>
